<?xml version="1.0" encoding="UTF-8" standalone="no"?>
<svg
   xmlns:dc="http://purl.org/dc/elements/1.1/"
   xmlns:cc="http://creativecommons.org/ns#"
   xmlns:rdf="http://www.w3.org/1999/02/22-rdf-syntax-ns#"
   xmlns:svg="http://www.w3.org/2000/svg"
   xmlns="http://www.w3.org/2000/svg"
   xmlns:sodipodi="http://sodipodi.sourceforge.net/DTD/sodipodi-0.dtd"
   xmlns:inkscape="http://www.inkscape.org/namespaces/inkscape"
   width="210mm"
   height="297mm"
   viewBox="0 0 210 297"
   version="1.1"
   id="svg8"
   inkscape:version="1.0.1 (3bc2e813f5, 2020-09-07)"
   sodipodi:docname="SolarSpinner_Wave_Resonator_InkScape.svg">
  <defs
     id="defs2" />
  <sodipodi:namedview
     id="base"
     pagecolor="#ffffff"
     bordercolor="#666666"
     borderopacity="1.0"
     inkscape:pageopacity="0.0"
     inkscape:pageshadow="2"
     inkscape:zoom="27.294921"
     inkscape:cx="246.77818"
     inkscape:cy="271.63128"
     inkscape:document-units="mm"
     inkscape:current-layer="layer1"
     showgrid="false"
     inkscape:measure-start="-760,1122.86"
     inkscape:measure-end="0,0"
     inkscape:window-width="1920"
     inkscape:window-height="1017"
     inkscape:window-x="-8"
     inkscape:window-y="-8"
     inkscape:window-maximized="1"
     objecttolerance="5"
     guidetolerance="6"
     inkscape:snap-global="true"
     inkscape:snap-nodes="true"
     inkscape:object-nodes="true"
     inkscape:snap-intersection-paths="true"
     inkscape:snap-smooth-nodes="true"
     inkscape:snap-midpoints="true"
     inkscape:object-paths="true"
     inkscape:snap-object-midpoints="true"
     inkscape:snap-center="true"
     inkscape:snap-bbox="false"
     inkscape:document-rotation="0" />
  <metadata
     id="metadata5">
    <rdf:RDF>
      <cc:Work
         rdf:about="">
        <dc:format>image/svg+xml</dc:format>
        <dc:type
           rdf:resource="http://purl.org/dc/dcmitype/StillImage" />
        <dc:title></dc:title>
      </cc:Work>
    </rdf:RDF>
  </metadata>
  <g
     inkscape:label="Layer 1"
     inkscape:groupmode="layer"
     id="layer1">
    <g
       id="Layer1001"
       transform="matrix(0.35632718,0,0,0.35632718,-24.723853,-20.070446)" />
    <g
       id="Layer1002"
       transform="matrix(0.35632718,0,0,0.35632718,-24.723853,-20.070446)" />
    <g
       id="Layer1003"
       transform="matrix(0.35632718,0,0,0.35632718,-24.723853,-20.070446)" />
    <g
       id="Layer1004"
       transform="matrix(0.35632718,0,0,0.35632718,-24.723853,-20.070446)" />
    <g
       id="Layer1005"
       transform="matrix(0.35632718,0,0,0.35632718,-24.723853,-20.070446)" />
    <g
       id="Layer1006"
       transform="matrix(0.35632718,0,0,0.35632718,-24.723853,-20.070446)" />
    <g
       id="Layer1007"
       transform="matrix(0.35632718,0,0,0.35632718,-24.723853,-20.070446)" />
    <g
       id="Layer1008"
       transform="matrix(0.35632718,0,0,0.35632718,-24.723853,-20.070446)" />
    <g
       id="Layer1009"
       transform="matrix(0.35632718,0,0,0.35632718,-24.723853,-20.070446)" />
    <g
       id="Layer1010"
       transform="matrix(0.35632718,0,0,0.35632718,-24.723853,-20.070446)" />
    <g
       id="Layer1011"
       transform="matrix(0.35632718,0,0,0.35632718,-24.723853,-20.070446)" />
    <g
       id="Layer1012"
       transform="matrix(0.35632718,0,0,0.35632718,-24.723853,-20.070446)" />
    <g
       id="Layer1013"
       transform="matrix(0.35632718,0,0,0.35632718,-24.723853,-20.070446)" />
    <g
       id="Layer1014"
       transform="matrix(0.35632718,0,0,0.35632718,-24.723853,-20.070446)" />
    <g
       id="Layer1015"
       transform="matrix(0.35632718,0,0,0.35632718,-24.723853,-20.070446)" />
    <g
       id="Layer1016"
       transform="matrix(0.35632718,0,0,0.35632718,-24.723853,-20.070446)" />
    <g
       id="Layer1017"
       transform="matrix(0.35632718,0,0,0.35632718,-24.723853,-20.070446)" />
    <g
       id="Layer1018"
       transform="matrix(0.35632718,0,0,0.35632718,-24.723853,-20.070446)" />
    <g
       id="Layer1019"
       transform="matrix(0.35632718,0,0,0.35632718,-24.723853,-20.070446)" />
    <g
       id="Layer1020"
       transform="matrix(0.35632718,0,0,0.35632718,-24.723853,-20.070446)" />
    <g
       id="Layer1021"
       transform="matrix(0.35632718,0,0,0.35632718,-24.723853,-20.070446)" />
    <g
       id="Layer1022"
       transform="matrix(0.35632718,0,0,0.35632718,-24.723853,-20.070446)" />
    <g
       id="Layer1023"
       transform="matrix(0.35632718,0,0,0.35632718,-24.723853,-20.070446)" />
    <g
       id="Layer1024"
       transform="matrix(0.35632718,0,0,0.35632718,-24.723853,-20.070446)" />
    <g
       id="Layer1025"
       transform="matrix(0.35632718,0,0,0.35632718,-24.723853,-20.070446)" />
    <g
       id="Layer1026"
       transform="matrix(0.35632718,0,0,0.35632718,-24.723853,-20.070446)" />
    <g
       id="Layer1027"
       transform="matrix(0.35632718,0,0,0.35632718,-24.723853,-20.070446)" />
    <g
       id="Layer1028"
       transform="matrix(0.35632718,0,0,0.35632718,-24.723853,-20.070446)" />
    <g
       id="Layer1029"
       transform="matrix(0.35632718,0,0,0.35632718,-24.723853,-20.070446)" />
    <g
       id="Layer1030"
       transform="matrix(0.35632718,0,0,0.35632718,-24.723853,-20.070446)" />
    <g
       id="Layer1031"
       transform="matrix(0.35632718,0,0,0.35632718,-24.723853,-20.070446)" />
    <g
       id="Layer1032"
       transform="matrix(0.35632718,0,0,0.35632718,-24.723853,-20.070446)" />
    <g
       id="Layer1033"
       transform="matrix(0.35632718,0,0,0.35632718,-24.723853,-20.070446)" />
    <g
       id="Layer1034"
       transform="matrix(0.35632718,0,0,0.35632718,-24.723853,-20.070446)" />
    <g
       id="Layer1035"
       transform="matrix(0.35632718,0,0,0.35632718,-24.723853,-20.070446)" />
    <g
       id="Layer1036"
       transform="matrix(0.35632718,0,0,0.35632718,-24.723853,-20.070446)" />
    <g
       id="Layer1037"
       transform="matrix(0.35632718,0,0,0.35632718,-24.723853,-20.070446)" />
    <g
       id="Layer1038"
       transform="matrix(0.35632718,0,0,0.35632718,-24.723853,-20.070446)" />
    <g
       id="Layer1039"
       transform="matrix(0.35632718,0,0,0.35632718,-24.723853,-20.070446)" />
    <g
       id="Layer1040"
       transform="matrix(0.35632718,0,0,0.35632718,-24.723853,-20.070446)" />
    <g
       id="Layer1041"
       transform="matrix(0.35632718,0,0,0.35632718,-24.723853,-20.070446)" />
    <g
       id="Layer1042"
       transform="matrix(0.35632718,0,0,0.35632718,-24.723853,-20.070446)" />
    <g
       id="Layer1043"
       transform="matrix(0.35632718,0,0,0.35632718,-24.723853,-20.070446)" />
    <g
       id="Layer1044"
       transform="matrix(0.35632718,0,0,0.35632718,-24.723853,-20.070446)" />
    <g
       id="Layer1045"
       transform="matrix(0.35632718,0,0,0.35632718,-24.723853,-20.070446)" />
    <g
       id="Layer1046"
       transform="matrix(0.35632718,0,0,0.35632718,-24.723853,-20.070446)" />
    <g
       id="Layer1047"
       transform="matrix(0.35632718,0,0,0.35632718,-24.723853,-20.070446)" />
    <g
       id="Layer1048"
       transform="matrix(0.35632718,0,0,0.35632718,-24.723853,-20.070446)" />
    <g
       id="Layer1049"
       transform="matrix(0.35632718,0,0,0.35632718,-24.723853,-20.070446)" />
    <g
       id="Layer1050"
       transform="matrix(0.35632718,0,0,0.35632718,-24.723853,-20.070446)" />
    <g
       id="Layer1051"
       transform="matrix(0.35632718,0,0,0.35632718,-24.723853,-20.070446)" />
    <g
       id="Layer1052"
       transform="matrix(0.35632718,0,0,0.35632718,-24.723853,-20.070446)" />
    <g
       id="Layer1053"
       transform="matrix(0.35632718,0,0,0.35632718,-24.723853,-20.070446)" />
    <g
       id="Layer1054"
       transform="matrix(0.35632718,0,0,0.35632718,-24.723853,-20.070446)" />
    <g
       id="Layer1055"
       transform="matrix(0.35632718,0,0,0.35632718,-24.723853,-20.070446)" />
    <g
       id="Layer1056"
       transform="matrix(0.35632718,0,0,0.35632718,-24.723853,-20.070446)" />
    <g
       id="Layer1057"
       transform="matrix(0.35632718,0,0,0.35632718,-24.723853,-20.070446)" />
    <g
       id="Layer1058"
       transform="matrix(0.35632718,0,0,0.35632718,-24.723853,-20.070446)" />
    <g
       id="Layer1059"
       transform="matrix(0.35632718,0,0,0.35632718,-24.723853,-20.070446)" />
    <g
       id="Layer1060"
       transform="matrix(0.35632718,0,0,0.35632718,-24.723853,-20.070446)" />
    <g
       id="Layer1061"
       transform="matrix(0.35632718,0,0,0.35632718,-24.723853,-20.070446)" />
    <g
       id="Layer1062"
       transform="matrix(0.35632718,0,0,0.35632718,-24.723853,-20.070446)" />
    <g
       id="Layer1063"
       transform="matrix(0.35632718,0,0,0.35632718,-24.723853,-20.070446)" />
    <g
       id="Layer1064"
       transform="matrix(0.35632718,0,0,0.35632718,-24.723853,-20.070446)" />
    <g
       id="Layer1065"
       transform="matrix(0.35632718,0,0,0.35632718,-24.723853,-20.070446)" />
    <g
       id="Layer1066"
       transform="matrix(0.35632718,0,0,0.35632718,-24.723853,-20.070446)" />
    <g
       id="Layer1067"
       transform="matrix(0.35632718,0,0,0.35632718,-24.723853,-20.070446)" />
    <g
       id="Layer1068"
       transform="matrix(0.35632718,0,0,0.35632718,-24.723853,-20.070446)" />
    <g
       id="Layer1069"
       transform="matrix(0.35632718,0,0,0.35632718,-24.723853,-20.070446)" />
    <g
       id="Layer1070"
       transform="matrix(0.35632718,0,0,0.35632718,-24.723853,-20.070446)" />
    <g
       id="Layer1071"
       transform="matrix(0.35632718,0,0,0.35632718,-24.723853,-20.070446)" />
    <g
       id="Layer1072"
       transform="matrix(0.35632718,0,0,0.35632718,-24.723853,-20.070446)" />
    <g
       id="Layer1073"
       transform="matrix(0.35632718,0,0,0.35632718,-24.723853,-20.070446)" />
    <g
       id="Layer1074"
       transform="matrix(0.35632718,0,0,0.35632718,-24.723853,-20.070446)" />
    <g
       id="Layer1075"
       transform="matrix(0.35632718,0,0,0.35632718,-24.723853,-20.070446)" />
    <g
       id="Layer1076"
       transform="matrix(0.35632718,0,0,0.35632718,-24.723853,-20.070446)" />
    <g
       id="Layer1077"
       transform="matrix(0.35632718,0,0,0.35632718,-24.723853,-20.070446)" />
    <g
       id="Layer1078"
       transform="matrix(0.35632718,0,0,0.35632718,-24.723853,-20.070446)" />
    <g
       id="Layer1079"
       transform="matrix(0.35632718,0,0,0.35632718,-24.723853,-20.070446)" />
    <g
       id="Layer1080"
       transform="matrix(0.35632718,0,0,0.35632718,-24.723853,-20.070446)" />
    <g
       id="Layer1081"
       transform="matrix(0.35632718,0,0,0.35632718,-24.723853,-20.070446)" />
    <g
       id="Layer1082"
       transform="matrix(0.35632718,0,0,0.35632718,-24.723853,-20.070446)" />
    <g
       id="Layer1083"
       transform="matrix(0.35632718,0,0,0.35632718,-24.723853,-20.070446)" />
    <g
       id="Layer1084"
       transform="matrix(0.35632718,0,0,0.35632718,-24.723853,-20.070446)" />
    <g
       id="Layer1085"
       transform="matrix(0.35632718,0,0,0.35632718,-24.723853,-20.070446)" />
    <g
       id="Layer1086"
       transform="matrix(0.35632718,0,0,0.35632718,-24.723853,-20.070446)" />
    <g
       id="Layer1087"
       transform="matrix(0.35632718,0,0,0.35632718,-24.723853,-20.070446)" />
    <g
       id="Layer1088"
       transform="matrix(0.35632718,0,0,0.35632718,-24.723853,-20.070446)" />
    <g
       id="Layer1089"
       transform="matrix(0.35632718,0,0,0.35632718,-24.723853,-20.070446)" />
    <g
       id="Layer1090"
       transform="matrix(0.35632718,0,0,0.35632718,-24.723853,-20.070446)" />
    <g
       id="Layer1091"
       transform="matrix(0.35632718,0,0,0.35632718,-24.723853,-20.070446)" />
    <g
       id="Layer1092"
       transform="matrix(0.35632718,0,0,0.35632718,-24.723853,-20.070446)" />
    <g
       id="Layer1093"
       transform="matrix(0.35632718,0,0,0.35632718,-24.723853,-20.070446)" />
    <g
       id="Layer1094"
       transform="matrix(0.35632718,0,0,0.35632718,-24.723853,-20.070446)" />
    <g
       id="Layer1095"
       transform="matrix(0.35632718,0,0,0.35632718,-24.723853,-20.070446)" />
    <g
       id="Layer1096"
       transform="matrix(0.35632718,0,0,0.35632718,-24.723853,-20.070446)" />
    <g
       id="Layer1097"
       transform="matrix(0.35632718,0,0,0.35632718,-24.723853,-20.070446)" />
    <g
       id="Layer1098"
       transform="matrix(0.35632718,0,0,0.35632718,-24.723853,-20.070446)" />
    <g
       id="Layer1099"
       transform="matrix(0.35632718,0,0,0.35632718,-24.723853,-20.070446)" />
    <g
       id="Layer1100"
       transform="matrix(0.35632718,0,0,0.35632718,-24.723853,-20.070446)" />
    <g
       id="Layer1101"
       transform="matrix(0.35632718,0,0,0.35632718,-24.723853,-20.070446)" />
    <g
       id="Layer1102"
       transform="matrix(0.35632718,0,0,0.35632718,-24.723853,-20.070446)" />
    <g
       id="Layer1103"
       transform="matrix(0.35632718,0,0,0.35632718,-24.723853,-20.070446)" />
    <g
       id="Layer1104"
       transform="matrix(0.35632718,0,0,0.35632718,-24.723853,-20.070446)" />
    <g
       id="Layer1105"
       transform="matrix(0.35632718,0,0,0.35632718,-24.723853,-20.070446)" />
    <g
       id="Layer1106"
       transform="matrix(0.35632718,0,0,0.35632718,-24.723853,-20.070446)" />
    <g
       id="Layer1107"
       transform="matrix(0.35632718,0,0,0.35632718,-24.723853,-20.070446)" />
    <g
       id="Layer1108"
       transform="matrix(0.35632718,0,0,0.35632718,-24.723853,-20.070446)" />
    <g
       id="Layer1109"
       transform="matrix(0.35632718,0,0,0.35632718,-24.723853,-20.070446)" />
    <g
       id="Layer1110"
       transform="matrix(0.35632718,0,0,0.35632718,-24.723853,-20.070446)" />
    <g
       id="Layer1111"
       transform="matrix(0.35632718,0,0,0.35632718,-24.723853,-20.070446)" />
    <g
       id="Layer1112"
       transform="matrix(0.35632718,0,0,0.35632718,-24.723853,-20.070446)" />
    <g
       id="Layer1113"
       transform="matrix(0.35632718,0,0,0.35632718,-24.723853,-20.070446)" />
    <g
       id="Layer1114"
       transform="matrix(0.35632718,0,0,0.35632718,-24.723853,-20.070446)" />
    <g
       id="Layer1115"
       transform="matrix(0.35632718,0,0,0.35632718,-24.723853,-20.070446)" />
    <g
       id="Layer1116"
       transform="matrix(0.35632718,0,0,0.35632718,-24.723853,-20.070446)" />
    <g
       id="Layer1117"
       transform="matrix(0.35632718,0,0,0.35632718,-24.723853,-20.070446)" />
    <g
       id="Layer1118"
       transform="matrix(0.35632718,0,0,0.35632718,-24.723853,-20.070446)" />
    <g
       id="Layer1119"
       transform="matrix(0.35632718,0,0,0.35632718,-24.723853,-20.070446)" />
    <g
       id="Layer1120"
       transform="matrix(0.35632718,0,0,0.35632718,-24.723853,-20.070446)" />
    <g
       id="Layer1121"
       transform="matrix(0.35632718,0,0,0.35632718,-24.723853,-20.070446)" />
    <g
       id="Layer1122"
       transform="matrix(0.35632718,0,0,0.35632718,-24.723853,-20.070446)" />
    <g
       id="Layer1123"
       transform="matrix(0.35632718,0,0,0.35632718,-24.723853,-20.070446)" />
    <g
       id="Layer1124"
       transform="matrix(0.35632718,0,0,0.35632718,-24.723853,-20.070446)" />
    <g
       id="Layer1125"
       transform="matrix(0.35632718,0,0,0.35632718,-24.723853,-20.070446)" />
    <g
       id="Layer1126"
       transform="matrix(0.35632718,0,0,0.35632718,-24.723853,-20.070446)" />
    <g
       id="Layer1127"
       transform="matrix(0.35632718,0,0,0.35632718,-24.723853,-20.070446)" />
    <g
       id="Layer1128"
       transform="matrix(0.35632718,0,0,0.35632718,-24.723853,-20.070446)" />
    <g
       id="Layer1129"
       transform="matrix(0.35632718,0,0,0.35632718,-24.723853,-20.070446)" />
    <g
       id="Layer1130"
       transform="matrix(0.35632718,0,0,0.35632718,-24.723853,-20.070446)" />
    <g
       id="Layer1131"
       transform="matrix(0.35632718,0,0,0.35632718,-24.723853,-20.070446)" />
    <g
       id="Layer1132"
       transform="matrix(0.35632718,0,0,0.35632718,-24.723853,-20.070446)" />
    <g
       id="Layer1133"
       transform="matrix(0.35632718,0,0,0.35632718,-24.723853,-20.070446)" />
    <g
       id="Layer1134"
       transform="matrix(0.35632718,0,0,0.35632718,-24.723853,-20.070446)" />
    <g
       id="Layer1135"
       transform="matrix(0.35632718,0,0,0.35632718,-24.723853,-20.070446)" />
    <g
       id="Layer1136"
       transform="matrix(0.35632718,0,0,0.35632718,-24.723853,-20.070446)" />
    <g
       id="Layer1137"
       transform="matrix(0.35632718,0,0,0.35632718,-24.723853,-20.070446)" />
    <g
       id="Layer1138"
       transform="matrix(0.35632718,0,0,0.35632718,-24.723853,-20.070446)" />
    <g
       id="Layer1139"
       transform="matrix(0.35632718,0,0,0.35632718,-24.723853,-20.070446)" />
    <g
       id="Layer1140"
       transform="matrix(0.35632718,0,0,0.35632718,-24.723853,-20.070446)" />
    <g
       id="Layer1141"
       transform="matrix(0.35632718,0,0,0.35632718,-24.723853,-20.070446)" />
    <g
       id="Layer1142"
       transform="matrix(0.35632718,0,0,0.35632718,-24.723853,-20.070446)" />
    <g
       id="Layer1143"
       transform="matrix(0.35632718,0,0,0.35632718,-24.723853,-20.070446)" />
    <g
       id="Layer1144"
       transform="matrix(0.35632718,0,0,0.35632718,-24.723853,-20.070446)" />
    <g
       id="Layer1145"
       transform="matrix(0.35632718,0,0,0.35632718,-24.723853,-20.070446)" />
    <g
       id="Layer1146"
       transform="matrix(0.35632718,0,0,0.35632718,-24.723853,-20.070446)" />
    <g
       id="Layer1147"
       transform="matrix(0.35632718,0,0,0.35632718,-24.723853,-20.070446)" />
    <g
       id="Layer1148"
       transform="matrix(0.35632718,0,0,0.35632718,-24.723853,-20.070446)" />
    <g
       id="Layer1149"
       transform="matrix(0.35632718,0,0,0.35632718,-24.723853,-20.070446)" />
    <g
       id="Layer1150"
       transform="matrix(0.35632718,0,0,0.35632718,-24.723853,-20.070446)" />
    <g
       id="Layer1151"
       transform="matrix(0.35632718,0,0,0.35632718,-24.723853,-20.070446)" />
    <g
       id="Layer1152"
       transform="matrix(0.35632718,0,0,0.35632718,-24.723853,-20.070446)" />
    <g
       id="Layer1153"
       transform="matrix(0.35632718,0,0,0.35632718,-24.723853,-20.070446)" />
    <g
       id="Layer1154"
       transform="matrix(0.35632718,0,0,0.35632718,-24.723853,-20.070446)" />
    <g
       id="Layer1155"
       transform="matrix(0.35632718,0,0,0.35632718,-24.723853,-20.070446)" />
    <g
       id="Layer1156"
       transform="matrix(0.35632718,0,0,0.35632718,-24.723853,-20.070446)" />
    <g
       id="Layer1157"
       transform="matrix(0.35632718,0,0,0.35632718,-24.723853,-20.070446)" />
    <g
       id="Layer1158"
       transform="matrix(0.35632718,0,0,0.35632718,-24.723853,-20.070446)" />
    <g
       id="Layer1159"
       transform="matrix(0.35632718,0,0,0.35632718,-24.723853,-20.070446)" />
    <g
       id="Layer1160"
       transform="matrix(0.35632718,0,0,0.35632718,-24.723853,-20.070446)" />
    <g
       id="Layer1161"
       transform="matrix(0.35632718,0,0,0.35632718,-24.723853,-20.070446)" />
    <g
       id="Layer1162"
       transform="matrix(0.35632718,0,0,0.35632718,-24.723853,-20.070446)" />
    <g
       id="Layer1163"
       transform="matrix(0.35632718,0,0,0.35632718,-24.723853,-20.070446)" />
    <g
       id="Layer1164"
       transform="matrix(0.35632718,0,0,0.35632718,-24.723853,-20.070446)" />
    <g
       id="Layer1165"
       transform="matrix(0.35632718,0,0,0.35632718,-24.723853,-20.070446)" />
    <g
       id="Layer1166"
       transform="matrix(0.35632718,0,0,0.35632718,-24.723853,-20.070446)" />
    <g
       id="Layer1167"
       transform="matrix(0.35632718,0,0,0.35632718,-24.723853,-20.070446)" />
    <g
       id="Layer1168"
       transform="matrix(0.35632718,0,0,0.35632718,-24.723853,-20.070446)" />
    <g
       id="Layer1169"
       transform="matrix(0.35632718,0,0,0.35632718,-24.723853,-20.070446)" />
    <g
       id="Layer1170"
       transform="matrix(0.35632718,0,0,0.35632718,-24.723853,-20.070446)" />
    <g
       id="Layer1171"
       transform="matrix(0.35632718,0,0,0.35632718,-24.723853,-20.070446)" />
    <g
       id="Layer1172"
       transform="matrix(0.35632718,0,0,0.35632718,-24.723853,-20.070446)" />
    <g
       id="Layer1173"
       transform="matrix(0.35632718,0,0,0.35632718,-24.723853,-20.070446)" />
    <g
       id="Layer1174"
       transform="matrix(0.35632718,0,0,0.35632718,-24.723853,-20.070446)" />
    <g
       id="Layer1175"
       transform="matrix(0.35632718,0,0,0.35632718,-24.723853,-20.070446)" />
    <g
       id="Layer1176"
       transform="matrix(0.35632718,0,0,0.35632718,-24.723853,-20.070446)" />
    <g
       id="Layer1177"
       transform="matrix(0.35632718,0,0,0.35632718,-24.723853,-20.070446)" />
    <g
       id="Layer1178"
       transform="matrix(0.35632718,0,0,0.35632718,-24.723853,-20.070446)" />
    <g
       id="Layer1179"
       transform="matrix(0.35632718,0,0,0.35632718,-24.723853,-20.070446)" />
    <g
       id="Layer1180"
       transform="matrix(0.35632718,0,0,0.35632718,-24.723853,-20.070446)" />
    <g
       id="Layer1181"
       transform="matrix(0.35632718,0,0,0.35632718,-24.723853,-20.070446)" />
    <g
       id="Layer1182"
       transform="matrix(0.35632718,0,0,0.35632718,-24.723853,-20.070446)" />
    <g
       id="Layer1183"
       transform="matrix(0.35632718,0,0,0.35632718,-24.723853,-20.070446)" />
    <g
       id="Layer1184"
       transform="matrix(0.35632718,0,0,0.35632718,-24.723853,-20.070446)" />
    <g
       id="Layer1185"
       transform="matrix(0.35632718,0,0,0.35632718,-24.723853,-20.070446)" />
    <g
       id="Layer1186"
       transform="matrix(0.35632718,0,0,0.35632718,-24.723853,-20.070446)" />
    <g
       id="Layer1187"
       transform="matrix(0.35632718,0,0,0.35632718,-24.723853,-20.070446)" />
    <g
       id="Layer1188"
       transform="matrix(0.35632718,0,0,0.35632718,-24.723853,-20.070446)" />
    <g
       id="Layer1189"
       transform="matrix(0.35632718,0,0,0.35632718,-24.723853,-20.070446)" />
    <g
       id="Layer1190"
       transform="matrix(0.35632718,0,0,0.35632718,-24.723853,-20.070446)" />
    <g
       id="Layer1191"
       transform="matrix(0.35632718,0,0,0.35632718,-24.723853,-20.070446)" />
    <g
       id="Layer1192"
       transform="matrix(0.35632718,0,0,0.35632718,-24.723853,-20.070446)" />
    <g
       id="Layer1193"
       transform="matrix(0.35632718,0,0,0.35632718,-24.723853,-20.070446)" />
    <g
       id="Layer1194"
       transform="matrix(0.35632718,0,0,0.35632718,-24.723853,-20.070446)" />
    <g
       id="Layer1195"
       transform="matrix(0.35632718,0,0,0.35632718,-24.723853,-20.070446)" />
    <g
       id="Layer1196"
       transform="matrix(0.35632718,0,0,0.35632718,-24.723853,-20.070446)" />
    <g
       id="Layer1197"
       transform="matrix(0.35632718,0,0,0.35632718,-24.723853,-20.070446)" />
    <g
       id="Layer1198"
       transform="matrix(0.35632718,0,0,0.35632718,-24.723853,-20.070446)" />
    <g
       id="Layer1199"
       transform="matrix(0.35632718,0,0,0.35632718,-24.723853,-20.070446)" />
    <g
       id="Layer1200"
       transform="matrix(0.35632718,0,0,0.35632718,-24.723853,-20.070446)" />
    <g
       id="Layer1201"
       transform="matrix(0.35632718,0,0,0.35632718,-24.723853,-20.070446)" />
    <g
       id="Layer1202"
       transform="matrix(0.35632718,0,0,0.35632718,-24.723853,-20.070446)" />
    <g
       id="Layer1203"
       transform="matrix(0.35632718,0,0,0.35632718,-24.723853,-20.070446)" />
    <g
       id="Layer1204"
       transform="matrix(0.35632718,0,0,0.35632718,-24.723853,-20.070446)" />
    <g
       id="Layer1205"
       transform="matrix(0.35632718,0,0,0.35632718,-24.723853,-20.070446)" />
    <g
       id="Layer1206"
       transform="matrix(0.35632718,0,0,0.35632718,-24.723853,-20.070446)" />
    <g
       id="Layer1207"
       transform="matrix(0.35632718,0,0,0.35632718,-24.723853,-20.070446)" />
    <g
       id="Layer1208"
       transform="matrix(0.35632718,0,0,0.35632718,-24.723853,-20.070446)" />
    <g
       id="Layer1209"
       transform="matrix(0.35632718,0,0,0.35632718,-24.723853,-20.070446)" />
    <g
       id="Layer1210"
       transform="matrix(0.35632718,0,0,0.35632718,-24.723853,-20.070446)" />
    <g
       id="Layer1211"
       transform="matrix(0.35632718,0,0,0.35632718,-24.723853,-20.070446)" />
    <g
       id="Layer1212"
       transform="matrix(0.35632718,0,0,0.35632718,-24.723853,-20.070446)" />
    <g
       id="Layer1213"
       transform="matrix(0.35632718,0,0,0.35632718,-24.723853,-20.070446)" />
    <g
       id="Layer1214"
       transform="matrix(0.35632718,0,0,0.35632718,-24.723853,-20.070446)" />
    <g
       id="Layer1215"
       transform="matrix(0.35632718,0,0,0.35632718,-24.723853,-20.070446)" />
    <g
       id="Layer1216"
       transform="matrix(0.35632718,0,0,0.35632718,-24.723853,-20.070446)" />
    <g
       id="Layer1217"
       transform="matrix(0.35632718,0,0,0.35632718,-24.723853,-20.070446)" />
    <g
       id="Layer1218"
       transform="matrix(0.35632718,0,0,0.35632718,-24.723853,-20.070446)" />
    <g
       style="fill:#000000;fill-opacity:1;stroke:#000000;stroke-linecap:round;stroke-linejoin:round;stroke-opacity:1"
       id="g15214"
       transform="matrix(0.00254,0,0,0.00254,15.233705,-61.250921)" />
    <g
       style="fill:#000000;fill-opacity:0;stroke:#000000;stroke-width:-0.0003937;stroke-linecap:round;stroke-linejoin:round;stroke-opacity:1"
       id="g15216"
       transform="matrix(0.00254,0,0,0.00254,15.233705,-61.250921)" />
    <g
       style="fill:#008484;fill-opacity:0;stroke:#008484;stroke-width:-0.0003937;stroke-linecap:round;stroke-linejoin:round;stroke-opacity:1"
       id="g15218"
       transform="matrix(0.00254,0,0,0.00254,15.233705,-61.250921)" />
    <g
       style="fill:#008484;fill-opacity:1;stroke:#008484;stroke-width:78.74019623;stroke-linecap:round;stroke-linejoin:round;stroke-opacity:1"
       id="g20456"
       transform="matrix(0.00254,0,0,0.00254,15.233705,-61.250921)" />
    <g
       style="fill:#000000;fill-opacity:0;stroke:#000000;stroke-width:196.8500061;stroke-linecap:round;stroke-linejoin:round;stroke-opacity:1"
       id="g20932"
       transform="matrix(0.00254,0,0,0.00254,15.233705,-61.250921)" />
    <g
       style="fill:#c2c200;fill-opacity:0;stroke:#c2c200;stroke-width:196.8500061;stroke-linecap:round;stroke-linejoin:round;stroke-opacity:1"
       id="g20934"
       transform="matrix(0.00254,0,0,0.00254,15.233705,-61.250921)" />
    <circle
       style="fill:none;stroke:#000000;stroke-width:0.0999997;stroke-miterlimit:4;stroke-dasharray:none"
       id="path3938"
       cx="64.085678"
       cy="70.690239"
       r="12.45" />
    <circle
       style="fill:none;stroke:#000000;stroke-width:0.1;stroke-miterlimit:4;stroke-dasharray:none"
       id="path3938-2-5"
       cx="72.535675"
       cy="70.690239"
       r="0.75" />
    <path
       id="path3938-2-5-72-0"
       style="fill:none;stroke:#000000;stroke-width:0.377952;stroke-miterlimit:4;stroke-dasharray:none"
       d="M 242.15039 264.3418 A 2.8346459 2.8346459 0 0 0 239.37891 267.17578 A 2.8346459 2.8346459 0 0 0 239.5957 268.26367 L 244.83008 268.26367 A 2.8346459 2.8346459 0 0 0 245.04883 267.17578 A 2.8346459 2.8346459 0 0 0 242.21289 264.3418 A 2.8346459 2.8346459 0 0 0 242.15039 264.3418 z "
       transform="scale(0.26458333)" />
    <circle
       style="fill:none;stroke:#000000;stroke-width:0.1;stroke-miterlimit:4;stroke-dasharray:none"
       id="path3938-2-5-9"
       cx="70.939415"
       cy="75.63279"
       r="0.75" />
    <circle
       style="fill:none;stroke:#000000;stroke-width:0.1;stroke-miterlimit:4;stroke-dasharray:none"
       id="path3938-2-5-0"
       cx="68.009903"
       cy="78.173752"
       r="0.75" />
  </g>
</svg>
