<?xml version="1.0" encoding="UTF-8" standalone="no"?>
<svg
   xmlns:dc="http://purl.org/dc/elements/1.1/"
   xmlns:cc="http://creativecommons.org/ns#"
   xmlns:rdf="http://www.w3.org/1999/02/22-rdf-syntax-ns#"
   xmlns:svg="http://www.w3.org/2000/svg"
   xmlns="http://www.w3.org/2000/svg"
   xmlns:sodipodi="http://sodipodi.sourceforge.net/DTD/sodipodi-0.dtd"
   xmlns:inkscape="http://www.inkscape.org/namespaces/inkscape"
   width="210mm"
   height="297mm"
   viewBox="0 0 210 297"
   version="1.1"
   id="svg8"
   inkscape:version="1.0.1 (3bc2e813f5, 2020-09-07)"
   sodipodi:docname="SolarSpinner_Holder_InkScape_OpArt1.svg">
  <defs
     id="defs2" />
  <sodipodi:namedview
     id="base"
     pagecolor="#ffffff"
     bordercolor="#666666"
     borderopacity="1.0"
     inkscape:pageopacity="0.0"
     inkscape:pageshadow="2"
     inkscape:zoom="0.32504294"
     inkscape:cx="-165.34133"
     inkscape:cy="482.59356"
     inkscape:document-units="mm"
     inkscape:current-layer="layer1"
     showgrid="false"
     inkscape:measure-start="-760,1122.86"
     inkscape:measure-end="0,0"
     inkscape:window-width="1366"
     inkscape:window-height="706"
     inkscape:window-x="1912"
     inkscape:window-y="-8"
     inkscape:window-maximized="1"
     objecttolerance="5"
     guidetolerance="6"
     inkscape:snap-global="true"
     inkscape:snap-nodes="true"
     inkscape:object-nodes="true"
     inkscape:snap-intersection-paths="true"
     inkscape:snap-smooth-nodes="true"
     inkscape:snap-midpoints="true"
     inkscape:object-paths="true"
     inkscape:snap-object-midpoints="true"
     inkscape:snap-center="true"
     inkscape:snap-bbox="false"
     inkscape:document-rotation="0" />
  <metadata
     id="metadata5">
    <rdf:RDF>
      <cc:Work
         rdf:about="">
        <dc:format>image/svg+xml</dc:format>
        <dc:type
           rdf:resource="http://purl.org/dc/dcmitype/StillImage" />
        <dc:title />
      </cc:Work>
    </rdf:RDF>
  </metadata>
  <g
     inkscape:label="Layer 1"
     inkscape:groupmode="layer"
     id="layer1">
    <g
       id="Layer1001"
       transform="matrix(0.35632718,0,0,0.35632718,-24.723853,-20.070446)" />
    <g
       id="Layer1002"
       transform="matrix(0.35632718,0,0,0.35632718,-24.723853,-20.070446)" />
    <g
       id="Layer1003"
       transform="matrix(0.35632718,0,0,0.35632718,-24.723853,-20.070446)" />
    <g
       id="Layer1004"
       transform="matrix(0.35632718,0,0,0.35632718,-24.723853,-20.070446)" />
    <g
       id="Layer1005"
       transform="matrix(0.35632718,0,0,0.35632718,-24.723853,-20.070446)" />
    <g
       id="Layer1006"
       transform="matrix(0.35632718,0,0,0.35632718,-24.723853,-20.070446)" />
    <g
       id="Layer1007"
       transform="matrix(0.35632718,0,0,0.35632718,-24.723853,-20.070446)" />
    <g
       id="Layer1008"
       transform="matrix(0.35632718,0,0,0.35632718,-24.723853,-20.070446)" />
    <g
       id="Layer1009"
       transform="matrix(0.35632718,0,0,0.35632718,-24.723853,-20.070446)" />
    <g
       id="Layer1010"
       transform="matrix(0.35632718,0,0,0.35632718,-24.723853,-20.070446)" />
    <g
       id="Layer1011"
       transform="matrix(0.35632718,0,0,0.35632718,-24.723853,-20.070446)" />
    <g
       id="Layer1012"
       transform="matrix(0.35632718,0,0,0.35632718,-24.723853,-20.070446)" />
    <g
       id="Layer1013"
       transform="matrix(0.35632718,0,0,0.35632718,-24.723853,-20.070446)" />
    <g
       id="Layer1014"
       transform="matrix(0.35632718,0,0,0.35632718,-24.723853,-20.070446)" />
    <g
       id="Layer1015"
       transform="matrix(0.35632718,0,0,0.35632718,-24.723853,-20.070446)" />
    <g
       id="Layer1016"
       transform="matrix(0.35632718,0,0,0.35632718,-24.723853,-20.070446)" />
    <g
       id="Layer1017"
       transform="matrix(0.35632718,0,0,0.35632718,-24.723853,-20.070446)" />
    <g
       id="Layer1018"
       transform="matrix(0.35632718,0,0,0.35632718,-24.723853,-20.070446)" />
    <g
       id="Layer1019"
       transform="matrix(0.35632718,0,0,0.35632718,-24.723853,-20.070446)" />
    <g
       id="Layer1020"
       transform="matrix(0.35632718,0,0,0.35632718,-24.723853,-20.070446)" />
    <g
       id="Layer1021"
       transform="matrix(0.35632718,0,0,0.35632718,-24.723853,-20.070446)" />
    <g
       id="Layer1022"
       transform="matrix(0.35632718,0,0,0.35632718,-24.723853,-20.070446)" />
    <g
       id="Layer1023"
       transform="matrix(0.35632718,0,0,0.35632718,-24.723853,-20.070446)" />
    <g
       id="Layer1024"
       transform="matrix(0.35632718,0,0,0.35632718,-24.723853,-20.070446)" />
    <g
       id="Layer1025"
       transform="matrix(0.35632718,0,0,0.35632718,-24.723853,-20.070446)" />
    <g
       id="Layer1026"
       transform="matrix(0.35632718,0,0,0.35632718,-24.723853,-20.070446)" />
    <g
       id="Layer1027"
       transform="matrix(0.35632718,0,0,0.35632718,-24.723853,-20.070446)" />
    <g
       id="Layer1028"
       transform="matrix(0.35632718,0,0,0.35632718,-24.723853,-20.070446)" />
    <g
       id="Layer1029"
       transform="matrix(0.35632718,0,0,0.35632718,-24.723853,-20.070446)" />
    <g
       id="Layer1030"
       transform="matrix(0.35632718,0,0,0.35632718,-24.723853,-20.070446)" />
    <g
       id="Layer1031"
       transform="matrix(0.35632718,0,0,0.35632718,-24.723853,-20.070446)" />
    <g
       id="Layer1032"
       transform="matrix(0.35632718,0,0,0.35632718,-24.723853,-20.070446)" />
    <g
       id="Layer1033"
       transform="matrix(0.35632718,0,0,0.35632718,-24.723853,-20.070446)" />
    <g
       id="Layer1034"
       transform="matrix(0.35632718,0,0,0.35632718,-24.723853,-20.070446)" />
    <g
       id="Layer1035"
       transform="matrix(0.35632718,0,0,0.35632718,-24.723853,-20.070446)" />
    <g
       id="Layer1036"
       transform="matrix(0.35632718,0,0,0.35632718,-24.723853,-20.070446)" />
    <g
       id="Layer1037"
       transform="matrix(0.35632718,0,0,0.35632718,-24.723853,-20.070446)" />
    <g
       id="Layer1038"
       transform="matrix(0.35632718,0,0,0.35632718,-24.723853,-20.070446)" />
    <g
       id="Layer1039"
       transform="matrix(0.35632718,0,0,0.35632718,-24.723853,-20.070446)" />
    <g
       id="Layer1040"
       transform="matrix(0.35632718,0,0,0.35632718,-24.723853,-20.070446)" />
    <g
       id="Layer1041"
       transform="matrix(0.35632718,0,0,0.35632718,-24.723853,-20.070446)" />
    <g
       id="Layer1042"
       transform="matrix(0.35632718,0,0,0.35632718,-24.723853,-20.070446)" />
    <g
       id="Layer1043"
       transform="matrix(0.35632718,0,0,0.35632718,-24.723853,-20.070446)" />
    <g
       id="Layer1044"
       transform="matrix(0.35632718,0,0,0.35632718,-24.723853,-20.070446)" />
    <g
       id="Layer1045"
       transform="matrix(0.35632718,0,0,0.35632718,-24.723853,-20.070446)" />
    <g
       id="Layer1046"
       transform="matrix(0.35632718,0,0,0.35632718,-24.723853,-20.070446)" />
    <g
       id="Layer1047"
       transform="matrix(0.35632718,0,0,0.35632718,-24.723853,-20.070446)" />
    <g
       id="Layer1048"
       transform="matrix(0.35632718,0,0,0.35632718,-24.723853,-20.070446)" />
    <g
       id="Layer1049"
       transform="matrix(0.35632718,0,0,0.35632718,-24.723853,-20.070446)" />
    <g
       id="Layer1050"
       transform="matrix(0.35632718,0,0,0.35632718,-24.723853,-20.070446)" />
    <g
       id="Layer1051"
       transform="matrix(0.35632718,0,0,0.35632718,-24.723853,-20.070446)" />
    <g
       id="Layer1052"
       transform="matrix(0.35632718,0,0,0.35632718,-24.723853,-20.070446)" />
    <g
       id="Layer1053"
       transform="matrix(0.35632718,0,0,0.35632718,-24.723853,-20.070446)" />
    <g
       id="Layer1054"
       transform="matrix(0.35632718,0,0,0.35632718,-24.723853,-20.070446)" />
    <g
       id="Layer1055"
       transform="matrix(0.35632718,0,0,0.35632718,-24.723853,-20.070446)" />
    <g
       id="Layer1056"
       transform="matrix(0.35632718,0,0,0.35632718,-24.723853,-20.070446)" />
    <g
       id="Layer1057"
       transform="matrix(0.35632718,0,0,0.35632718,-24.723853,-20.070446)" />
    <g
       id="Layer1058"
       transform="matrix(0.35632718,0,0,0.35632718,-24.723853,-20.070446)" />
    <g
       id="Layer1059"
       transform="matrix(0.35632718,0,0,0.35632718,-24.723853,-20.070446)" />
    <g
       id="Layer1060"
       transform="matrix(0.35632718,0,0,0.35632718,-24.723853,-20.070446)" />
    <g
       id="Layer1061"
       transform="matrix(0.35632718,0,0,0.35632718,-24.723853,-20.070446)" />
    <g
       id="Layer1062"
       transform="matrix(0.35632718,0,0,0.35632718,-24.723853,-20.070446)" />
    <g
       id="Layer1063"
       transform="matrix(0.35632718,0,0,0.35632718,-24.723853,-20.070446)" />
    <g
       id="Layer1064"
       transform="matrix(0.35632718,0,0,0.35632718,-24.723853,-20.070446)" />
    <g
       id="Layer1065"
       transform="matrix(0.35632718,0,0,0.35632718,-24.723853,-20.070446)" />
    <g
       id="Layer1066"
       transform="matrix(0.35632718,0,0,0.35632718,-24.723853,-20.070446)" />
    <g
       id="Layer1067"
       transform="matrix(0.35632718,0,0,0.35632718,-24.723853,-20.070446)" />
    <g
       id="Layer1068"
       transform="matrix(0.35632718,0,0,0.35632718,-24.723853,-20.070446)" />
    <g
       id="Layer1069"
       transform="matrix(0.35632718,0,0,0.35632718,-24.723853,-20.070446)" />
    <g
       id="Layer1070"
       transform="matrix(0.35632718,0,0,0.35632718,-24.723853,-20.070446)" />
    <g
       id="Layer1071"
       transform="matrix(0.35632718,0,0,0.35632718,-24.723853,-20.070446)" />
    <g
       id="Layer1072"
       transform="matrix(0.35632718,0,0,0.35632718,-24.723853,-20.070446)" />
    <g
       id="Layer1073"
       transform="matrix(0.35632718,0,0,0.35632718,-24.723853,-20.070446)" />
    <g
       id="Layer1074"
       transform="matrix(0.35632718,0,0,0.35632718,-24.723853,-20.070446)" />
    <g
       id="Layer1075"
       transform="matrix(0.35632718,0,0,0.35632718,-24.723853,-20.070446)" />
    <g
       id="Layer1076"
       transform="matrix(0.35632718,0,0,0.35632718,-24.723853,-20.070446)" />
    <g
       id="Layer1077"
       transform="matrix(0.35632718,0,0,0.35632718,-24.723853,-20.070446)" />
    <g
       id="Layer1078"
       transform="matrix(0.35632718,0,0,0.35632718,-24.723853,-20.070446)" />
    <g
       id="Layer1079"
       transform="matrix(0.35632718,0,0,0.35632718,-24.723853,-20.070446)" />
    <g
       id="Layer1080"
       transform="matrix(0.35632718,0,0,0.35632718,-24.723853,-20.070446)" />
    <g
       id="Layer1081"
       transform="matrix(0.35632718,0,0,0.35632718,-24.723853,-20.070446)" />
    <g
       id="Layer1082"
       transform="matrix(0.35632718,0,0,0.35632718,-24.723853,-20.070446)" />
    <g
       id="Layer1083"
       transform="matrix(0.35632718,0,0,0.35632718,-24.723853,-20.070446)" />
    <g
       id="Layer1084"
       transform="matrix(0.35632718,0,0,0.35632718,-24.723853,-20.070446)" />
    <g
       id="Layer1085"
       transform="matrix(0.35632718,0,0,0.35632718,-24.723853,-20.070446)" />
    <g
       id="Layer1086"
       transform="matrix(0.35632718,0,0,0.35632718,-24.723853,-20.070446)" />
    <g
       id="Layer1087"
       transform="matrix(0.35632718,0,0,0.35632718,-24.723853,-20.070446)" />
    <g
       id="Layer1088"
       transform="matrix(0.35632718,0,0,0.35632718,-24.723853,-20.070446)" />
    <g
       id="Layer1089"
       transform="matrix(0.35632718,0,0,0.35632718,-24.723853,-20.070446)" />
    <g
       id="Layer1090"
       transform="matrix(0.35632718,0,0,0.35632718,-24.723853,-20.070446)" />
    <g
       id="Layer1091"
       transform="matrix(0.35632718,0,0,0.35632718,-24.723853,-20.070446)" />
    <g
       id="Layer1092"
       transform="matrix(0.35632718,0,0,0.35632718,-24.723853,-20.070446)" />
    <g
       id="Layer1093"
       transform="matrix(0.35632718,0,0,0.35632718,-24.723853,-20.070446)" />
    <g
       id="Layer1094"
       transform="matrix(0.35632718,0,0,0.35632718,-24.723853,-20.070446)" />
    <g
       id="Layer1095"
       transform="matrix(0.35632718,0,0,0.35632718,-24.723853,-20.070446)" />
    <g
       id="Layer1096"
       transform="matrix(0.35632718,0,0,0.35632718,-24.723853,-20.070446)" />
    <g
       id="Layer1097"
       transform="matrix(0.35632718,0,0,0.35632718,-24.723853,-20.070446)" />
    <g
       id="Layer1098"
       transform="matrix(0.35632718,0,0,0.35632718,-24.723853,-20.070446)" />
    <g
       id="Layer1099"
       transform="matrix(0.35632718,0,0,0.35632718,-24.723853,-20.070446)" />
    <g
       id="Layer1100"
       transform="matrix(0.35632718,0,0,0.35632718,-24.723853,-20.070446)" />
    <g
       id="Layer1101"
       transform="matrix(0.35632718,0,0,0.35632718,-24.723853,-20.070446)" />
    <g
       id="Layer1102"
       transform="matrix(0.35632718,0,0,0.35632718,-24.723853,-20.070446)" />
    <g
       id="Layer1103"
       transform="matrix(0.35632718,0,0,0.35632718,-24.723853,-20.070446)" />
    <g
       id="Layer1104"
       transform="matrix(0.35632718,0,0,0.35632718,-24.723853,-20.070446)" />
    <g
       id="Layer1105"
       transform="matrix(0.35632718,0,0,0.35632718,-24.723853,-20.070446)" />
    <g
       id="Layer1106"
       transform="matrix(0.35632718,0,0,0.35632718,-24.723853,-20.070446)" />
    <g
       id="Layer1107"
       transform="matrix(0.35632718,0,0,0.35632718,-24.723853,-20.070446)" />
    <g
       id="Layer1108"
       transform="matrix(0.35632718,0,0,0.35632718,-24.723853,-20.070446)" />
    <g
       id="Layer1109"
       transform="matrix(0.35632718,0,0,0.35632718,-24.723853,-20.070446)" />
    <g
       id="Layer1110"
       transform="matrix(0.35632718,0,0,0.35632718,-24.723853,-20.070446)" />
    <g
       id="Layer1111"
       transform="matrix(0.35632718,0,0,0.35632718,-24.723853,-20.070446)" />
    <g
       id="Layer1112"
       transform="matrix(0.35632718,0,0,0.35632718,-24.723853,-20.070446)" />
    <g
       id="Layer1113"
       transform="matrix(0.35632718,0,0,0.35632718,-24.723853,-20.070446)" />
    <g
       id="Layer1114"
       transform="matrix(0.35632718,0,0,0.35632718,-24.723853,-20.070446)" />
    <g
       id="Layer1115"
       transform="matrix(0.35632718,0,0,0.35632718,-24.723853,-20.070446)" />
    <g
       id="Layer1116"
       transform="matrix(0.35632718,0,0,0.35632718,-24.723853,-20.070446)" />
    <g
       id="Layer1117"
       transform="matrix(0.35632718,0,0,0.35632718,-24.723853,-20.070446)" />
    <g
       id="Layer1118"
       transform="matrix(0.35632718,0,0,0.35632718,-24.723853,-20.070446)" />
    <g
       id="Layer1119"
       transform="matrix(0.35632718,0,0,0.35632718,-24.723853,-20.070446)" />
    <g
       id="Layer1120"
       transform="matrix(0.35632718,0,0,0.35632718,-24.723853,-20.070446)" />
    <g
       id="Layer1121"
       transform="matrix(0.35632718,0,0,0.35632718,-24.723853,-20.070446)" />
    <g
       id="Layer1122"
       transform="matrix(0.35632718,0,0,0.35632718,-24.723853,-20.070446)" />
    <g
       id="Layer1123"
       transform="matrix(0.35632718,0,0,0.35632718,-24.723853,-20.070446)" />
    <g
       id="Layer1124"
       transform="matrix(0.35632718,0,0,0.35632718,-24.723853,-20.070446)" />
    <g
       id="Layer1125"
       transform="matrix(0.35632718,0,0,0.35632718,-24.723853,-20.070446)" />
    <g
       id="Layer1126"
       transform="matrix(0.35632718,0,0,0.35632718,-24.723853,-20.070446)" />
    <g
       id="Layer1127"
       transform="matrix(0.35632718,0,0,0.35632718,-24.723853,-20.070446)" />
    <g
       id="Layer1128"
       transform="matrix(0.35632718,0,0,0.35632718,-24.723853,-20.070446)" />
    <g
       id="Layer1129"
       transform="matrix(0.35632718,0,0,0.35632718,-24.723853,-20.070446)" />
    <g
       id="Layer1130"
       transform="matrix(0.35632718,0,0,0.35632718,-24.723853,-20.070446)" />
    <g
       id="Layer1131"
       transform="matrix(0.35632718,0,0,0.35632718,-24.723853,-20.070446)" />
    <g
       id="Layer1132"
       transform="matrix(0.35632718,0,0,0.35632718,-24.723853,-20.070446)" />
    <g
       id="Layer1133"
       transform="matrix(0.35632718,0,0,0.35632718,-24.723853,-20.070446)" />
    <g
       id="Layer1134"
       transform="matrix(0.35632718,0,0,0.35632718,-24.723853,-20.070446)" />
    <g
       id="Layer1135"
       transform="matrix(0.35632718,0,0,0.35632718,-24.723853,-20.070446)" />
    <g
       id="Layer1136"
       transform="matrix(0.35632718,0,0,0.35632718,-24.723853,-20.070446)" />
    <g
       id="Layer1137"
       transform="matrix(0.35632718,0,0,0.35632718,-24.723853,-20.070446)" />
    <g
       id="Layer1138"
       transform="matrix(0.35632718,0,0,0.35632718,-24.723853,-20.070446)" />
    <g
       id="Layer1139"
       transform="matrix(0.35632718,0,0,0.35632718,-24.723853,-20.070446)" />
    <g
       id="Layer1140"
       transform="matrix(0.35632718,0,0,0.35632718,-24.723853,-20.070446)" />
    <g
       id="Layer1141"
       transform="matrix(0.35632718,0,0,0.35632718,-24.723853,-20.070446)" />
    <g
       id="Layer1142"
       transform="matrix(0.35632718,0,0,0.35632718,-24.723853,-20.070446)" />
    <g
       id="Layer1143"
       transform="matrix(0.35632718,0,0,0.35632718,-24.723853,-20.070446)" />
    <g
       id="Layer1144"
       transform="matrix(0.35632718,0,0,0.35632718,-24.723853,-20.070446)" />
    <g
       id="Layer1145"
       transform="matrix(0.35632718,0,0,0.35632718,-24.723853,-20.070446)" />
    <g
       id="Layer1146"
       transform="matrix(0.35632718,0,0,0.35632718,-24.723853,-20.070446)" />
    <g
       id="Layer1147"
       transform="matrix(0.35632718,0,0,0.35632718,-24.723853,-20.070446)" />
    <g
       id="Layer1148"
       transform="matrix(0.35632718,0,0,0.35632718,-24.723853,-20.070446)" />
    <g
       id="Layer1149"
       transform="matrix(0.35632718,0,0,0.35632718,-24.723853,-20.070446)" />
    <g
       id="Layer1150"
       transform="matrix(0.35632718,0,0,0.35632718,-24.723853,-20.070446)" />
    <g
       id="Layer1151"
       transform="matrix(0.35632718,0,0,0.35632718,-24.723853,-20.070446)" />
    <g
       id="Layer1152"
       transform="matrix(0.35632718,0,0,0.35632718,-24.723853,-20.070446)" />
    <g
       id="Layer1153"
       transform="matrix(0.35632718,0,0,0.35632718,-24.723853,-20.070446)" />
    <g
       id="Layer1154"
       transform="matrix(0.35632718,0,0,0.35632718,-24.723853,-20.070446)" />
    <g
       id="Layer1155"
       transform="matrix(0.35632718,0,0,0.35632718,-24.723853,-20.070446)" />
    <g
       id="Layer1156"
       transform="matrix(0.35632718,0,0,0.35632718,-24.723853,-20.070446)" />
    <g
       id="Layer1157"
       transform="matrix(0.35632718,0,0,0.35632718,-24.723853,-20.070446)" />
    <g
       id="Layer1158"
       transform="matrix(0.35632718,0,0,0.35632718,-24.723853,-20.070446)" />
    <g
       id="Layer1159"
       transform="matrix(0.35632718,0,0,0.35632718,-24.723853,-20.070446)" />
    <g
       id="Layer1160"
       transform="matrix(0.35632718,0,0,0.35632718,-24.723853,-20.070446)" />
    <g
       id="Layer1161"
       transform="matrix(0.35632718,0,0,0.35632718,-24.723853,-20.070446)" />
    <g
       id="Layer1162"
       transform="matrix(0.35632718,0,0,0.35632718,-24.723853,-20.070446)" />
    <g
       id="Layer1163"
       transform="matrix(0.35632718,0,0,0.35632718,-24.723853,-20.070446)" />
    <g
       id="Layer1164"
       transform="matrix(0.35632718,0,0,0.35632718,-24.723853,-20.070446)" />
    <g
       id="Layer1165"
       transform="matrix(0.35632718,0,0,0.35632718,-24.723853,-20.070446)" />
    <g
       id="Layer1166"
       transform="matrix(0.35632718,0,0,0.35632718,-24.723853,-20.070446)" />
    <g
       id="Layer1167"
       transform="matrix(0.35632718,0,0,0.35632718,-24.723853,-20.070446)" />
    <g
       id="Layer1168"
       transform="matrix(0.35632718,0,0,0.35632718,-24.723853,-20.070446)" />
    <g
       id="Layer1169"
       transform="matrix(0.35632718,0,0,0.35632718,-24.723853,-20.070446)" />
    <g
       id="Layer1170"
       transform="matrix(0.35632718,0,0,0.35632718,-24.723853,-20.070446)" />
    <g
       id="Layer1171"
       transform="matrix(0.35632718,0,0,0.35632718,-24.723853,-20.070446)" />
    <g
       id="Layer1172"
       transform="matrix(0.35632718,0,0,0.35632718,-24.723853,-20.070446)" />
    <g
       id="Layer1173"
       transform="matrix(0.35632718,0,0,0.35632718,-24.723853,-20.070446)" />
    <g
       id="Layer1174"
       transform="matrix(0.35632718,0,0,0.35632718,-24.723853,-20.070446)" />
    <g
       id="Layer1175"
       transform="matrix(0.35632718,0,0,0.35632718,-24.723853,-20.070446)" />
    <g
       id="Layer1176"
       transform="matrix(0.35632718,0,0,0.35632718,-24.723853,-20.070446)" />
    <g
       id="Layer1177"
       transform="matrix(0.35632718,0,0,0.35632718,-24.723853,-20.070446)" />
    <g
       id="Layer1178"
       transform="matrix(0.35632718,0,0,0.35632718,-24.723853,-20.070446)" />
    <g
       id="Layer1179"
       transform="matrix(0.35632718,0,0,0.35632718,-24.723853,-20.070446)" />
    <g
       id="Layer1180"
       transform="matrix(0.35632718,0,0,0.35632718,-24.723853,-20.070446)" />
    <g
       id="Layer1181"
       transform="matrix(0.35632718,0,0,0.35632718,-24.723853,-20.070446)" />
    <g
       id="Layer1182"
       transform="matrix(0.35632718,0,0,0.35632718,-24.723853,-20.070446)" />
    <g
       id="Layer1183"
       transform="matrix(0.35632718,0,0,0.35632718,-24.723853,-20.070446)" />
    <g
       id="Layer1184"
       transform="matrix(0.35632718,0,0,0.35632718,-24.723853,-20.070446)" />
    <g
       id="Layer1185"
       transform="matrix(0.35632718,0,0,0.35632718,-24.723853,-20.070446)" />
    <g
       id="Layer1186"
       transform="matrix(0.35632718,0,0,0.35632718,-24.723853,-20.070446)" />
    <g
       id="Layer1187"
       transform="matrix(0.35632718,0,0,0.35632718,-24.723853,-20.070446)" />
    <g
       id="Layer1188"
       transform="matrix(0.35632718,0,0,0.35632718,-24.723853,-20.070446)" />
    <g
       id="Layer1189"
       transform="matrix(0.35632718,0,0,0.35632718,-24.723853,-20.070446)" />
    <g
       id="Layer1190"
       transform="matrix(0.35632718,0,0,0.35632718,-24.723853,-20.070446)" />
    <g
       id="Layer1191"
       transform="matrix(0.35632718,0,0,0.35632718,-24.723853,-20.070446)" />
    <g
       id="Layer1192"
       transform="matrix(0.35632718,0,0,0.35632718,-24.723853,-20.070446)" />
    <g
       id="Layer1193"
       transform="matrix(0.35632718,0,0,0.35632718,-24.723853,-20.070446)" />
    <g
       id="Layer1194"
       transform="matrix(0.35632718,0,0,0.35632718,-24.723853,-20.070446)" />
    <g
       id="Layer1195"
       transform="matrix(0.35632718,0,0,0.35632718,-24.723853,-20.070446)" />
    <g
       id="Layer1196"
       transform="matrix(0.35632718,0,0,0.35632718,-24.723853,-20.070446)" />
    <g
       id="Layer1197"
       transform="matrix(0.35632718,0,0,0.35632718,-24.723853,-20.070446)" />
    <g
       id="Layer1198"
       transform="matrix(0.35632718,0,0,0.35632718,-24.723853,-20.070446)" />
    <g
       id="Layer1199"
       transform="matrix(0.35632718,0,0,0.35632718,-24.723853,-20.070446)" />
    <g
       id="Layer1200"
       transform="matrix(0.35632718,0,0,0.35632718,-24.723853,-20.070446)" />
    <g
       id="Layer1201"
       transform="matrix(0.35632718,0,0,0.35632718,-24.723853,-20.070446)" />
    <g
       id="Layer1202"
       transform="matrix(0.35632718,0,0,0.35632718,-24.723853,-20.070446)" />
    <g
       id="Layer1203"
       transform="matrix(0.35632718,0,0,0.35632718,-24.723853,-20.070446)" />
    <g
       id="Layer1204"
       transform="matrix(0.35632718,0,0,0.35632718,-24.723853,-20.070446)" />
    <g
       id="Layer1205"
       transform="matrix(0.35632718,0,0,0.35632718,-24.723853,-20.070446)" />
    <g
       id="Layer1206"
       transform="matrix(0.35632718,0,0,0.35632718,-24.723853,-20.070446)" />
    <g
       id="Layer1207"
       transform="matrix(0.35632718,0,0,0.35632718,-24.723853,-20.070446)" />
    <g
       id="Layer1208"
       transform="matrix(0.35632718,0,0,0.35632718,-24.723853,-20.070446)" />
    <g
       id="Layer1209"
       transform="matrix(0.35632718,0,0,0.35632718,-24.723853,-20.070446)" />
    <g
       id="Layer1210"
       transform="matrix(0.35632718,0,0,0.35632718,-24.723853,-20.070446)" />
    <g
       id="Layer1211"
       transform="matrix(0.35632718,0,0,0.35632718,-24.723853,-20.070446)" />
    <g
       id="Layer1212"
       transform="matrix(0.35632718,0,0,0.35632718,-24.723853,-20.070446)" />
    <g
       id="Layer1213"
       transform="matrix(0.35632718,0,0,0.35632718,-24.723853,-20.070446)" />
    <g
       id="Layer1214"
       transform="matrix(0.35632718,0,0,0.35632718,-24.723853,-20.070446)" />
    <g
       id="Layer1215"
       transform="matrix(0.35632718,0,0,0.35632718,-24.723853,-20.070446)" />
    <g
       id="Layer1216"
       transform="matrix(0.35632718,0,0,0.35632718,-24.723853,-20.070446)" />
    <g
       id="Layer1217"
       transform="matrix(0.35632718,0,0,0.35632718,-24.723853,-20.070446)" />
    <g
       id="Layer1218"
       transform="matrix(0.35632718,0,0,0.35632718,-24.723853,-20.070446)" />
    <g
       style="fill:#000000;fill-opacity:1;stroke:#000000;stroke-linecap:round;stroke-linejoin:round;stroke-opacity:1"
       id="g15214"
       transform="matrix(0.00254,0,0,0.00254,15.233705,-61.250921)" />
    <g
       style="fill:#000000;fill-opacity:0;stroke:#000000;stroke-width:-0.0003937;stroke-linecap:round;stroke-linejoin:round;stroke-opacity:1"
       id="g15216"
       transform="matrix(0.00254,0,0,0.00254,15.233705,-61.250921)" />
    <g
       style="fill:#008484;fill-opacity:0;stroke:#008484;stroke-width:-0.0003937;stroke-linecap:round;stroke-linejoin:round;stroke-opacity:1"
       id="g15218"
       transform="matrix(0.00254,0,0,0.00254,15.233705,-61.250921)" />
    <g
       style="fill:#008484;fill-opacity:1;stroke:#008484;stroke-width:78.74019623;stroke-linecap:round;stroke-linejoin:round;stroke-opacity:1"
       id="g20456"
       transform="matrix(0.00254,0,0,0.00254,15.233705,-61.250921)" />
    <g
       style="fill:#000000;fill-opacity:0;stroke:#000000;stroke-width:196.8500061;stroke-linecap:round;stroke-linejoin:round;stroke-opacity:1"
       id="g20932"
       transform="matrix(0.00254,0,0,0.00254,15.233705,-61.250921)" />
    <g
       style="fill:#c2c200;fill-opacity:0;stroke:#c2c200;stroke-width:196.8500061;stroke-linecap:round;stroke-linejoin:round;stroke-opacity:1"
       id="g20934"
       transform="matrix(0.00254,0,0,0.00254,15.233705,-61.250921)" />
    <g
       id="g20571"
       transform="translate(-71.655814,-287.95042)">
      <path
         style="color:#000000;font-style:normal;font-variant:normal;font-weight:normal;font-stretch:normal;font-size:medium;line-height:normal;font-family:sans-serif;font-variant-ligatures:normal;font-variant-position:normal;font-variant-caps:normal;font-variant-numeric:normal;font-variant-alternates:normal;font-variant-east-asian:normal;font-feature-settings:normal;font-variation-settings:normal;text-indent:0;text-align:start;text-decoration:none;text-decoration-line:none;text-decoration-style:solid;text-decoration-color:#000000;letter-spacing:normal;word-spacing:normal;text-transform:none;writing-mode:lr-tb;direction:ltr;text-orientation:mixed;dominant-baseline:auto;baseline-shift:baseline;text-anchor:start;white-space:normal;shape-padding:0;shape-margin:0;inline-size:0;clip-rule:nonzero;display:inline;overflow:visible;visibility:visible;opacity:1;isolation:auto;mix-blend-mode:normal;color-interpolation:sRGB;color-interpolation-filters:linearRGB;solid-color:#000000;solid-opacity:1;vector-effect:none;fill:none;fill-opacity:1;fill-rule:nonzero;stroke:#000000;stroke-width:0.1;stroke-linecap:butt;stroke-linejoin:miter;stroke-miterlimit:4;stroke-dasharray:none;stroke-dashoffset:0;stroke-opacity:1;color-rendering:auto;image-rendering:auto;shape-rendering:auto;text-rendering:auto;enable-background:accumulate;stop-color:#000000;stop-opacity:1"
         d="m 134.9707,343.50195 -1,0.0195 0.73633,38.50196 -4.08984,-38.29102 -0.99414,0.10547 4.08984,38.29297 -7.41211,-37.79102 -0.98242,0.19336 7.41406,37.79883 -10.67969,-37.00976 -0.96093,0.27734 10.67773,37.00391 -13.86133,-35.93164 -0.93359,0.35937 13.86914,35.94727 -16.94922,-34.60157 -0.89844,0.43946 16.93555,34.57421 -19.88476,-32.96679 -0.85743,0.51758 19.89453,32.98437 -22.69336,-31.125 -0.80664,0.58984 22.69336,31.12305 -25.32031,-29.02734 -0.75391,0.65625 25.3125,29.02148 -27.746089,-26.70312 -0.693359,0.7207 27.749998,26.70703 -29.972654,-24.1875 -0.626954,0.7793 29.972658,24.1875 -31.966798,-21.48438 -0.558594,0.83008 31.982422,21.49414 -33.732422,-18.625 -0.484375,0.875 33.724607,18.61914 -35.218748,-15.60937 -0.404296,0.91406 35.222654,15.61133 -36.449217,-12.48242 -0.324219,0.94531 36.429686,12.47656 -37.378904,-9.2539 -0.240235,0.9707 37.398439,9.25781 -38.062501,-5.96289 -0.15625,0.98828 38.044921,5.96094 -38.417968,-2.62109 -0.06836,0.99609 38.435548,2.62305 -38.517579,0.73632 0.01953,1 38.499999,-0.73632 -38.289061,4.08984 0.105469,0.99414 38.292972,-4.08984 -37.791019,7.41211 0.193359,0.98242 37.79492,-7.41211 -37.005857,10.67773 0.277344,0.96094 37.007813,-10.67773 -35.935548,13.86328 0.359375,0.93164 35.933593,-13.86133 -34.58789,16.94141 0.439453,0.89843 34.574217,-16.93554 -32.966795,19.88476 0.517578,0.85742 32.984377,-19.89453 -31.125002,22.69336 0.587891,0.8086 31.123051,-22.69141 -29.025395,25.31641 0.65625,0.7539 29.019535,-25.31054 -26.70313,27.74414 0.72071,0.69336 26.71093,-27.75391 -24.18945,29.97656 0.77734,0.62696 24.19141,-29.97657 -21.48633,31.97071 0.83008,0.55859 21.48242,-31.96484 -18.61523,33.71484 0.87695,0.48437 18.61914,-33.7246 -15.60937,35.21874 0.91406,0.4043 15.60742,-35.2168 -12.48047,36.44336 0.94727,0.32422 12.47656,-36.42968 -9.25391,37.3789 0.97071,0.24024 9.2539,-37.38282 -5.95898,38.04688 0.98828,0.1543 5.96094,-38.05469 -2.62305,38.42969 0.99805,0.0684 2.62109,-38.41797 0.73828,38.5 1,-0.0195 -0.73828,-38.51758 4.0918,38.30859 0.99414,-0.10742 -4.08985,-38.29492 7.41211,37.79297 0.98243,-0.19336 -7.41016,-37.7793 10.67578,36.99023 0.96094,-0.27734 -10.6836,-37.01563 13.86719,35.94532 0.9336,-0.36133 -13.86524,-35.93945 16.94531,34.59375 0.89649,-0.43946 -16.94336,-34.59179 19.89453,32.98437 0.85547,-0.51562 -19.89063,-32.98047 22.69141,31.12109 0.80664,-0.58984 -22.69141,-31.12305 25.31836,29.02734 0.75391,-0.6582 -25.32031,-29.02734 27.7539,26.71094 0.69336,-0.72071 -27.7539,-26.71094 29.97656,24.18946 0.62695,-0.77735 -29.97656,-24.1914 31.9707,21.48633 0.5586,-0.83008 -31.96485,-21.48242 33.71485,18.61523 0.48437,-0.875 -33.72461,-18.61914 35.21875,15.60937 0.4043,-0.91406 -35.2168,-15.60937 36.44336,12.48047 0.32422,-0.94727 -36.45117,-12.48242 37.40039,9.25976 0.24023,-0.9707 -37.38281,-9.25391 38.04688,5.95899 0.15429,-0.98633 -38.06054,-5.96289 38.43554,2.62305 0.0684,-0.99805 -38.41797,-2.62109 38.5,-0.73829 -0.0195,-1 -38.51757,0.73829 38.30664,-4.0918 -0.10547,-0.99414 -38.29297,4.08984 37.79101,-7.41211 -0.19336,-0.98242 -37.7832,7.41016 36.99414,-10.67578 -0.27734,-0.96094 -36.99805,10.67773 35.92578,-13.86133 -0.35937,-0.93359 -35.9336,13.86328 34.58789,-16.94336 -0.43945,-0.89648 -34.5918,16.94336 32.98438,-19.89453 -0.51758,-0.85547 -32.97265,19.88672 31.11328,-22.68555 -0.58789,-0.80859 -31.125,22.69336 29.02734,-25.32032 -0.65625,-0.7539 -29.03125,25.32226 26.71289,-27.75586 -0.7207,-0.69336 -26.70703,27.75 24.1875,-29.97265 -0.77735,-0.62696 -24.1914,29.97657 21.48632,-31.97071 -0.83007,-0.55859 -21.49415,31.98242 18.625,-33.73242 -0.875,-0.48437 -18.61914,33.7246 15.60938,-35.21875 -0.91406,-0.40429 -15.60157,35.20117 12.47266,-36.42773 -0.94531,-0.32422 -12.47656,36.43554 9.2539,-37.38476 -0.9707,-0.24024 -9.25781,37.39844 5.96289,-38.0625 -0.98828,-0.1543 -5.95899,38.03907 2.62109,-38.41407 -0.99804,-0.0684 -2.62305,38.43555 z"
         id="path20567" />
      <path
         id="path1059"
         style="fill:none;stroke:#000000;stroke-width:0.0999998"
         d="m 135.42645,392.93613 a 0.77500013,0.77500013 0 0 0 -0.77462,0.77515 0.77500013,0.77500013 0 0 0 0.0589,0.29662 h 1.43195 a 0.77500013,0.77500013 0 0 0 0.0589,-0.29662 0.77500013,0.77500013 0 0 0 -0.77515,-0.77515 z" />
    </g>
    <path
       id="path20759"
       style="color:#000000;font-style:normal;font-variant:normal;font-weight:normal;font-stretch:normal;font-size:medium;line-height:normal;font-family:sans-serif;font-variant-ligatures:normal;font-variant-position:normal;font-variant-caps:normal;font-variant-numeric:normal;font-variant-alternates:normal;font-variant-east-asian:normal;font-feature-settings:normal;font-variation-settings:normal;text-indent:0;text-align:start;text-decoration:none;text-decoration-line:none;text-decoration-style:solid;text-decoration-color:#000000;letter-spacing:normal;word-spacing:normal;text-transform:none;writing-mode:lr-tb;direction:ltr;text-orientation:mixed;dominant-baseline:auto;baseline-shift:baseline;text-anchor:start;white-space:normal;shape-padding:0;shape-margin:0;inline-size:0;clip-rule:nonzero;display:inline;overflow:visible;visibility:visible;isolation:auto;mix-blend-mode:normal;color-interpolation:sRGB;color-interpolation-filters:linearRGB;solid-color:#000000;solid-opacity:1;vector-effect:none;fill:none;fill-opacity:1;fill-rule:nonzero;stroke:#000000;stroke-width:0.1;stroke-linecap:butt;stroke-linejoin:miter;stroke-miterlimit:4;stroke-dasharray:none;stroke-dashoffset:0;stroke-opacity:1;color-rendering:auto;image-rendering:auto;shape-rendering:auto;text-rendering:auto;enable-background:accumulate;stop-color:#000000"
       d="m 183.93919,12.196134 c 0.29217,0 0.58284,0.0065 0.87385,0.01138 l -0.10232,46.053493 -3.91759,-45.965135 c 1.04092,-0.0636 2.0892,-0.09974 3.14606,-0.09974 z m 1.87379,0.03824 c 1.34812,0.04889 2.68285,0.149839 4.00233,0.301789 l -4.10414,45.730524 z m -6.01669,0.130742 3.91862,45.991491 -7.91941,-45.507801 c 1.31761,-0.212244 2.65151,-0.374817 4.00079,-0.48369 z m 11.01173,0.294555 c 1.32973,0.179692 2.64304,0.41144 3.93826,0.691946 l -8.0393,45.00086 z m -15.99799,0.355534 7.92251,45.515029 -11.85509,-44.637047 c 1.29175,-0.342524 2.60287,-0.636801 3.93258,-0.877982 z m 20.91242,0.556553 c 1.29761,0.308052 2.57561,0.666832 3.83284,1.072288 l -11.86388,43.886188 z m -25.80773,0.584978 11.84889,44.623618 -15.6714,-43.359095 c 1.25199,-0.469495 2.5262,-0.893196 3.82251,-1.264523 z m 30.59193,0.803053 c 1.25225,0.431485 2.48199,0.911622 3.68815,1.436087 l -15.53652,42.388608 z m -35.34771,0.819071 15.66312,43.335324 -19.33318,-41.701316 c 1.19817,-0.590513 2.42134,-1.137367 3.67006,-1.634008 z m 39.95105,1.024226 c 1.1947,0.54784 2.36409,1.141571 3.50728,1.777153 l -19.02365,40.557715 z m -44.51563,1.059367 19.30993,41.654281 -22.78776,-39.674557 c 1.13097,-0.703183 2.29043,-1.365123 3.47783,-1.979724 z m 48.89469,1.212329 c 1.12609,0.655429 2.22431,1.353516 3.29385,2.09083 l -22.28287,38.394022 z m -53.21846,1.303279 22.78207,39.664223 -26.03717,-37.363586 c 1.05402,-0.80758 2.13897,-1.575938 3.2551,-2.300637 z m 57.33449,1.364258 c 1.04721,0.752645 2.06376,1.545334 3.04994,2.373501 l -25.29148,35.947654 z m -61.3792,1.552361 26.0103,37.321734 -29.01115,-34.730678 c 0.96661,-0.901287 1.96695,-1.766384 3.00085,-2.591056 z m 65.19395,1.473811 c 0.96119,0.839795 1.8903,1.715783 2.7864,2.624648 l -28.02465,33.246535 z m -68.92189,1.806609 28.95895,34.668154 -31.6792,-31.819231 c 0.87083,-0.984081 1.77746,-1.934909 2.72025,-2.848923 z m 72.40799,1.538923 c 0.86851,0.915927 1.7028,1.864775 2.50269,2.843239 l -30.45913,30.323192 z m -75.78505,2.065509 31.61926,31.764972 -34.03771,-28.692291 c 0.76803,-1.055405 1.57437,-2.080644 2.41845,-3.072681 z m 78.91613,1.562696 c 0.7706,0.981096 1.50653,1.990558 2.20555,3.027722 L 193.64661,61.995144 Z M 142.119,34.069733 176.10917,62.719644 140.02145,37.329481 c 0.65931,-1.114528 1.3588,-2.201799 2.09755,-3.259748 z m 84.6765,1.540991 c 0.66797,1.034185 1.29978,2.094286 1.89394,3.178101 l -34.39636,23.970099 z m -87.27789,2.587956 36.00555,25.331774 -37.76927,-21.91958 c 0.54662,-1.161934 1.13492,-2.300158 1.76372,-3.412194 z m 89.64622,1.477428 c 0.56331,1.077137 1.0894,2.176828 1.57716,3.297473 l -35.87585,20.605443 z m -91.83007,2.846856 37.69744,21.87823 -39.11854,-18.349247 c 0.43143,-1.197623 0.9055,-2.374765 1.4211,-3.528983 z m 93.80049,1.377693 c 0.4566,1.108144 0.87667,2.23547 1.25677,3.38119 l -37.03341,17.166377 z m -95.55438,3.101102 39.02345,18.303775 -40.09677,-14.696242 c 0.315,-1.220766 0.67305,-2.423872 1.07332,-3.607533 z m 97.11966,1.237652 c 0.34983,1.128281 0.66021,2.273647 0.93327,3.433897 l -37.85351,13.681316 z m -98.43276,3.347598 39.99859,14.658005 -40.72516,-11.010165 c 0.19926,-1.231154 0.44193,-2.447774 0.72657,-3.64784 z m 99.58618,1.070737 c 0.2442,1.137457 0.45166,2.288844 0.61959,3.453013 l -38.33203,10.177665 z m -100.46365,3.573943 40.61044,10.978125 -40.99801,-7.3241 c 0.0863,-1.23066 0.21663,-2.448884 0.38757,-3.654025 z m 101.21967,0.877974 c 0.14134,1.136414 0.24377,2.284891 0.31006,3.443191 l -38.54598,6.70812 z m -101.6708,3.781151 40.88587,7.30343 -40.94117,-3.67419 c -0.006,-0.32233 -0.0119,-0.64466 -0.0119,-0.96842 0,-0.89256 0.0225,-1.77947 0.0672,-2.66082 z m 102.02789,0.66973 c 0.0251,0.66094 0.0413,1.32396 0.0413,1.99109 0,0.47425 -0.007,0.94685 -0.0202,1.418 l -38.43849,3.27577 z m -102.05425,3.96668 40.82076,3.66334 -40.56444,-0.0915 c -0.12586,-1.17905 -0.21114,-2.37027 -0.25632,-3.57188 z m 102.03771,0.44907 c -0.0521,1.127 -0.14199,2.24386 -0.2651,3.3507 l -38.04988,-0.0858 z m -101.66771,4.12275 40.45231,0.0915 -39.88593,3.39928 c -0.22661,-1.15062 -0.41756,-2.31381 -0.56638,-3.49074 z m 63.35893,0.14211 37.92431,0.0858 c -0.14429,1.10158 -0.32386,2.19169 -0.5364,3.27008 z m -22.81877,0.94568 -38.91286,6.76961 c -0.32233,-1.11188 -0.60756,-2.23947 -0.85577,-3.38119 z m 22.72472,0.0506 37.2768,3.34501 c -0.23276,1.06994 -0.49633,2.1281 -0.79427,3.1719 z m -22.56607,0.93534 -37.64938,9.99887 c -0.41259,-1.06646 -0.79137,-2.1497 -1.13378,-3.24941 z m 22.3883,0.0491 36.37505,6.49728 c -0.31671,1.03226 -0.66739,2.04923 -1.04593,3.05253 z m -22.11493,0.91416 -36.158,13.06845 c -0.49633,-1.01415 -0.96021,-2.04692 -1.39061,-3.09748 z m 21.84931,0.0506 35.23093,9.52449 c -0.39549,0.98883 -0.82002,1.96249 -1.27382,2.9197 z m -21.52116,0.89452 -34.40979,15.94943 c -0.57279,-0.95562 -1.11545,-1.93157 -1.62677,-2.92645 z m 21.17545,0.0408 33.86202,12.41269 c -0.46904,0.9412 -0.96502,1.86639 -1.4888,2.77346 z m -20.74964,0.86144 -32.4652,18.64745 c -0.64231,-0.89252 -1.25693,-1.80647 -1.84227,-2.74092 z m 20.34139,0.0527 32.27349,15.13656 c -0.53697,0.88934 -1.10326,1.75887 -1.69137,2.61172 z m -19.84736,0.81856 -30.32683,21.13358 c -0.70514,-0.82597 -1.38452,-1.6747 -2.03709,-2.54505 z m 19.33008,0.0372 30.52218,17.71366 c -0.59942,0.83399 -1.22216,1.64954 -1.86914,2.4448 z m -18.75803,0.7829 -28.02723,23.409956 c -0.76097,-0.756126 -1.49797,-1.536226 -2.21071,-2.338886 z m 18.19734,0.045 28.57191,20.10213 c -0.65647,0.7756 -1.33398,1.53225 -2.0345,2.26705 z m -17.56068,0.7245 -25.5788,25.465636 c -0.80989,-0.68337 -1.59984,-1.39002 -2.36575,-2.12183 z m 16.91214,0.0393 26.48728,22.32525 c -0.70868,0.714936 -1.44018,1.406786 -2.18953,2.078936 z m -16.19539,0.65991 -23.0234,27.312026 c -0.85299,-0.60899 -1.68447,-1.24608 -2.49752,-1.90532 z m 15.48846,0.047 24.25227,24.360776 c -0.75615,0.6521 -1.53188,1.28141 -2.32544,1.88879 z m -14.7283,0.60152 -20.34243,28.913476 c -0.88993,-0.53287 -1.76301,-1.09069 -2.61689,-1.67534 z m 13.9547,0.0351 21.89841,26.214406 c -0.7992,0.58729 -1.61495,1.15321 -2.44843,1.69397 z m -13.13873,0.54311 -17.5767,30.289096 c -0.92119,-0.45556 -1.82726,-0.93718 -2.71612,-1.4459 z m 12.31656,0.0233 19.42724,27.876856 c -0.83766,0.52041 -1.69062,1.0187 -2.55953,1.49085 z m -11.44891,0.47491 -14.74845,31.440976 c -0.94572,-0.37698 -1.87612,-0.78375 -2.79312,-1.21492 z m 10.58178,0.0233 16.85065,29.338776 c -0.87091,0.45125 -1.7575,0.87649 -2.65668,1.27794 z m -9.67745,0.40204 -11.85767,32.355126 c -0.96574,-0.29831 -1.91887,-0.62534 -2.85925,-0.97874 z m 8.77311,0.0279 14.18105,30.587806 c -0.89987,0.3806 -1.8141,0.73358 -2.73937,1.06296 z m -7.83208,0.31006 -8.93433,33.043466 c -0.97933,-0.21937 -1.94856,-0.46501 -2.90577,-0.74002 z m 6.88899,0.0217 11.43858,31.646136 c -0.92502,0.30874 -1.86198,0.59081 -2.80965,0.84695 z m -5.92574,0.24598 -5.98413,33.491496 c -0.98751,-0.14094 -1.96676,-0.3075 -2.93522,-0.50437 z m 4.96094,0.016 8.6279,32.482266 c -0.9452,0.23553 -1.9008,0.44453 -2.86598,0.6263 z m -3.97702,0.15968 -3.02617,33.722496 c -0.99113,-0.0636 -1.97475,-0.15428 -2.94969,-0.2739 z m 2.99258,0.002 5.76244,33.121486 c -0.96023,0.16129 -1.92919,0.29644 -2.9068,0.40307 z m -0.99632,0.0899 2.85668,33.532316 c -0.97021,0.0866 -1.94809,0.14745 -2.93316,0.17881 z m -0.99994,0.002 -0.0765,33.729726 c -0.21483,0.003 -0.42894,0.008 -0.6444,0.008 -0.772,0 -1.53908,-0.0201 -2.3027,-0.0542 z" />
    <path
       d="m 27.939547,12.76787 a 1.5151032,1.5151032 0 0 1 1.515104,1.5151 1.5151032,1.5151032 0 1 1 -1.515104,-1.5151 z"
       style="fill:none;stroke:#1b1918;stroke-width:0.202002;stroke-linecap:butt;stroke-linejoin:miter;stroke-dasharray:none"
       id="path4485-0"
       inkscape:connector-curvature="0" />
    <path
       d="m 72.938434,12.769 a 1.5151032,1.5151032 0 0 1 1.515102,1.5151 1.5151032,1.5151032 0 1 1 -1.515102,-1.5151 z"
       style="fill:none;stroke:#1b1918;stroke-width:0.202002;stroke-linecap:butt;stroke-linejoin:miter;stroke-dasharray:none"
       id="path4487-0"
       inkscape:connector-curvature="0" />
    <path
       d="m 27.939547,47.7678 a 1.5151032,1.5151032 0 0 1 1.515104,1.51511 1.5151032,1.5151032 0 1 1 -1.515104,-1.51511 z"
       style="fill:none;stroke:#1b1918;stroke-width:0.202002;stroke-linecap:butt;stroke-linejoin:miter;stroke-dasharray:none"
       id="path4489-4"
       inkscape:connector-curvature="0" />
    <path
       d="m 72.939558,47.7678 a 1.5151032,1.5151032 0 0 1 1.515105,1.51511 1.5151032,1.5151032 0 1 1 -1.515105,-1.51511 z"
       style="fill:none;stroke:#1b1918;stroke-width:0.202002;stroke-linecap:butt;stroke-linejoin:miter;stroke-dasharray:none"
       id="path4491-4"
       inkscape:connector-curvature="0" />
    <path
       d="m 15.593728,4.38114 h 97.379522 c 6.55264,0 11.91387,5.36119 11.91387,11.91398 v 89.10011 c -0.004,33.46678 -27.135605,60.59572 -60.603599,60.59572 -33.470597,0 -60.603664,-27.13328 -60.603664,-60.6037 V 16.29512 c 0,-6.55279 5.361191,-11.91398 11.913871,-11.91398 z"
       style="fill:none;stroke:#1b1918;stroke-width:0.202002;stroke-linecap:butt;stroke-linejoin:miter;stroke-dasharray:none"
       id="path4502-8"
       inkscape:connector-curvature="0" />
    <path
       d="m 13.658386,12.70097 a 1.9041222,1.9034403 0 0 1 1.904122,1.90344 1.9041222,1.9034403 0 1 1 -1.904122,-1.90344 z"
       style="fill:none;stroke:#1b1918;stroke-width:0.190368;stroke-linecap:butt;stroke-linejoin:miter;stroke-dasharray:none"
       id="path4506-2"
       inkscape:connector-curvature="0" />
    <path
       d="m 114.66378,12.70095 a 1.903281,1.9034623 0 0 1 1.90327,1.90346 1.903281,1.9034623 0 1 1 -1.90327,-1.90346 z"
       style="fill:none;stroke:#1b1918;stroke-width:0.190327;stroke-linecap:butt;stroke-linejoin:miter;stroke-dasharray:none"
       id="path4508-3"
       inkscape:connector-curvature="0" />
    <path
       d="m 80.804489,39.5362 a 1.5151032,1.5151032 0 0 1 1.515103,1.51514 1.5151032,1.5151032 0 1 1 -1.515103,-1.51514 z"
       style="fill:none;stroke:#1b1918;stroke-width:0.202002;stroke-linecap:butt;stroke-linejoin:miter;stroke-dasharray:none"
       id="path4512-3"
       inkscape:connector-curvature="0" />
    <path
       d="m 28.218434,30.07195 a 1.5151032,1.5151388 0 0 1 1.515103,1.51514 1.5151032,1.5151388 0 1 1 -1.515103,-1.51514 z"
       style="fill:none;stroke:#1b1918;stroke-width:0.202002;stroke-linecap:butt;stroke-linejoin:miter;stroke-dasharray:none"
       id="path4736-5"
       inkscape:connector-curvature="0" />
    <path
       d="m 72.669559,30.07082 a 1.5151032,1.5151388 0 0 1 1.515105,1.51514 1.5151032,1.5151388 0 1 1 -1.515105,-1.51514 z"
       style="fill:none;stroke:#1b1918;stroke-width:0.202002;stroke-linecap:butt;stroke-linejoin:miter;stroke-dasharray:none"
       id="path4738-7"
       inkscape:connector-curvature="0" />
    <ellipse
       style="fill:none;stroke:#000000;stroke-width:0.0999995"
       id="path1125-0"
       cx="63.677265"
       cy="105.79192"
       rx="2.8499999"
       ry="2.8500001" />
    <path
       id="path1147-3-1"
       style="fill:none;stroke:#000000;stroke-width:0.0999995"
       d="m 63.465947,101.90918 v 14.90762 a 0.45000011,0.45000021 0 0 0 -0.399974,0.447 0.45000011,0.45000021 0 0 0 0.449583,0.4501 0.45000011,0.45000021 0 0 0 0.450104,-0.4501 0.45000011,0.45000021 0 0 0 -0.399976,-0.447 V 102.00943 H 68.3287 v 14.83062 a 0.45000011,0.45000021 0 0 0 -0.299723,0.42375 0.45000011,0.45000021 0 0 0 0.450101,0.4501 0.45000011,0.45000021 0 0 0 0.449586,-0.4501 0.45000011,0.45000021 0 0 0 -0.299723,-0.42426 V 101.90918 H 68.479078 68.3287 63.565684 63.516074 Z" />
  </g>
</svg>
