G04 #@! TF.FileFunction,Copper,L1,Top,Signal*
%FSLAX46Y46*%
G04 Gerber Fmt 4.6, Leading zero omitted, Abs format (unit mm)*
G04 Created by KiCad (PCBNEW 4.0.4-stable) date 07/14/17 14:45:12*
%MOMM*%
%LPD*%
G01*
G04 APERTURE LIST*
%ADD10C,0.500000*%
%ADD11C,0.010000*%
%ADD12C,2.540000*%
%ADD13C,2.032000*%
%ADD14R,2.800000X1.600000*%
%ADD15O,2.800000X1.600000*%
%ADD16C,1.905000*%
%ADD17R,2.286000X1.574800*%
%ADD18O,2.286000X1.574800*%
%ADD19R,1.905000X1.905000*%
%ADD20R,2.499360X2.499360*%
%ADD21C,2.499360*%
%ADD22R,2.032000X2.032000*%
%ADD23C,0.010000*%
%ADD24O,9.000000X12.000000*%
%ADD25R,1.998980X1.998980*%
%ADD26C,1.998980*%
%ADD27C,1.600200*%
%ADD28C,0.600000*%
%ADD29C,0.254000*%
G04 APERTURE END LIST*
D10*
D11*
G36*
X37775092Y40175486D02*
X38337908Y40130429D01*
X38812235Y40041807D01*
X38885706Y40020542D01*
X39702578Y39681299D01*
X40451366Y39201203D01*
X40981072Y38725761D01*
X41440128Y38197669D01*
X41786358Y37675757D01*
X42060748Y37095380D01*
X42130661Y36912568D01*
X42239208Y36487991D01*
X42306463Y35955005D01*
X42331724Y35369601D01*
X42314288Y34787766D01*
X42253454Y34265491D01*
X42168268Y33913667D01*
X41796352Y33046657D01*
X41303998Y32290171D01*
X40698541Y31652797D01*
X39987312Y31143122D01*
X39650847Y30965390D01*
X39272794Y30798722D01*
X38890020Y30652788D01*
X38569552Y30552533D01*
X38493332Y30534628D01*
X38135714Y30486357D01*
X37683732Y30460038D01*
X37211094Y30456998D01*
X36791508Y30478564D01*
X36613666Y30500786D01*
X36147855Y30616794D01*
X35627494Y30806168D01*
X35131263Y31037762D01*
X34861875Y31194273D01*
X34296718Y31632924D01*
X34751000Y31632924D01*
X34821788Y31562492D01*
X35011380Y31440474D01*
X35285614Y31287915D01*
X35438137Y31209590D01*
X35802528Y31034621D01*
X36072621Y30919920D01*
X36234182Y30869971D01*
X36272980Y30889259D01*
X36185224Y30974193D01*
X36048753Y31083597D01*
X35969248Y31148426D01*
X36619106Y31148426D01*
X36676397Y31011817D01*
X36786298Y30881632D01*
X36935337Y30760720D01*
X37077111Y30699979D01*
X37166631Y30709067D01*
X37165264Y30724756D01*
X37905409Y30724756D01*
X37947507Y30706848D01*
X38003702Y30724279D01*
X38190329Y30773830D01*
X38263202Y30781000D01*
X38382498Y30829093D01*
X38583601Y30953090D01*
X38694702Y31030855D01*
X39056351Y31030855D01*
X39070151Y31003793D01*
X39182851Y31035532D01*
X39196000Y31040157D01*
X39428427Y31139897D01*
X39708446Y31282799D01*
X39805457Y31337558D01*
X40081293Y31513355D01*
X40202844Y31630826D01*
X40172950Y31694769D01*
X40026496Y31710592D01*
X39786535Y31639632D01*
X39477671Y31426404D01*
X39365333Y31329529D01*
X39151421Y31133754D01*
X39056351Y31030855D01*
X38694702Y31030855D01*
X38825736Y31122572D01*
X39068129Y31307119D01*
X39270007Y31476312D01*
X39390597Y31599730D01*
X39407666Y31634844D01*
X39332142Y31681749D01*
X39141770Y31709292D01*
X39039920Y31712334D01*
X38823331Y31699663D01*
X38663297Y31640409D01*
X38504046Y31502708D01*
X38335977Y31310167D01*
X38090686Y31010620D01*
X37950149Y30820748D01*
X37905409Y30724756D01*
X37165264Y30724756D01*
X37158908Y30797645D01*
X37156401Y30802167D01*
X37022805Y30990738D01*
X36866586Y31150258D01*
X36733855Y31237900D01*
X36686026Y31239061D01*
X36619106Y31148426D01*
X35969248Y31148426D01*
X35836294Y31256836D01*
X35668504Y31394834D01*
X35338333Y31622380D01*
X35235854Y31655000D01*
X35682333Y31655000D01*
X35741398Y31570023D01*
X35889525Y31425503D01*
X35957500Y31366654D01*
X36130547Y31228491D01*
X36215722Y31194615D01*
X36251791Y31256901D01*
X36260528Y31303145D01*
X36261978Y31504541D01*
X36242019Y31591491D01*
X36203566Y31620750D01*
X36783000Y31620750D01*
X36830861Y31520433D01*
X36950633Y31342782D01*
X37106600Y31134282D01*
X37263043Y30941423D01*
X37384245Y30810691D01*
X37428199Y30781000D01*
X37445802Y30857603D01*
X37457474Y31055194D01*
X37460333Y31246667D01*
X37460333Y31712334D01*
X37629666Y31712334D01*
X37633460Y31225500D01*
X37637254Y30738667D01*
X38014460Y31159682D01*
X38205959Y31382596D01*
X38341726Y31558147D01*
X38391666Y31646515D01*
X38315958Y31685776D01*
X38124417Y31709320D01*
X38010666Y31712334D01*
X37629666Y31712334D01*
X37460333Y31712334D01*
X37121666Y31712334D01*
X36909498Y31692022D01*
X36791603Y31641259D01*
X36783000Y31620750D01*
X36203566Y31620750D01*
X36149317Y31662027D01*
X35980297Y31705738D01*
X35804992Y31714678D01*
X35693440Y31680900D01*
X35682333Y31655000D01*
X35235854Y31655000D01*
X35061739Y31710422D01*
X35017446Y31712334D01*
X34833774Y31690319D01*
X34751337Y31636928D01*
X34751000Y31632924D01*
X34296718Y31632924D01*
X34273751Y31650750D01*
X33736538Y32212899D01*
X33278426Y32842189D01*
X33011818Y33342167D01*
X33311983Y33342167D01*
X33366525Y33185396D01*
X33509001Y32946103D01*
X33709223Y32663092D01*
X33936998Y32375169D01*
X34162137Y32121136D01*
X34354450Y31939800D01*
X34451343Y31877705D01*
X34667144Y31821657D01*
X34900227Y31803382D01*
X35075318Y31826324D01*
X35111907Y31847464D01*
X35094774Y31937797D01*
X34998198Y32119151D01*
X34884663Y32291964D01*
X34682561Y32594132D01*
X34485688Y32912562D01*
X34409387Y33045834D01*
X34285949Y33254763D01*
X34246619Y33291794D01*
X34497000Y33291794D01*
X34543288Y33160777D01*
X34664069Y32936784D01*
X34832213Y32662289D01*
X35020591Y32379766D01*
X35202074Y32131691D01*
X35343437Y31966563D01*
X35558938Y31841669D01*
X35812473Y31814284D01*
X36036447Y31883490D01*
X36120560Y31965542D01*
X37012104Y31965542D01*
X37033657Y31841262D01*
X37192158Y31808559D01*
X37235489Y31813325D01*
X37338449Y31847158D01*
X37396260Y31938844D01*
X37424242Y32129513D01*
X37431356Y32282106D01*
X37628959Y32282106D01*
X37637513Y32021565D01*
X37680354Y31861479D01*
X37690014Y31849542D01*
X37804335Y31818290D01*
X38022659Y31809634D01*
X38134514Y31814264D01*
X38328913Y31832130D01*
X38462140Y31876286D01*
X38496281Y31908699D01*
X38863578Y31908699D01*
X38865044Y31869191D01*
X38979653Y31816779D01*
X39190996Y31799176D01*
X39430244Y31815644D01*
X39628570Y31865445D01*
X39654152Y31877646D01*
X39665173Y31887316D01*
X40000333Y31887316D01*
X40063506Y31803722D01*
X40222627Y31802526D01*
X40432094Y31873184D01*
X40646308Y32005154D01*
X40697497Y32048519D01*
X40860695Y32203175D01*
X40906178Y32277088D01*
X40844169Y32300450D01*
X40783500Y32302519D01*
X40629796Y32352851D01*
X40593000Y32432000D01*
X40552622Y32544749D01*
X40518382Y32559000D01*
X40422714Y32495447D01*
X40281618Y32340889D01*
X40136861Y32149480D01*
X40030208Y31975374D01*
X40000333Y31887316D01*
X39665173Y31887316D01*
X39778730Y31986951D01*
X39954473Y32192197D01*
X40124079Y32421813D01*
X40293036Y32675678D01*
X40376541Y32842100D01*
X40388586Y32970693D01*
X40343162Y33111071D01*
X40328158Y33145501D01*
X40238082Y33307840D01*
X40118344Y33383697D01*
X39907513Y33405080D01*
X39828866Y33405667D01*
X39444735Y33405667D01*
X39132582Y32673524D01*
X39001422Y32348224D01*
X38907527Y32080573D01*
X38863578Y31908699D01*
X38496281Y31908699D01*
X38570305Y31978974D01*
X38689516Y32172439D01*
X38826327Y32432000D01*
X39032740Y32831572D01*
X39158378Y33103617D01*
X39197113Y33272601D01*
X39142813Y33362991D01*
X38989350Y33399254D01*
X38730594Y33405855D01*
X38582386Y33405667D01*
X37915029Y33405667D01*
X37772347Y33106461D01*
X37700045Y32880554D01*
X37651026Y32587102D01*
X37628959Y32282106D01*
X37431356Y32282106D01*
X37434397Y32347334D01*
X37438267Y32608649D01*
X37426065Y32713350D01*
X37395355Y32673606D01*
X37378825Y32624768D01*
X37271903Y32388215D01*
X37130748Y32170316D01*
X37012104Y31965542D01*
X36120560Y31965542D01*
X36132561Y31977248D01*
X36158821Y32096477D01*
X36119298Y32292370D01*
X36006649Y32594074D01*
X35935299Y32760415D01*
X35719917Y33250513D01*
X35916638Y33250513D01*
X35970183Y33070742D01*
X36036980Y32897667D01*
X36141430Y32663408D01*
X36223587Y32509673D01*
X36255102Y32474334D01*
X36271029Y32548822D01*
X36260822Y32735869D01*
X36250234Y32825203D01*
X36166194Y33130799D01*
X36019840Y33294798D01*
X35919858Y33319704D01*
X35916638Y33250513D01*
X35719917Y33250513D01*
X35651731Y33405667D01*
X35074365Y33405667D01*
X34746564Y33395859D01*
X34562598Y33363209D01*
X34497930Y33302876D01*
X34497000Y33291794D01*
X34246619Y33291794D01*
X34172567Y33361515D01*
X34007518Y33400383D01*
X33761742Y33405667D01*
X33511660Y33394884D01*
X33348383Y33367156D01*
X33311983Y33342167D01*
X33011818Y33342167D01*
X32927607Y33500089D01*
X32717346Y34125381D01*
X32654905Y34550414D01*
X32627937Y35075934D01*
X32630590Y35278064D01*
X32862938Y35278064D01*
X32914193Y34729182D01*
X32961980Y34384815D01*
X33032670Y34060880D01*
X33091904Y33877650D01*
X33178012Y33698192D01*
X33278206Y33608802D01*
X33449760Y33578198D01*
X33646013Y33575000D01*
X33888627Y33586310D01*
X34042925Y33615257D01*
X34072244Y33638500D01*
X34055674Y33744629D01*
X34012475Y33975777D01*
X33950395Y34291154D01*
X33915447Y34464000D01*
X33808731Y34987368D01*
X33989000Y34987368D01*
X34014688Y34738483D01*
X34080716Y34421942D01*
X34170531Y34098218D01*
X34267578Y33827779D01*
X34346672Y33680834D01*
X34487018Y33618176D01*
X34768505Y33582149D01*
X35019203Y33575000D01*
X35605339Y33575000D01*
X35549597Y33892500D01*
X35479106Y34287936D01*
X35442326Y34453391D01*
X35611217Y34453391D01*
X35632315Y34368828D01*
X35701836Y34275111D01*
X35786708Y34322843D01*
X35840998Y34438429D01*
X35785344Y34521856D01*
X35672548Y34581389D01*
X35630951Y34567841D01*
X35611217Y34453391D01*
X35442326Y34453391D01*
X35420087Y34553427D01*
X35352342Y34725372D01*
X35255673Y34840170D01*
X35109879Y34934222D01*
X34916808Y35032805D01*
X34673592Y35139458D01*
X35544384Y35139458D01*
X35546274Y35134409D01*
X35592835Y34943681D01*
X35597666Y34880409D01*
X35662917Y34785388D01*
X35809607Y34764825D01*
X35964137Y34825072D01*
X35988773Y34846641D01*
X36124410Y34876381D01*
X36354605Y34833892D01*
X36632002Y34739322D01*
X36909245Y34612826D01*
X37138980Y34474553D01*
X37273850Y34344655D01*
X37291000Y34292493D01*
X37337409Y34181224D01*
X37375666Y34167667D01*
X37419910Y34245425D01*
X37450201Y34451407D01*
X37460333Y34718000D01*
X37460333Y35268334D01*
X37629666Y35268334D01*
X37629666Y34689257D01*
X37634747Y34378979D01*
X37659192Y34193883D01*
X37716807Y34089911D01*
X37821398Y34023002D01*
X37841333Y34013739D01*
X38007710Y33877390D01*
X38053000Y33746149D01*
X38067654Y33658464D01*
X38135116Y33607129D01*
X38290633Y33582583D01*
X38569454Y33575265D01*
X38684020Y33575000D01*
X39315040Y33575000D01*
X39496566Y33575000D01*
X39917783Y33575000D01*
X40174064Y33585553D01*
X40300623Y33626367D01*
X40336259Y33711181D01*
X40336307Y33723167D01*
X40284589Y33908846D01*
X40283311Y33911034D01*
X41724576Y33911034D01*
X41740587Y33821578D01*
X41808019Y33773685D01*
X41871654Y33876954D01*
X41927656Y34049660D01*
X41941715Y34122310D01*
X41898366Y34136319D01*
X41810648Y34066935D01*
X41724576Y33911034D01*
X40283311Y33911034D01*
X40215122Y34027730D01*
X40139044Y34198405D01*
X40142206Y34302897D01*
X40137310Y34406679D01*
X40100983Y34421667D01*
X39949556Y34449961D01*
X39881434Y34472607D01*
X39766888Y34457825D01*
X39669584Y34307546D01*
X39581949Y34007570D01*
X39549375Y33850167D01*
X39496566Y33575000D01*
X39315040Y33575000D01*
X39403214Y33892500D01*
X39473803Y34184146D01*
X39481439Y34348262D01*
X39424453Y34415172D01*
X39374104Y34421667D01*
X39257553Y34474460D01*
X39104361Y34605223D01*
X38950443Y34772535D01*
X38866536Y34887334D01*
X41947666Y34887334D01*
X41990000Y34845000D01*
X42032333Y34887334D01*
X41990000Y34929667D01*
X41947666Y34887334D01*
X38866536Y34887334D01*
X38831715Y34934975D01*
X38784091Y35051121D01*
X38802624Y35080764D01*
X38858721Y35131797D01*
X41722770Y35131797D01*
X41736000Y35099000D01*
X41812082Y35018230D01*
X41825663Y35014334D01*
X41862029Y35079840D01*
X41863000Y35099000D01*
X41797912Y35180414D01*
X41773336Y35183667D01*
X41722770Y35131797D01*
X38858721Y35131797D01*
X38894655Y35164487D01*
X38899666Y35190723D01*
X38821925Y35227819D01*
X38616281Y35255261D01*
X38324101Y35267994D01*
X38264666Y35268334D01*
X37629666Y35268334D01*
X37460333Y35268334D01*
X36998650Y35268334D01*
X36692532Y35250068D01*
X36423414Y35203472D01*
X36319020Y35169030D01*
X36130458Y35112104D01*
X36008080Y35162893D01*
X36001770Y35169030D01*
X35843088Y35247759D01*
X35698674Y35268334D01*
X35552802Y35239668D01*
X35544384Y35139458D01*
X34673592Y35139458D01*
X34627173Y35159813D01*
X34361587Y35244923D01*
X34221833Y35266915D01*
X34062115Y35247594D01*
X33998885Y35152649D01*
X33989000Y34987368D01*
X33808731Y34987368D01*
X33760072Y35226000D01*
X32862938Y35278064D01*
X32630590Y35278064D01*
X32635311Y35637567D01*
X32637624Y35667964D01*
X32863497Y35667964D01*
X32884394Y35519865D01*
X32963192Y35438116D01*
X32964061Y35437606D01*
X33167329Y35375376D01*
X33426550Y35359567D01*
X33650209Y35392618D01*
X33705825Y35417844D01*
X33755381Y35525407D01*
X33771695Y35602236D01*
X33962937Y35602236D01*
X34002810Y35464114D01*
X34006873Y35458834D01*
X34124275Y35363267D01*
X34260733Y35395763D01*
X34317003Y35429285D01*
X34380879Y35504943D01*
X34365834Y35570320D01*
X34967062Y35570320D01*
X34967805Y35426945D01*
X34988913Y35397310D01*
X35121584Y35359362D01*
X35257375Y35438643D01*
X35328388Y35586699D01*
X35322515Y35638045D01*
X35513000Y35638045D01*
X35539461Y35470697D01*
X35597519Y35391850D01*
X35655186Y35433602D01*
X35669106Y35481398D01*
X35646122Y35656163D01*
X35605606Y35717594D01*
X35532729Y35748348D01*
X35513000Y35638045D01*
X35322515Y35638045D01*
X35311257Y35736468D01*
X35231582Y35762684D01*
X35863180Y35762684D01*
X35867829Y35560141D01*
X35984744Y35430755D01*
X36042166Y35412753D01*
X36395645Y35372873D01*
X36797986Y35367651D01*
X37150067Y35397676D01*
X37195750Y35405917D01*
X37460333Y35458834D01*
X37460333Y36251073D01*
X37629666Y36251073D01*
X37631744Y35860216D01*
X37653852Y35607636D01*
X37719797Y35462318D01*
X37853390Y35393249D01*
X38078439Y35369414D01*
X38311557Y35362822D01*
X38570354Y35374249D01*
X38757578Y35447911D01*
X38889176Y35562102D01*
X41461564Y35562102D01*
X41478518Y35527967D01*
X41559251Y35440434D01*
X41574102Y35502163D01*
X41553549Y35568319D01*
X41491216Y35660525D01*
X41463062Y35658618D01*
X41461564Y35562102D01*
X38889176Y35562102D01*
X38953952Y35618309D01*
X38986060Y35651116D01*
X39167003Y35862478D01*
X39247280Y36051122D01*
X39259678Y36298562D01*
X39258501Y36328449D01*
X39259299Y36386730D01*
X39763321Y36386730D01*
X39787100Y36305774D01*
X39947633Y36284334D01*
X40148176Y36235818D01*
X40250410Y36162061D01*
X40398490Y36071846D01*
X40628092Y36011314D01*
X40662944Y36006960D01*
X40886011Y35981692D01*
X41031840Y35962057D01*
X41043708Y35959900D01*
X41089194Y36014657D01*
X41085311Y36093834D01*
X41070376Y36115000D01*
X41270333Y36115000D01*
X41299220Y36032535D01*
X41307669Y36030334D01*
X41379955Y36089663D01*
X41397333Y36115000D01*
X41390620Y36193019D01*
X41359996Y36199667D01*
X41273778Y36138207D01*
X41270333Y36115000D01*
X41070376Y36115000D01*
X41011036Y36199094D01*
X40817072Y36255588D01*
X40691044Y36268380D01*
X40452233Y36303200D01*
X40363523Y36366660D01*
X40367574Y36406010D01*
X40333136Y36519820D01*
X40213427Y36606945D01*
X40035812Y36649987D01*
X39896126Y36563121D01*
X39881461Y36547315D01*
X39763321Y36386730D01*
X39259299Y36386730D01*
X39261853Y36572971D01*
X39307123Y36686715D01*
X39373373Y36707667D01*
X39472907Y36771249D01*
X39476371Y36855834D01*
X39443271Y36922773D01*
X39354673Y36968224D01*
X39180947Y36997629D01*
X38892464Y37016429D01*
X38538829Y37028032D01*
X37629666Y37052063D01*
X37629666Y36251073D01*
X37460333Y36251073D01*
X37460333Y37046334D01*
X37173058Y37046334D01*
X36941808Y37009065D01*
X36837048Y36919334D01*
X36726337Y36806742D01*
X36663019Y36792334D01*
X36506616Y36732147D01*
X36321276Y36588434D01*
X36166792Y36416469D01*
X36102973Y36274625D01*
X36052675Y36118379D01*
X35975973Y35992985D01*
X35863180Y35762684D01*
X35231582Y35762684D01*
X35190096Y35776334D01*
X35054623Y35712148D01*
X34967062Y35570320D01*
X34365834Y35570320D01*
X34352278Y35629224D01*
X34277582Y35766656D01*
X34160997Y35940210D01*
X34074641Y36027782D01*
X34065282Y36030334D01*
X34001640Y35958412D01*
X33965036Y35791358D01*
X33962937Y35602236D01*
X33771695Y35602236D01*
X33805563Y35761728D01*
X33848771Y36086435D01*
X33864912Y36263215D01*
X33926174Y37046334D01*
X33547655Y37046334D01*
X33311298Y37037369D01*
X33184673Y36981679D01*
X33108218Y36836066D01*
X33064063Y36695631D01*
X32983686Y36383920D01*
X32910803Y36032176D01*
X32893556Y35930995D01*
X32863497Y35667964D01*
X32637624Y35667964D01*
X32675899Y36170937D01*
X32748568Y36611670D01*
X32761938Y36664956D01*
X32981549Y37249058D01*
X33351187Y37249058D01*
X33444969Y37158390D01*
X33629782Y37171235D01*
X33803112Y37218711D01*
X33878618Y37246397D01*
X33877016Y37332030D01*
X33854284Y37532264D01*
X33833009Y37684015D01*
X33818683Y37780327D01*
X35952488Y37780327D01*
X36043534Y37726732D01*
X36096608Y37723667D01*
X36263335Y37797955D01*
X36349548Y38010896D01*
X36359666Y38153925D01*
X36403916Y38295392D01*
X36518883Y38316446D01*
X36677893Y38235200D01*
X36854272Y38069766D01*
X37021345Y37838253D01*
X37123090Y37635563D01*
X37190016Y37433886D01*
X37170459Y37337774D01*
X37137868Y37319846D01*
X37073220Y37242189D01*
X37083802Y37208436D01*
X37143564Y37140420D01*
X37240017Y37150737D01*
X37326408Y37182392D01*
X37419986Y37307265D01*
X37456629Y37559698D01*
X37629666Y37559698D01*
X37641443Y37342739D01*
X37703922Y37240438D01*
X37857828Y37198413D01*
X37904833Y37192248D01*
X38448063Y37146185D01*
X38838438Y37161514D01*
X39073679Y37238100D01*
X39105285Y37264048D01*
X39205702Y37456343D01*
X39216391Y37696214D01*
X39151344Y37927973D01*
X39024555Y38095935D01*
X38883419Y38147000D01*
X38732837Y38204813D01*
X38663161Y38332876D01*
X38703535Y38463127D01*
X38736710Y38489609D01*
X38804352Y38583199D01*
X38787530Y38626025D01*
X38674498Y38637911D01*
X38558298Y38588295D01*
X38375341Y38505137D01*
X38274178Y38485667D01*
X38158805Y38418486D01*
X38018633Y38251106D01*
X37979551Y38189334D01*
X37849791Y38002729D01*
X37740110Y37899947D01*
X37717188Y37893000D01*
X37662025Y37817975D01*
X37631689Y37630889D01*
X37629666Y37559698D01*
X37456629Y37559698D01*
X37460021Y37583064D01*
X37445831Y37999842D01*
X37406491Y38346850D01*
X37363091Y38663492D01*
X38997764Y38663492D01*
X39032982Y38560163D01*
X39111333Y38485667D01*
X39212963Y38321164D01*
X39238333Y38180919D01*
X39313321Y37973531D01*
X39450000Y37842881D01*
X39601669Y37712984D01*
X39661666Y37603863D01*
X39728276Y37431781D01*
X39884635Y37360250D01*
X40008588Y37389419D01*
X40157356Y37492496D01*
X40207720Y37547410D01*
X40180411Y37639000D01*
X40466000Y37639000D01*
X40472712Y37560982D01*
X40503336Y37554334D01*
X40589554Y37615794D01*
X40593000Y37639000D01*
X40564113Y37721466D01*
X40555663Y37723667D01*
X40483377Y37664338D01*
X40466000Y37639000D01*
X40180411Y37639000D01*
X40179259Y37642862D01*
X40047037Y37775275D01*
X40023082Y37793332D01*
X39952082Y37850667D01*
X40677666Y37850667D01*
X40720000Y37808334D01*
X40762333Y37850667D01*
X40720000Y37893000D01*
X40677666Y37850667D01*
X39952082Y37850667D01*
X39872586Y37914862D01*
X39862381Y37949445D01*
X40959888Y37949445D01*
X40971511Y37899111D01*
X41016333Y37893000D01*
X41086023Y37923979D01*
X41072777Y37949445D01*
X40972298Y37959578D01*
X40959888Y37949445D01*
X39862381Y37949445D01*
X39846797Y38002250D01*
X39921708Y38104667D01*
X40508333Y38104667D01*
X40550666Y38062334D01*
X40593000Y38104667D01*
X40550666Y38147000D01*
X40508333Y38104667D01*
X39921708Y38104667D01*
X39930136Y38116189D01*
X39937979Y38124878D01*
X40063291Y38298047D01*
X40054928Y38439093D01*
X39944877Y38584834D01*
X39778756Y38687501D01*
X40113769Y38687501D01*
X40127333Y38655000D01*
X40239492Y38573495D01*
X40264326Y38570334D01*
X40310230Y38622500D01*
X40296666Y38655000D01*
X40184507Y38736506D01*
X40159673Y38739667D01*
X40113769Y38687501D01*
X39778756Y38687501D01*
X39764661Y38696212D01*
X39469514Y38738557D01*
X39394544Y38739667D01*
X39116276Y38721524D01*
X38997764Y38663492D01*
X37363091Y38663492D01*
X37352650Y38739667D01*
X36911614Y38739667D01*
X36610097Y38719136D01*
X36400420Y38635285D01*
X36233259Y38454727D01*
X36073543Y38172372D01*
X35962929Y37920368D01*
X35952488Y37780327D01*
X33818683Y37780327D01*
X33784692Y38008826D01*
X35687958Y38008826D01*
X35753409Y37977667D01*
X35835116Y38046324D01*
X35929828Y38208868D01*
X35997242Y38365415D01*
X35978567Y38383775D01*
X35858751Y38280413D01*
X35716761Y38119177D01*
X35687958Y38008826D01*
X33784692Y38008826D01*
X33770434Y38104667D01*
X33535015Y37736956D01*
X33380795Y37444346D01*
X33351187Y37249058D01*
X32981549Y37249058D01*
X33053444Y37440275D01*
X33490688Y38158426D01*
X34054433Y38800418D01*
X34293087Y38994911D01*
X36613666Y38994911D01*
X36689811Y38945904D01*
X36884502Y38914799D01*
X37037000Y38909000D01*
X37460333Y38909000D01*
X37460333Y39078334D01*
X39069000Y39078334D01*
X39118608Y38945549D01*
X39280666Y38909000D01*
X39439797Y38936970D01*
X39492333Y38990688D01*
X39426773Y39084343D01*
X39282291Y39187295D01*
X39137188Y39245950D01*
X39116899Y39247667D01*
X39077927Y39176487D01*
X39069000Y39078334D01*
X37460333Y39078334D01*
X37460333Y39194967D01*
X37421170Y39429313D01*
X37356133Y39540445D01*
X39197532Y39540445D01*
X39268728Y39437948D01*
X39418504Y39300193D01*
X39613442Y39152935D01*
X39820126Y39021929D01*
X40005140Y38932930D01*
X40111163Y38909230D01*
X40269810Y38934131D01*
X40295576Y38995431D01*
X40183617Y39095749D01*
X39972101Y39233982D01*
X39715334Y39380002D01*
X39467626Y39503683D01*
X39283283Y39574898D01*
X39238333Y39581929D01*
X39197532Y39540445D01*
X37356133Y39540445D01*
X37325465Y39592848D01*
X37324016Y39594066D01*
X37226962Y39645295D01*
X37121608Y39608697D01*
X36966403Y39464637D01*
X36900683Y39394010D01*
X36734805Y39197098D01*
X36631145Y39043434D01*
X36613666Y38994911D01*
X34293087Y38994911D01*
X34397945Y39080365D01*
X35744029Y39080365D01*
X35768768Y39039847D01*
X35928419Y39033257D01*
X36011226Y39035047D01*
X36207262Y39056248D01*
X36370850Y39128181D01*
X36550220Y39280529D01*
X36741047Y39484208D01*
X36924939Y39699642D01*
X37040289Y39856670D01*
X37064627Y39924339D01*
X37061031Y39925000D01*
X36943807Y39881508D01*
X36731745Y39769138D01*
X36469472Y39615052D01*
X36201613Y39446411D01*
X35972796Y39290376D01*
X35828191Y39174647D01*
X35744029Y39080365D01*
X34397945Y39080365D01*
X34625625Y39265913D01*
X35224218Y39265913D01*
X35262602Y39200994D01*
X35321826Y39139709D01*
X35388695Y39124337D01*
X35495748Y39168132D01*
X35675524Y39284349D01*
X35957500Y39484052D01*
X36172929Y39642856D01*
X36318881Y39759628D01*
X36359666Y39802187D01*
X36290141Y39799036D01*
X36113257Y39744942D01*
X35876553Y39657377D01*
X35627567Y39553814D01*
X35431967Y39461213D01*
X35259984Y39354370D01*
X35224218Y39265913D01*
X34625625Y39265913D01*
X34725445Y39347261D01*
X35484487Y39779966D01*
X36184533Y40043843D01*
X36635522Y40132735D01*
X37186670Y40176435D01*
X37775092Y40175486D01*
X37775092Y40175486D01*
G37*
X37775092Y40175486D02*
X38337908Y40130429D01*
X38812235Y40041807D01*
X38885706Y40020542D01*
X39702578Y39681299D01*
X40451366Y39201203D01*
X40981072Y38725761D01*
X41440128Y38197669D01*
X41786358Y37675757D01*
X42060748Y37095380D01*
X42130661Y36912568D01*
X42239208Y36487991D01*
X42306463Y35955005D01*
X42331724Y35369601D01*
X42314288Y34787766D01*
X42253454Y34265491D01*
X42168268Y33913667D01*
X41796352Y33046657D01*
X41303998Y32290171D01*
X40698541Y31652797D01*
X39987312Y31143122D01*
X39650847Y30965390D01*
X39272794Y30798722D01*
X38890020Y30652788D01*
X38569552Y30552533D01*
X38493332Y30534628D01*
X38135714Y30486357D01*
X37683732Y30460038D01*
X37211094Y30456998D01*
X36791508Y30478564D01*
X36613666Y30500786D01*
X36147855Y30616794D01*
X35627494Y30806168D01*
X35131263Y31037762D01*
X34861875Y31194273D01*
X34296718Y31632924D01*
X34751000Y31632924D01*
X34821788Y31562492D01*
X35011380Y31440474D01*
X35285614Y31287915D01*
X35438137Y31209590D01*
X35802528Y31034621D01*
X36072621Y30919920D01*
X36234182Y30869971D01*
X36272980Y30889259D01*
X36185224Y30974193D01*
X36048753Y31083597D01*
X35969248Y31148426D01*
X36619106Y31148426D01*
X36676397Y31011817D01*
X36786298Y30881632D01*
X36935337Y30760720D01*
X37077111Y30699979D01*
X37166631Y30709067D01*
X37165264Y30724756D01*
X37905409Y30724756D01*
X37947507Y30706848D01*
X38003702Y30724279D01*
X38190329Y30773830D01*
X38263202Y30781000D01*
X38382498Y30829093D01*
X38583601Y30953090D01*
X38694702Y31030855D01*
X39056351Y31030855D01*
X39070151Y31003793D01*
X39182851Y31035532D01*
X39196000Y31040157D01*
X39428427Y31139897D01*
X39708446Y31282799D01*
X39805457Y31337558D01*
X40081293Y31513355D01*
X40202844Y31630826D01*
X40172950Y31694769D01*
X40026496Y31710592D01*
X39786535Y31639632D01*
X39477671Y31426404D01*
X39365333Y31329529D01*
X39151421Y31133754D01*
X39056351Y31030855D01*
X38694702Y31030855D01*
X38825736Y31122572D01*
X39068129Y31307119D01*
X39270007Y31476312D01*
X39390597Y31599730D01*
X39407666Y31634844D01*
X39332142Y31681749D01*
X39141770Y31709292D01*
X39039920Y31712334D01*
X38823331Y31699663D01*
X38663297Y31640409D01*
X38504046Y31502708D01*
X38335977Y31310167D01*
X38090686Y31010620D01*
X37950149Y30820748D01*
X37905409Y30724756D01*
X37165264Y30724756D01*
X37158908Y30797645D01*
X37156401Y30802167D01*
X37022805Y30990738D01*
X36866586Y31150258D01*
X36733855Y31237900D01*
X36686026Y31239061D01*
X36619106Y31148426D01*
X35969248Y31148426D01*
X35836294Y31256836D01*
X35668504Y31394834D01*
X35338333Y31622380D01*
X35235854Y31655000D01*
X35682333Y31655000D01*
X35741398Y31570023D01*
X35889525Y31425503D01*
X35957500Y31366654D01*
X36130547Y31228491D01*
X36215722Y31194615D01*
X36251791Y31256901D01*
X36260528Y31303145D01*
X36261978Y31504541D01*
X36242019Y31591491D01*
X36203566Y31620750D01*
X36783000Y31620750D01*
X36830861Y31520433D01*
X36950633Y31342782D01*
X37106600Y31134282D01*
X37263043Y30941423D01*
X37384245Y30810691D01*
X37428199Y30781000D01*
X37445802Y30857603D01*
X37457474Y31055194D01*
X37460333Y31246667D01*
X37460333Y31712334D01*
X37629666Y31712334D01*
X37633460Y31225500D01*
X37637254Y30738667D01*
X38014460Y31159682D01*
X38205959Y31382596D01*
X38341726Y31558147D01*
X38391666Y31646515D01*
X38315958Y31685776D01*
X38124417Y31709320D01*
X38010666Y31712334D01*
X37629666Y31712334D01*
X37460333Y31712334D01*
X37121666Y31712334D01*
X36909498Y31692022D01*
X36791603Y31641259D01*
X36783000Y31620750D01*
X36203566Y31620750D01*
X36149317Y31662027D01*
X35980297Y31705738D01*
X35804992Y31714678D01*
X35693440Y31680900D01*
X35682333Y31655000D01*
X35235854Y31655000D01*
X35061739Y31710422D01*
X35017446Y31712334D01*
X34833774Y31690319D01*
X34751337Y31636928D01*
X34751000Y31632924D01*
X34296718Y31632924D01*
X34273751Y31650750D01*
X33736538Y32212899D01*
X33278426Y32842189D01*
X33011818Y33342167D01*
X33311983Y33342167D01*
X33366525Y33185396D01*
X33509001Y32946103D01*
X33709223Y32663092D01*
X33936998Y32375169D01*
X34162137Y32121136D01*
X34354450Y31939800D01*
X34451343Y31877705D01*
X34667144Y31821657D01*
X34900227Y31803382D01*
X35075318Y31826324D01*
X35111907Y31847464D01*
X35094774Y31937797D01*
X34998198Y32119151D01*
X34884663Y32291964D01*
X34682561Y32594132D01*
X34485688Y32912562D01*
X34409387Y33045834D01*
X34285949Y33254763D01*
X34246619Y33291794D01*
X34497000Y33291794D01*
X34543288Y33160777D01*
X34664069Y32936784D01*
X34832213Y32662289D01*
X35020591Y32379766D01*
X35202074Y32131691D01*
X35343437Y31966563D01*
X35558938Y31841669D01*
X35812473Y31814284D01*
X36036447Y31883490D01*
X36120560Y31965542D01*
X37012104Y31965542D01*
X37033657Y31841262D01*
X37192158Y31808559D01*
X37235489Y31813325D01*
X37338449Y31847158D01*
X37396260Y31938844D01*
X37424242Y32129513D01*
X37431356Y32282106D01*
X37628959Y32282106D01*
X37637513Y32021565D01*
X37680354Y31861479D01*
X37690014Y31849542D01*
X37804335Y31818290D01*
X38022659Y31809634D01*
X38134514Y31814264D01*
X38328913Y31832130D01*
X38462140Y31876286D01*
X38496281Y31908699D01*
X38863578Y31908699D01*
X38865044Y31869191D01*
X38979653Y31816779D01*
X39190996Y31799176D01*
X39430244Y31815644D01*
X39628570Y31865445D01*
X39654152Y31877646D01*
X39665173Y31887316D01*
X40000333Y31887316D01*
X40063506Y31803722D01*
X40222627Y31802526D01*
X40432094Y31873184D01*
X40646308Y32005154D01*
X40697497Y32048519D01*
X40860695Y32203175D01*
X40906178Y32277088D01*
X40844169Y32300450D01*
X40783500Y32302519D01*
X40629796Y32352851D01*
X40593000Y32432000D01*
X40552622Y32544749D01*
X40518382Y32559000D01*
X40422714Y32495447D01*
X40281618Y32340889D01*
X40136861Y32149480D01*
X40030208Y31975374D01*
X40000333Y31887316D01*
X39665173Y31887316D01*
X39778730Y31986951D01*
X39954473Y32192197D01*
X40124079Y32421813D01*
X40293036Y32675678D01*
X40376541Y32842100D01*
X40388586Y32970693D01*
X40343162Y33111071D01*
X40328158Y33145501D01*
X40238082Y33307840D01*
X40118344Y33383697D01*
X39907513Y33405080D01*
X39828866Y33405667D01*
X39444735Y33405667D01*
X39132582Y32673524D01*
X39001422Y32348224D01*
X38907527Y32080573D01*
X38863578Y31908699D01*
X38496281Y31908699D01*
X38570305Y31978974D01*
X38689516Y32172439D01*
X38826327Y32432000D01*
X39032740Y32831572D01*
X39158378Y33103617D01*
X39197113Y33272601D01*
X39142813Y33362991D01*
X38989350Y33399254D01*
X38730594Y33405855D01*
X38582386Y33405667D01*
X37915029Y33405667D01*
X37772347Y33106461D01*
X37700045Y32880554D01*
X37651026Y32587102D01*
X37628959Y32282106D01*
X37431356Y32282106D01*
X37434397Y32347334D01*
X37438267Y32608649D01*
X37426065Y32713350D01*
X37395355Y32673606D01*
X37378825Y32624768D01*
X37271903Y32388215D01*
X37130748Y32170316D01*
X37012104Y31965542D01*
X36120560Y31965542D01*
X36132561Y31977248D01*
X36158821Y32096477D01*
X36119298Y32292370D01*
X36006649Y32594074D01*
X35935299Y32760415D01*
X35719917Y33250513D01*
X35916638Y33250513D01*
X35970183Y33070742D01*
X36036980Y32897667D01*
X36141430Y32663408D01*
X36223587Y32509673D01*
X36255102Y32474334D01*
X36271029Y32548822D01*
X36260822Y32735869D01*
X36250234Y32825203D01*
X36166194Y33130799D01*
X36019840Y33294798D01*
X35919858Y33319704D01*
X35916638Y33250513D01*
X35719917Y33250513D01*
X35651731Y33405667D01*
X35074365Y33405667D01*
X34746564Y33395859D01*
X34562598Y33363209D01*
X34497930Y33302876D01*
X34497000Y33291794D01*
X34246619Y33291794D01*
X34172567Y33361515D01*
X34007518Y33400383D01*
X33761742Y33405667D01*
X33511660Y33394884D01*
X33348383Y33367156D01*
X33311983Y33342167D01*
X33011818Y33342167D01*
X32927607Y33500089D01*
X32717346Y34125381D01*
X32654905Y34550414D01*
X32627937Y35075934D01*
X32630590Y35278064D01*
X32862938Y35278064D01*
X32914193Y34729182D01*
X32961980Y34384815D01*
X33032670Y34060880D01*
X33091904Y33877650D01*
X33178012Y33698192D01*
X33278206Y33608802D01*
X33449760Y33578198D01*
X33646013Y33575000D01*
X33888627Y33586310D01*
X34042925Y33615257D01*
X34072244Y33638500D01*
X34055674Y33744629D01*
X34012475Y33975777D01*
X33950395Y34291154D01*
X33915447Y34464000D01*
X33808731Y34987368D01*
X33989000Y34987368D01*
X34014688Y34738483D01*
X34080716Y34421942D01*
X34170531Y34098218D01*
X34267578Y33827779D01*
X34346672Y33680834D01*
X34487018Y33618176D01*
X34768505Y33582149D01*
X35019203Y33575000D01*
X35605339Y33575000D01*
X35549597Y33892500D01*
X35479106Y34287936D01*
X35442326Y34453391D01*
X35611217Y34453391D01*
X35632315Y34368828D01*
X35701836Y34275111D01*
X35786708Y34322843D01*
X35840998Y34438429D01*
X35785344Y34521856D01*
X35672548Y34581389D01*
X35630951Y34567841D01*
X35611217Y34453391D01*
X35442326Y34453391D01*
X35420087Y34553427D01*
X35352342Y34725372D01*
X35255673Y34840170D01*
X35109879Y34934222D01*
X34916808Y35032805D01*
X34673592Y35139458D01*
X35544384Y35139458D01*
X35546274Y35134409D01*
X35592835Y34943681D01*
X35597666Y34880409D01*
X35662917Y34785388D01*
X35809607Y34764825D01*
X35964137Y34825072D01*
X35988773Y34846641D01*
X36124410Y34876381D01*
X36354605Y34833892D01*
X36632002Y34739322D01*
X36909245Y34612826D01*
X37138980Y34474553D01*
X37273850Y34344655D01*
X37291000Y34292493D01*
X37337409Y34181224D01*
X37375666Y34167667D01*
X37419910Y34245425D01*
X37450201Y34451407D01*
X37460333Y34718000D01*
X37460333Y35268334D01*
X37629666Y35268334D01*
X37629666Y34689257D01*
X37634747Y34378979D01*
X37659192Y34193883D01*
X37716807Y34089911D01*
X37821398Y34023002D01*
X37841333Y34013739D01*
X38007710Y33877390D01*
X38053000Y33746149D01*
X38067654Y33658464D01*
X38135116Y33607129D01*
X38290633Y33582583D01*
X38569454Y33575265D01*
X38684020Y33575000D01*
X39315040Y33575000D01*
X39496566Y33575000D01*
X39917783Y33575000D01*
X40174064Y33585553D01*
X40300623Y33626367D01*
X40336259Y33711181D01*
X40336307Y33723167D01*
X40284589Y33908846D01*
X40283311Y33911034D01*
X41724576Y33911034D01*
X41740587Y33821578D01*
X41808019Y33773685D01*
X41871654Y33876954D01*
X41927656Y34049660D01*
X41941715Y34122310D01*
X41898366Y34136319D01*
X41810648Y34066935D01*
X41724576Y33911034D01*
X40283311Y33911034D01*
X40215122Y34027730D01*
X40139044Y34198405D01*
X40142206Y34302897D01*
X40137310Y34406679D01*
X40100983Y34421667D01*
X39949556Y34449961D01*
X39881434Y34472607D01*
X39766888Y34457825D01*
X39669584Y34307546D01*
X39581949Y34007570D01*
X39549375Y33850167D01*
X39496566Y33575000D01*
X39315040Y33575000D01*
X39403214Y33892500D01*
X39473803Y34184146D01*
X39481439Y34348262D01*
X39424453Y34415172D01*
X39374104Y34421667D01*
X39257553Y34474460D01*
X39104361Y34605223D01*
X38950443Y34772535D01*
X38866536Y34887334D01*
X41947666Y34887334D01*
X41990000Y34845000D01*
X42032333Y34887334D01*
X41990000Y34929667D01*
X41947666Y34887334D01*
X38866536Y34887334D01*
X38831715Y34934975D01*
X38784091Y35051121D01*
X38802624Y35080764D01*
X38858721Y35131797D01*
X41722770Y35131797D01*
X41736000Y35099000D01*
X41812082Y35018230D01*
X41825663Y35014334D01*
X41862029Y35079840D01*
X41863000Y35099000D01*
X41797912Y35180414D01*
X41773336Y35183667D01*
X41722770Y35131797D01*
X38858721Y35131797D01*
X38894655Y35164487D01*
X38899666Y35190723D01*
X38821925Y35227819D01*
X38616281Y35255261D01*
X38324101Y35267994D01*
X38264666Y35268334D01*
X37629666Y35268334D01*
X37460333Y35268334D01*
X36998650Y35268334D01*
X36692532Y35250068D01*
X36423414Y35203472D01*
X36319020Y35169030D01*
X36130458Y35112104D01*
X36008080Y35162893D01*
X36001770Y35169030D01*
X35843088Y35247759D01*
X35698674Y35268334D01*
X35552802Y35239668D01*
X35544384Y35139458D01*
X34673592Y35139458D01*
X34627173Y35159813D01*
X34361587Y35244923D01*
X34221833Y35266915D01*
X34062115Y35247594D01*
X33998885Y35152649D01*
X33989000Y34987368D01*
X33808731Y34987368D01*
X33760072Y35226000D01*
X32862938Y35278064D01*
X32630590Y35278064D01*
X32635311Y35637567D01*
X32637624Y35667964D01*
X32863497Y35667964D01*
X32884394Y35519865D01*
X32963192Y35438116D01*
X32964061Y35437606D01*
X33167329Y35375376D01*
X33426550Y35359567D01*
X33650209Y35392618D01*
X33705825Y35417844D01*
X33755381Y35525407D01*
X33771695Y35602236D01*
X33962937Y35602236D01*
X34002810Y35464114D01*
X34006873Y35458834D01*
X34124275Y35363267D01*
X34260733Y35395763D01*
X34317003Y35429285D01*
X34380879Y35504943D01*
X34365834Y35570320D01*
X34967062Y35570320D01*
X34967805Y35426945D01*
X34988913Y35397310D01*
X35121584Y35359362D01*
X35257375Y35438643D01*
X35328388Y35586699D01*
X35322515Y35638045D01*
X35513000Y35638045D01*
X35539461Y35470697D01*
X35597519Y35391850D01*
X35655186Y35433602D01*
X35669106Y35481398D01*
X35646122Y35656163D01*
X35605606Y35717594D01*
X35532729Y35748348D01*
X35513000Y35638045D01*
X35322515Y35638045D01*
X35311257Y35736468D01*
X35231582Y35762684D01*
X35863180Y35762684D01*
X35867829Y35560141D01*
X35984744Y35430755D01*
X36042166Y35412753D01*
X36395645Y35372873D01*
X36797986Y35367651D01*
X37150067Y35397676D01*
X37195750Y35405917D01*
X37460333Y35458834D01*
X37460333Y36251073D01*
X37629666Y36251073D01*
X37631744Y35860216D01*
X37653852Y35607636D01*
X37719797Y35462318D01*
X37853390Y35393249D01*
X38078439Y35369414D01*
X38311557Y35362822D01*
X38570354Y35374249D01*
X38757578Y35447911D01*
X38889176Y35562102D01*
X41461564Y35562102D01*
X41478518Y35527967D01*
X41559251Y35440434D01*
X41574102Y35502163D01*
X41553549Y35568319D01*
X41491216Y35660525D01*
X41463062Y35658618D01*
X41461564Y35562102D01*
X38889176Y35562102D01*
X38953952Y35618309D01*
X38986060Y35651116D01*
X39167003Y35862478D01*
X39247280Y36051122D01*
X39259678Y36298562D01*
X39258501Y36328449D01*
X39259299Y36386730D01*
X39763321Y36386730D01*
X39787100Y36305774D01*
X39947633Y36284334D01*
X40148176Y36235818D01*
X40250410Y36162061D01*
X40398490Y36071846D01*
X40628092Y36011314D01*
X40662944Y36006960D01*
X40886011Y35981692D01*
X41031840Y35962057D01*
X41043708Y35959900D01*
X41089194Y36014657D01*
X41085311Y36093834D01*
X41070376Y36115000D01*
X41270333Y36115000D01*
X41299220Y36032535D01*
X41307669Y36030334D01*
X41379955Y36089663D01*
X41397333Y36115000D01*
X41390620Y36193019D01*
X41359996Y36199667D01*
X41273778Y36138207D01*
X41270333Y36115000D01*
X41070376Y36115000D01*
X41011036Y36199094D01*
X40817072Y36255588D01*
X40691044Y36268380D01*
X40452233Y36303200D01*
X40363523Y36366660D01*
X40367574Y36406010D01*
X40333136Y36519820D01*
X40213427Y36606945D01*
X40035812Y36649987D01*
X39896126Y36563121D01*
X39881461Y36547315D01*
X39763321Y36386730D01*
X39259299Y36386730D01*
X39261853Y36572971D01*
X39307123Y36686715D01*
X39373373Y36707667D01*
X39472907Y36771249D01*
X39476371Y36855834D01*
X39443271Y36922773D01*
X39354673Y36968224D01*
X39180947Y36997629D01*
X38892464Y37016429D01*
X38538829Y37028032D01*
X37629666Y37052063D01*
X37629666Y36251073D01*
X37460333Y36251073D01*
X37460333Y37046334D01*
X37173058Y37046334D01*
X36941808Y37009065D01*
X36837048Y36919334D01*
X36726337Y36806742D01*
X36663019Y36792334D01*
X36506616Y36732147D01*
X36321276Y36588434D01*
X36166792Y36416469D01*
X36102973Y36274625D01*
X36052675Y36118379D01*
X35975973Y35992985D01*
X35863180Y35762684D01*
X35231582Y35762684D01*
X35190096Y35776334D01*
X35054623Y35712148D01*
X34967062Y35570320D01*
X34365834Y35570320D01*
X34352278Y35629224D01*
X34277582Y35766656D01*
X34160997Y35940210D01*
X34074641Y36027782D01*
X34065282Y36030334D01*
X34001640Y35958412D01*
X33965036Y35791358D01*
X33962937Y35602236D01*
X33771695Y35602236D01*
X33805563Y35761728D01*
X33848771Y36086435D01*
X33864912Y36263215D01*
X33926174Y37046334D01*
X33547655Y37046334D01*
X33311298Y37037369D01*
X33184673Y36981679D01*
X33108218Y36836066D01*
X33064063Y36695631D01*
X32983686Y36383920D01*
X32910803Y36032176D01*
X32893556Y35930995D01*
X32863497Y35667964D01*
X32637624Y35667964D01*
X32675899Y36170937D01*
X32748568Y36611670D01*
X32761938Y36664956D01*
X32981549Y37249058D01*
X33351187Y37249058D01*
X33444969Y37158390D01*
X33629782Y37171235D01*
X33803112Y37218711D01*
X33878618Y37246397D01*
X33877016Y37332030D01*
X33854284Y37532264D01*
X33833009Y37684015D01*
X33818683Y37780327D01*
X35952488Y37780327D01*
X36043534Y37726732D01*
X36096608Y37723667D01*
X36263335Y37797955D01*
X36349548Y38010896D01*
X36359666Y38153925D01*
X36403916Y38295392D01*
X36518883Y38316446D01*
X36677893Y38235200D01*
X36854272Y38069766D01*
X37021345Y37838253D01*
X37123090Y37635563D01*
X37190016Y37433886D01*
X37170459Y37337774D01*
X37137868Y37319846D01*
X37073220Y37242189D01*
X37083802Y37208436D01*
X37143564Y37140420D01*
X37240017Y37150737D01*
X37326408Y37182392D01*
X37419986Y37307265D01*
X37456629Y37559698D01*
X37629666Y37559698D01*
X37641443Y37342739D01*
X37703922Y37240438D01*
X37857828Y37198413D01*
X37904833Y37192248D01*
X38448063Y37146185D01*
X38838438Y37161514D01*
X39073679Y37238100D01*
X39105285Y37264048D01*
X39205702Y37456343D01*
X39216391Y37696214D01*
X39151344Y37927973D01*
X39024555Y38095935D01*
X38883419Y38147000D01*
X38732837Y38204813D01*
X38663161Y38332876D01*
X38703535Y38463127D01*
X38736710Y38489609D01*
X38804352Y38583199D01*
X38787530Y38626025D01*
X38674498Y38637911D01*
X38558298Y38588295D01*
X38375341Y38505137D01*
X38274178Y38485667D01*
X38158805Y38418486D01*
X38018633Y38251106D01*
X37979551Y38189334D01*
X37849791Y38002729D01*
X37740110Y37899947D01*
X37717188Y37893000D01*
X37662025Y37817975D01*
X37631689Y37630889D01*
X37629666Y37559698D01*
X37456629Y37559698D01*
X37460021Y37583064D01*
X37445831Y37999842D01*
X37406491Y38346850D01*
X37363091Y38663492D01*
X38997764Y38663492D01*
X39032982Y38560163D01*
X39111333Y38485667D01*
X39212963Y38321164D01*
X39238333Y38180919D01*
X39313321Y37973531D01*
X39450000Y37842881D01*
X39601669Y37712984D01*
X39661666Y37603863D01*
X39728276Y37431781D01*
X39884635Y37360250D01*
X40008588Y37389419D01*
X40157356Y37492496D01*
X40207720Y37547410D01*
X40180411Y37639000D01*
X40466000Y37639000D01*
X40472712Y37560982D01*
X40503336Y37554334D01*
X40589554Y37615794D01*
X40593000Y37639000D01*
X40564113Y37721466D01*
X40555663Y37723667D01*
X40483377Y37664338D01*
X40466000Y37639000D01*
X40180411Y37639000D01*
X40179259Y37642862D01*
X40047037Y37775275D01*
X40023082Y37793332D01*
X39952082Y37850667D01*
X40677666Y37850667D01*
X40720000Y37808334D01*
X40762333Y37850667D01*
X40720000Y37893000D01*
X40677666Y37850667D01*
X39952082Y37850667D01*
X39872586Y37914862D01*
X39862381Y37949445D01*
X40959888Y37949445D01*
X40971511Y37899111D01*
X41016333Y37893000D01*
X41086023Y37923979D01*
X41072777Y37949445D01*
X40972298Y37959578D01*
X40959888Y37949445D01*
X39862381Y37949445D01*
X39846797Y38002250D01*
X39921708Y38104667D01*
X40508333Y38104667D01*
X40550666Y38062334D01*
X40593000Y38104667D01*
X40550666Y38147000D01*
X40508333Y38104667D01*
X39921708Y38104667D01*
X39930136Y38116189D01*
X39937979Y38124878D01*
X40063291Y38298047D01*
X40054928Y38439093D01*
X39944877Y38584834D01*
X39778756Y38687501D01*
X40113769Y38687501D01*
X40127333Y38655000D01*
X40239492Y38573495D01*
X40264326Y38570334D01*
X40310230Y38622500D01*
X40296666Y38655000D01*
X40184507Y38736506D01*
X40159673Y38739667D01*
X40113769Y38687501D01*
X39778756Y38687501D01*
X39764661Y38696212D01*
X39469514Y38738557D01*
X39394544Y38739667D01*
X39116276Y38721524D01*
X38997764Y38663492D01*
X37363091Y38663492D01*
X37352650Y38739667D01*
X36911614Y38739667D01*
X36610097Y38719136D01*
X36400420Y38635285D01*
X36233259Y38454727D01*
X36073543Y38172372D01*
X35962929Y37920368D01*
X35952488Y37780327D01*
X33818683Y37780327D01*
X33784692Y38008826D01*
X35687958Y38008826D01*
X35753409Y37977667D01*
X35835116Y38046324D01*
X35929828Y38208868D01*
X35997242Y38365415D01*
X35978567Y38383775D01*
X35858751Y38280413D01*
X35716761Y38119177D01*
X35687958Y38008826D01*
X33784692Y38008826D01*
X33770434Y38104667D01*
X33535015Y37736956D01*
X33380795Y37444346D01*
X33351187Y37249058D01*
X32981549Y37249058D01*
X33053444Y37440275D01*
X33490688Y38158426D01*
X34054433Y38800418D01*
X34293087Y38994911D01*
X36613666Y38994911D01*
X36689811Y38945904D01*
X36884502Y38914799D01*
X37037000Y38909000D01*
X37460333Y38909000D01*
X37460333Y39078334D01*
X39069000Y39078334D01*
X39118608Y38945549D01*
X39280666Y38909000D01*
X39439797Y38936970D01*
X39492333Y38990688D01*
X39426773Y39084343D01*
X39282291Y39187295D01*
X39137188Y39245950D01*
X39116899Y39247667D01*
X39077927Y39176487D01*
X39069000Y39078334D01*
X37460333Y39078334D01*
X37460333Y39194967D01*
X37421170Y39429313D01*
X37356133Y39540445D01*
X39197532Y39540445D01*
X39268728Y39437948D01*
X39418504Y39300193D01*
X39613442Y39152935D01*
X39820126Y39021929D01*
X40005140Y38932930D01*
X40111163Y38909230D01*
X40269810Y38934131D01*
X40295576Y38995431D01*
X40183617Y39095749D01*
X39972101Y39233982D01*
X39715334Y39380002D01*
X39467626Y39503683D01*
X39283283Y39574898D01*
X39238333Y39581929D01*
X39197532Y39540445D01*
X37356133Y39540445D01*
X37325465Y39592848D01*
X37324016Y39594066D01*
X37226962Y39645295D01*
X37121608Y39608697D01*
X36966403Y39464637D01*
X36900683Y39394010D01*
X36734805Y39197098D01*
X36631145Y39043434D01*
X36613666Y38994911D01*
X34293087Y38994911D01*
X34397945Y39080365D01*
X35744029Y39080365D01*
X35768768Y39039847D01*
X35928419Y39033257D01*
X36011226Y39035047D01*
X36207262Y39056248D01*
X36370850Y39128181D01*
X36550220Y39280529D01*
X36741047Y39484208D01*
X36924939Y39699642D01*
X37040289Y39856670D01*
X37064627Y39924339D01*
X37061031Y39925000D01*
X36943807Y39881508D01*
X36731745Y39769138D01*
X36469472Y39615052D01*
X36201613Y39446411D01*
X35972796Y39290376D01*
X35828191Y39174647D01*
X35744029Y39080365D01*
X34397945Y39080365D01*
X34625625Y39265913D01*
X35224218Y39265913D01*
X35262602Y39200994D01*
X35321826Y39139709D01*
X35388695Y39124337D01*
X35495748Y39168132D01*
X35675524Y39284349D01*
X35957500Y39484052D01*
X36172929Y39642856D01*
X36318881Y39759628D01*
X36359666Y39802187D01*
X36290141Y39799036D01*
X36113257Y39744942D01*
X35876553Y39657377D01*
X35627567Y39553814D01*
X35431967Y39461213D01*
X35259984Y39354370D01*
X35224218Y39265913D01*
X34625625Y39265913D01*
X34725445Y39347261D01*
X35484487Y39779966D01*
X36184533Y40043843D01*
X36635522Y40132735D01*
X37186670Y40176435D01*
X37775092Y40175486D01*
D12*
X10875000Y32813000D03*
X1477000Y32813000D03*
D13*
X35640000Y28368000D03*
X43260000Y28368000D03*
X43260000Y25828000D03*
X35640000Y25828000D03*
D14*
X15320000Y32178000D03*
D15*
X15320000Y19478000D03*
D16*
X30560000Y33448000D03*
X25480000Y33448000D03*
D17*
X24210000Y28368000D03*
D18*
X24210000Y25828000D03*
X24210000Y23288000D03*
X24210000Y20748000D03*
X31830000Y20748000D03*
X31830000Y23288000D03*
X31830000Y25828000D03*
X31830000Y28368000D03*
D19*
X29290000Y13128000D03*
D16*
X26750000Y13128000D03*
X26750000Y10588000D03*
D13*
X43260000Y23288000D03*
X35640000Y23288000D03*
D20*
X7700000Y15668000D03*
D21*
X7700000Y10588000D03*
D22*
X6430000Y28368000D03*
D13*
X6430000Y23288000D03*
D20*
X40720000Y15668000D03*
D21*
X40720000Y10588000D03*
D23*
X37545000Y35353000D03*
D13*
X35640000Y20748000D03*
X43260000Y20748000D03*
X24210000Y16938000D03*
X31830000Y16938000D03*
D24*
X49610000Y21778000D03*
X-390000Y21778000D03*
D25*
X31115000Y5080000D03*
D26*
X28575000Y5080000D03*
X26035000Y5080000D03*
X23495000Y5080000D03*
X20955000Y5080000D03*
X18415000Y5080000D03*
X15875000Y5080000D03*
D13*
X23495000Y38100000D03*
X31115000Y38100000D03*
X45720000Y33655000D03*
X45720000Y31115000D03*
D27*
X17860000Y10588000D03*
X20400000Y10588000D03*
X17860000Y13128000D03*
X20400000Y13128000D03*
X17860000Y15668000D03*
X20400000Y15668000D03*
D28*
X23749000Y31623000D03*
D10*
X26750000Y10588000D02*
X26115000Y10588000D01*
X26115000Y10588000D02*
X25146000Y11557000D01*
X26162000Y18796000D02*
X24210000Y20748000D01*
X26162000Y16002000D02*
X26162000Y18796000D01*
X25146000Y14986000D02*
X26162000Y16002000D01*
X25146000Y11557000D02*
X25146000Y14986000D01*
X40720000Y15668000D02*
X40720000Y20367000D01*
X40720000Y20367000D02*
X37799000Y23288000D01*
X37799000Y23288000D02*
X35640000Y23288000D01*
X20400000Y15668000D02*
X20400000Y26877000D01*
X20400000Y26877000D02*
X21891000Y28368000D01*
X21891000Y28368000D02*
X24210000Y28368000D01*
X20955000Y5080000D02*
X20955000Y10033000D01*
X20955000Y10033000D02*
X20400000Y10588000D01*
X18415000Y6477000D02*
X18415000Y5080000D01*
X15621000Y9271000D02*
X18415000Y6477000D01*
X15621000Y11938000D02*
X15621000Y9271000D01*
X17860000Y13128000D02*
X16811000Y13128000D01*
X16811000Y13128000D02*
X15621000Y11938000D01*
X26115000Y4873000D02*
X26115000Y3984000D01*
X26115000Y3984000D02*
X26877000Y3222000D01*
X26877000Y3222000D02*
X36783000Y3222000D01*
X36783000Y3222000D02*
X43260000Y9699000D01*
X43260000Y9699000D02*
X43260000Y20748000D01*
X43260000Y23288000D02*
X41228000Y23288000D01*
X25988000Y25828000D02*
X24210000Y25828000D01*
X26623000Y26463000D02*
X25988000Y25828000D01*
X26623000Y29638000D02*
X26623000Y26463000D01*
X28528000Y31543000D02*
X26623000Y29638000D01*
X33608000Y31543000D02*
X28528000Y31543000D01*
X35132000Y30019000D02*
X33608000Y31543000D01*
X36656000Y30019000D02*
X35132000Y30019000D01*
X37545000Y29130000D02*
X36656000Y30019000D01*
X37545000Y26971000D02*
X37545000Y29130000D01*
X41228000Y23288000D02*
X37545000Y26971000D01*
X21416000Y13128000D02*
X20400000Y13128000D01*
X20400000Y13128000D02*
X20621000Y13128000D01*
X23495000Y5080000D02*
X23495000Y11049000D01*
X23495000Y11049000D02*
X21416000Y13128000D01*
X23749000Y31623000D02*
X23495000Y31877000D01*
X23495000Y31877000D02*
X23495000Y38100000D01*
X28655000Y4873000D02*
X28655000Y6651000D01*
X33735000Y11731000D02*
X33735000Y16176000D01*
X28655000Y6651000D02*
X33735000Y11731000D01*
X33735000Y16176000D02*
X33735000Y23923000D01*
X33735000Y23923000D02*
X35640000Y25828000D01*
X24210000Y23288000D02*
X25607000Y23288000D01*
X33354000Y30654000D02*
X35640000Y28368000D01*
X29544000Y30654000D02*
X33354000Y30654000D01*
X27893000Y29003000D02*
X29544000Y30654000D01*
X27893000Y25574000D02*
X27893000Y29003000D01*
X25607000Y23288000D02*
X27893000Y25574000D01*
D29*
G36*
X45451091Y39468959D02*
X45438279Y39438105D01*
X45427261Y39432582D01*
X45280050Y39057046D01*
X45125372Y38684541D01*
X45125353Y38662414D01*
X45117277Y38641813D01*
X45124982Y38238546D01*
X45124630Y37835185D01*
X45133080Y37814734D01*
X45133503Y37792613D01*
X45397649Y37154908D01*
X42893524Y36414764D01*
X42874173Y36568114D01*
X42861436Y36606309D01*
X42859265Y36646514D01*
X42750718Y37071091D01*
X42734680Y37104579D01*
X42728438Y37141177D01*
X42658526Y37323989D01*
X42645351Y37344928D01*
X42639343Y37368928D01*
X42364953Y37949304D01*
X42337301Y37986601D01*
X42319676Y38029553D01*
X42199825Y38210219D01*
X44009606Y40020000D01*
X46003094Y40020000D01*
X45451091Y39468959D01*
X45451091Y39468959D01*
G37*
X45451091Y39468959D02*
X45438279Y39438105D01*
X45427261Y39432582D01*
X45280050Y39057046D01*
X45125372Y38684541D01*
X45125353Y38662414D01*
X45117277Y38641813D01*
X45124982Y38238546D01*
X45124630Y37835185D01*
X45133080Y37814734D01*
X45133503Y37792613D01*
X45397649Y37154908D01*
X42893524Y36414764D01*
X42874173Y36568114D01*
X42861436Y36606309D01*
X42859265Y36646514D01*
X42750718Y37071091D01*
X42734680Y37104579D01*
X42728438Y37141177D01*
X42658526Y37323989D01*
X42645351Y37344928D01*
X42639343Y37368928D01*
X42364953Y37949304D01*
X42337301Y37986601D01*
X42319676Y38029553D01*
X42199825Y38210219D01*
X44009606Y40020000D01*
X46003094Y40020000D01*
X45451091Y39468959D01*
G36*
X52916563Y39377276D02*
X50318452Y38609352D01*
X50176057Y39325223D01*
X50104105Y39498929D01*
X50070042Y39581164D01*
X49528110Y40392222D01*
X49431026Y40489306D01*
X49356304Y40564029D01*
X52916563Y39377276D01*
X52916563Y39377276D01*
G37*
X52916563Y39377276D02*
X50318452Y38609352D01*
X50176057Y39325223D01*
X50104105Y39498929D01*
X50070042Y39581164D01*
X49528110Y40392222D01*
X49431026Y40489306D01*
X49356304Y40564029D01*
X52916563Y39377276D01*
G36*
X46728390Y41440000D02*
X45429606Y41440000D01*
X45754302Y41764696D01*
X46728390Y41440000D01*
X46728390Y41440000D01*
G37*
X46728390Y41440000D02*
X45429606Y41440000D01*
X45754302Y41764696D01*
X46728390Y41440000D01*
G36*
X40991260Y39576604D02*
X40878861Y39677489D01*
X40834204Y39703962D01*
X40796806Y39739972D01*
X40360056Y40020000D01*
X41304881Y40020000D01*
X40991260Y39576604D01*
X40991260Y39576604D01*
G37*
X40991260Y39576604D02*
X40878861Y39677489D01*
X40834204Y39703962D01*
X40796806Y39739972D01*
X40360056Y40020000D01*
X41304881Y40020000D01*
X40991260Y39576604D01*
G36*
X42309272Y41440000D02*
X39323175Y41440000D01*
X39404333Y42211000D01*
X42854613Y42211000D01*
X42309272Y41440000D01*
X42309272Y41440000D01*
G37*
X42309272Y41440000D02*
X39323175Y41440000D01*
X39404333Y42211000D01*
X42854613Y42211000D01*
X42309272Y41440000D01*
G36*
X37441997Y41440000D02*
X34444765Y41440000D01*
X33137117Y43532237D01*
X37266705Y44712119D01*
X37441997Y41440000D01*
X37441997Y41440000D01*
G37*
X37441997Y41440000D02*
X34444765Y41440000D01*
X33137117Y43532237D01*
X37266705Y44712119D01*
X37441997Y41440000D01*
G36*
X33337322Y38953719D02*
X33009783Y38580718D01*
X32981827Y38532369D01*
X32944038Y38491252D01*
X32766087Y38198977D01*
X32766286Y38426963D01*
X32515466Y39033995D01*
X32051437Y39498834D01*
X31444845Y39750713D01*
X30788037Y39751286D01*
X30181005Y39500466D01*
X29716166Y39036437D01*
X29464287Y38429845D01*
X29464134Y38254745D01*
X24450383Y39479855D01*
X24431437Y39498834D01*
X23824845Y39750713D01*
X23340167Y39751136D01*
X22239843Y40020000D01*
X32065268Y40020000D01*
X33337322Y38953719D01*
X33337322Y38953719D01*
G37*
X33337322Y38953719D02*
X33009783Y38580718D01*
X32981827Y38532369D01*
X32944038Y38491252D01*
X32766087Y38198977D01*
X32766286Y38426963D01*
X32515466Y39033995D01*
X32051437Y39498834D01*
X31444845Y39750713D01*
X30788037Y39751286D01*
X30181005Y39500466D01*
X29716166Y39036437D01*
X29464287Y38429845D01*
X29464134Y38254745D01*
X24450383Y39479855D01*
X24431437Y39498834D01*
X23824845Y39750713D01*
X23340167Y39751136D01*
X22239843Y40020000D01*
X32065268Y40020000D01*
X33337322Y38953719D01*
G36*
X30371233Y41440000D02*
X16428506Y41440000D01*
X14587777Y41889782D01*
X27188752Y44107668D01*
X30371233Y41440000D01*
X30371233Y41440000D01*
G37*
X30371233Y41440000D02*
X16428506Y41440000D01*
X14587777Y41889782D01*
X27188752Y44107668D01*
X30371233Y41440000D01*
G36*
X54338203Y-2620000D02*
X39412983Y-2620000D01*
X39328126Y20000D01*
X47170000Y20000D01*
X47238584Y33642D01*
X47308514Y33642D01*
X48265223Y223943D01*
X48446200Y298907D01*
X48521164Y329958D01*
X49332222Y871889D01*
X49528110Y1067778D01*
X50070042Y1878836D01*
X50139715Y2047041D01*
X50176057Y2134777D01*
X50366358Y3091486D01*
X50366358Y3161416D01*
X50380000Y3230000D01*
X50380000Y6714762D01*
X54338203Y-2620000D01*
X54338203Y-2620000D01*
G37*
X54338203Y-2620000D02*
X39412983Y-2620000D01*
X39328126Y20000D01*
X47170000Y20000D01*
X47238584Y33642D01*
X47308514Y33642D01*
X48265223Y223943D01*
X48446200Y298907D01*
X48521164Y329958D01*
X49332222Y871889D01*
X49528110Y1067778D01*
X50070042Y1878836D01*
X50139715Y2047041D01*
X50176057Y2134777D01*
X50366358Y3091486D01*
X50366358Y3161416D01*
X50380000Y3230000D01*
X50380000Y6714762D01*
X54338203Y-2620000D01*
G36*
X44865879Y18182934D02*
X45979007Y16517020D01*
X46320248Y16289010D01*
X48960000Y10063595D01*
X48960000Y4577014D01*
X48470959Y5066909D01*
X48440105Y5079721D01*
X48434582Y5090739D01*
X48059046Y5237950D01*
X47686541Y5392628D01*
X47664414Y5392647D01*
X47643813Y5400723D01*
X47240546Y5393018D01*
X46837185Y5393370D01*
X46816734Y5384920D01*
X46794613Y5384497D01*
X46085418Y5090739D01*
X46080365Y5080657D01*
X46052200Y5069020D01*
X45451091Y4468959D01*
X45438279Y4438105D01*
X45427261Y4432582D01*
X45280050Y4057046D01*
X45125372Y3684541D01*
X45125353Y3662414D01*
X45117277Y3641813D01*
X45124982Y3238546D01*
X45124630Y2835185D01*
X45133080Y2814734D01*
X45133503Y2792613D01*
X45427261Y2083418D01*
X45437343Y2078365D01*
X45448980Y2050200D01*
X46049041Y1449091D01*
X46070935Y1440000D01*
X39282483Y1440000D01*
X39188126Y4375547D01*
X43885787Y9073208D01*
X43885790Y9073210D01*
X44077633Y9360325D01*
X44109200Y9519021D01*
X44145001Y9699000D01*
X44145000Y9699005D01*
X44145000Y19327290D01*
X44193995Y19347534D01*
X44561293Y19714192D01*
X44865879Y18182934D01*
X44865879Y18182934D01*
G37*
X44865879Y18182934D02*
X45979007Y16517020D01*
X46320248Y16289010D01*
X48960000Y10063595D01*
X48960000Y4577014D01*
X48470959Y5066909D01*
X48440105Y5079721D01*
X48434582Y5090739D01*
X48059046Y5237950D01*
X47686541Y5392628D01*
X47664414Y5392647D01*
X47643813Y5400723D01*
X47240546Y5393018D01*
X46837185Y5393370D01*
X46816734Y5384920D01*
X46794613Y5384497D01*
X46085418Y5090739D01*
X46080365Y5080657D01*
X46052200Y5069020D01*
X45451091Y4468959D01*
X45438279Y4438105D01*
X45427261Y4432582D01*
X45280050Y4057046D01*
X45125372Y3684541D01*
X45125353Y3662414D01*
X45117277Y3641813D01*
X45124982Y3238546D01*
X45124630Y2835185D01*
X45133080Y2814734D01*
X45133503Y2792613D01*
X45427261Y2083418D01*
X45437343Y2078365D01*
X45448980Y2050200D01*
X46049041Y1449091D01*
X46070935Y1440000D01*
X39282483Y1440000D01*
X39188126Y4375547D01*
X43885787Y9073208D01*
X43885790Y9073210D01*
X44077633Y9360325D01*
X44109200Y9519021D01*
X44145001Y9699000D01*
X44145000Y9699005D01*
X44145000Y19327290D01*
X44193995Y19347534D01*
X44561293Y19714192D01*
X44865879Y18182934D01*
G36*
X39121314Y9521809D02*
X39651021Y8991178D01*
X40343469Y8703648D01*
X41012485Y8703064D01*
X39110173Y6800753D01*
X39014393Y9780578D01*
X39121314Y9521809D01*
X39121314Y9521809D01*
G37*
X39121314Y9521809D02*
X39651021Y8991178D01*
X40343469Y8703648D01*
X41012485Y8703064D01*
X39110173Y6800753D01*
X39014393Y9780578D01*
X39121314Y9521809D01*
G36*
X39006230Y13966879D02*
X39218430Y13821889D01*
X39470320Y13770880D01*
X41969680Y13770880D01*
X42204997Y13815158D01*
X42375000Y13924552D01*
X42375000Y11517900D01*
X42318686Y11654191D01*
X41788979Y12184822D01*
X41096531Y12472352D01*
X40346759Y12473006D01*
X39653809Y12186686D01*
X39123178Y11656979D01*
X38966229Y11279006D01*
X38873188Y14173632D01*
X39006230Y13966879D01*
X39006230Y13966879D01*
G37*
X39006230Y13966879D02*
X39218430Y13821889D01*
X39470320Y13770880D01*
X41969680Y13770880D01*
X42204997Y13815158D01*
X42375000Y13924552D01*
X42375000Y11517900D01*
X42318686Y11654191D01*
X41788979Y12184822D01*
X41096531Y12472352D01*
X40346759Y12473006D01*
X39653809Y12186686D01*
X39123178Y11656979D01*
X38966229Y11279006D01*
X38873188Y14173632D01*
X39006230Y13966879D01*
G36*
X39835000Y20000421D02*
X39835000Y17565120D01*
X39470320Y17565120D01*
X39235003Y17520842D01*
X39018879Y17381770D01*
X38873889Y17169570D01*
X38822880Y16917680D01*
X38822880Y15738768D01*
X38647736Y21187684D01*
X39835000Y20000421D01*
X39835000Y20000421D01*
G37*
X39835000Y20000421D02*
X39835000Y17565120D01*
X39470320Y17565120D01*
X39235003Y17520842D01*
X39018879Y17381770D01*
X38873889Y17169570D01*
X38822880Y16917680D01*
X38822880Y15738768D01*
X38647736Y21187684D01*
X39835000Y20000421D01*
G36*
X40602208Y22662213D02*
X40602210Y22662210D01*
X40794054Y22534025D01*
X40889326Y22470366D01*
X41228000Y22402999D01*
X41228005Y22403000D01*
X41839290Y22403000D01*
X41859534Y22354005D01*
X42195132Y22017821D01*
X41861166Y21684437D01*
X41609287Y21077845D01*
X41608714Y20421037D01*
X41859534Y19814005D01*
X42323563Y19349166D01*
X42375000Y19327807D01*
X42375000Y17409277D01*
X42221570Y17514111D01*
X41969680Y17565120D01*
X41605000Y17565120D01*
X41605000Y20366995D01*
X41605001Y20367000D01*
X41537633Y20705674D01*
X41537633Y20705675D01*
X41345790Y20992790D01*
X41345787Y20992792D01*
X38564606Y23773974D01*
X38533858Y24730562D01*
X40602208Y22662213D01*
X40602208Y22662213D01*
G37*
X40602208Y22662213D02*
X40602210Y22662210D01*
X40794054Y22534025D01*
X40889326Y22470366D01*
X41228000Y22402999D01*
X41228005Y22403000D01*
X41839290Y22403000D01*
X41859534Y22354005D01*
X42195132Y22017821D01*
X41861166Y21684437D01*
X41609287Y21077845D01*
X41608714Y20421037D01*
X41859534Y19814005D01*
X42323563Y19349166D01*
X42375000Y19327807D01*
X42375000Y17409277D01*
X42221570Y17514111D01*
X41969680Y17565120D01*
X41605000Y17565120D01*
X41605000Y20366995D01*
X41605001Y20367000D01*
X41537633Y20705674D01*
X41537633Y20705675D01*
X41345790Y20992790D01*
X41345787Y20992792D01*
X38564606Y23773974D01*
X38533858Y24730562D01*
X40602208Y22662213D01*
G36*
X41873254Y26776504D02*
X41861166Y26764437D01*
X41609287Y26157845D01*
X41608714Y25501037D01*
X41859534Y24894005D01*
X42195132Y24557821D01*
X41861166Y24224437D01*
X41839807Y24173000D01*
X41594579Y24173000D01*
X38450727Y27316853D01*
X38430000Y27961706D01*
X38430000Y29129995D01*
X38430001Y29130000D01*
X38385210Y29355175D01*
X38368598Y29871988D01*
X38578942Y29900380D01*
X38608480Y29910515D01*
X38639692Y29911588D01*
X38715912Y29929493D01*
X38737287Y29939221D01*
X38760637Y29941725D01*
X39081105Y30041980D01*
X39098489Y30051467D01*
X39118014Y30054776D01*
X39500788Y30200710D01*
X39514808Y30209511D01*
X39530968Y30213106D01*
X39909021Y30379774D01*
X39927796Y30392940D01*
X39949774Y30399490D01*
X40266143Y30566607D01*
X41873254Y26776504D01*
X41873254Y26776504D01*
G37*
X41873254Y26776504D02*
X41861166Y26764437D01*
X41609287Y26157845D01*
X41608714Y25501037D01*
X41859534Y24894005D01*
X42195132Y24557821D01*
X41861166Y24224437D01*
X41839807Y24173000D01*
X41594579Y24173000D01*
X38450727Y27316853D01*
X38430000Y27961706D01*
X38430000Y29129995D01*
X38430001Y29130000D01*
X38385210Y29355175D01*
X38368598Y29871988D01*
X38578942Y29900380D01*
X38608480Y29910515D01*
X38639692Y29911588D01*
X38715912Y29929493D01*
X38737287Y29939221D01*
X38760637Y29941725D01*
X39081105Y30041980D01*
X39098489Y30051467D01*
X39118014Y30054776D01*
X39500788Y30200710D01*
X39514808Y30209511D01*
X39530968Y30213106D01*
X39909021Y30379774D01*
X39927796Y30392940D01*
X39949774Y30399490D01*
X40266143Y30566607D01*
X41873254Y26776504D01*
G36*
X53776517Y33959242D02*
X54403059Y25187645D01*
X54403904Y25122792D01*
X54354121Y25373066D01*
X53240993Y27038980D01*
X51575079Y28152108D01*
X50380000Y28389824D01*
X50380000Y34053590D01*
X53776517Y33959242D01*
X53776517Y33959242D01*
G37*
X53776517Y33959242D02*
X54403059Y25187645D01*
X54403904Y25122792D01*
X54354121Y25373066D01*
X53240993Y27038980D01*
X51575079Y28152108D01*
X50380000Y28389824D01*
X50380000Y34053590D01*
X53776517Y33959242D01*
G36*
X44169467Y34226104D02*
X44069287Y33984845D01*
X44068714Y33328037D01*
X44319534Y32721005D01*
X44655132Y32384821D01*
X44321166Y32051437D01*
X44069287Y31444845D01*
X44068714Y30788037D01*
X44319534Y30181005D01*
X44783563Y29716166D01*
X45390155Y29464287D01*
X46046963Y29463714D01*
X46653995Y29714534D01*
X47118834Y30178563D01*
X47370713Y30785155D01*
X47371286Y31441963D01*
X47120466Y32048995D01*
X46784868Y32385179D01*
X47118834Y32718563D01*
X47370713Y33325155D01*
X47371286Y33981963D01*
X47306413Y34138967D01*
X48960000Y34093034D01*
X48960000Y28413694D01*
X47644921Y28152108D01*
X46417905Y27332242D01*
X44822101Y28910808D01*
X44660466Y29301995D01*
X44196437Y29766834D01*
X43783307Y29938380D01*
X41800291Y31899976D01*
X41840395Y31941060D01*
X42332749Y32697546D01*
X42353267Y32748823D01*
X42384521Y32794354D01*
X42756437Y33661364D01*
X42767621Y33714124D01*
X42790294Y33763058D01*
X42875480Y34114882D01*
X42877097Y34154095D01*
X42889156Y34191445D01*
X42897309Y34261442D01*
X44169467Y34226104D01*
X44169467Y34226104D01*
G37*
X44169467Y34226104D02*
X44069287Y33984845D01*
X44068714Y33328037D01*
X44319534Y32721005D01*
X44655132Y32384821D01*
X44321166Y32051437D01*
X44069287Y31444845D01*
X44068714Y30788037D01*
X44319534Y30181005D01*
X44783563Y29716166D01*
X45390155Y29464287D01*
X46046963Y29463714D01*
X46653995Y29714534D01*
X47118834Y30178563D01*
X47370713Y30785155D01*
X47371286Y31441963D01*
X47120466Y32048995D01*
X46784868Y32385179D01*
X47118834Y32718563D01*
X47370713Y33325155D01*
X47371286Y33981963D01*
X47306413Y34138967D01*
X48960000Y34093034D01*
X48960000Y28413694D01*
X47644921Y28152108D01*
X46417905Y27332242D01*
X44822101Y28910808D01*
X44660466Y29301995D01*
X44196437Y29766834D01*
X43783307Y29938380D01*
X41800291Y31899976D01*
X41840395Y31941060D01*
X42332749Y32697546D01*
X42353267Y32748823D01*
X42384521Y32794354D01*
X42756437Y33661364D01*
X42767621Y33714124D01*
X42790294Y33763058D01*
X42875480Y34114882D01*
X42877097Y34154095D01*
X42889156Y34191445D01*
X42897309Y34261442D01*
X44169467Y34226104D01*
G36*
X32194072Y-2620000D02*
X10331484Y-2620000D01*
X12278718Y20000D01*
X32552358Y20000D01*
X32194072Y-2620000D01*
X32194072Y-2620000D01*
G37*
X32194072Y-2620000D02*
X10331484Y-2620000D01*
X12278718Y20000D01*
X32552358Y20000D01*
X32194072Y-2620000D01*
G36*
X25107927Y3695154D02*
X25324030Y3605420D01*
X25482325Y3368514D01*
X25489210Y3358210D01*
X26251208Y2596213D01*
X26251210Y2596210D01*
X26538325Y2404367D01*
X26594516Y2393190D01*
X26877000Y2336999D01*
X26877005Y2337000D01*
X32866808Y2337000D01*
X32745072Y1440000D01*
X13326094Y1440000D01*
X14979730Y3681948D01*
X15548453Y3445794D01*
X16198694Y3445226D01*
X16799655Y3693538D01*
X17145199Y4038480D01*
X17487927Y3695154D01*
X18088453Y3445794D01*
X18738694Y3445226D01*
X19339655Y3693538D01*
X19685199Y4038480D01*
X20027927Y3695154D01*
X20628453Y3445794D01*
X21278694Y3445226D01*
X21879655Y3693538D01*
X22225199Y4038480D01*
X22567927Y3695154D01*
X23168453Y3445794D01*
X23818694Y3445226D01*
X24419655Y3693538D01*
X24765199Y4038480D01*
X25107927Y3695154D01*
X25107927Y3695154D01*
G37*
X25107927Y3695154D02*
X25324030Y3605420D01*
X25482325Y3368514D01*
X25489210Y3358210D01*
X26251208Y2596213D01*
X26251210Y2596210D01*
X26538325Y2404367D01*
X26594516Y2393190D01*
X26877000Y2336999D01*
X26877005Y2337000D01*
X32866808Y2337000D01*
X32745072Y1440000D01*
X13326094Y1440000D01*
X14979730Y3681948D01*
X15548453Y3445794D01*
X16198694Y3445226D01*
X16799655Y3693538D01*
X17145199Y4038480D01*
X17487927Y3695154D01*
X18088453Y3445794D01*
X18738694Y3445226D01*
X19339655Y3693538D01*
X19685199Y4038480D01*
X20027927Y3695154D01*
X20628453Y3445794D01*
X21278694Y3445226D01*
X21879655Y3693538D01*
X22225199Y4038480D01*
X22567927Y3695154D01*
X23168453Y3445794D01*
X23818694Y3445226D01*
X24419655Y3693538D01*
X24765199Y4038480D01*
X25107927Y3695154D01*
G36*
X33107022Y4107000D02*
X32761930Y4107000D01*
X32761930Y6079490D01*
X32717652Y6314807D01*
X32578580Y6530931D01*
X32366380Y6675921D01*
X32114490Y6726930D01*
X30115510Y6726930D01*
X29951684Y6696104D01*
X34009042Y10753463D01*
X33107022Y4107000D01*
X33107022Y4107000D01*
G37*
X33107022Y4107000D02*
X32761930Y4107000D01*
X32761930Y6079490D01*
X32717652Y6314807D01*
X32578580Y6530931D01*
X32366380Y6675921D01*
X32114490Y6726930D01*
X30115510Y6726930D01*
X29951684Y6696104D01*
X34009042Y10753463D01*
X33107022Y4107000D01*
G36*
X17332014Y6308407D02*
X17144801Y6121520D01*
X16934509Y6332179D01*
X17093155Y6547266D01*
X17332014Y6308407D01*
X17332014Y6308407D01*
G37*
X17332014Y6308407D02*
X17144801Y6121520D01*
X16934509Y6332179D01*
X17093155Y6547266D01*
X17332014Y6308407D01*
G36*
X22610000Y10682421D02*
X22610000Y6482847D01*
X22570345Y6466462D01*
X22224801Y6121520D01*
X21882073Y6464846D01*
X21840000Y6482316D01*
X21840000Y10032995D01*
X21840001Y10033000D01*
X21802251Y10222781D01*
X21834850Y10301289D01*
X21835348Y10872207D01*
X21617328Y11399857D01*
X21213980Y11803909D01*
X21084047Y11857862D01*
X21211857Y11910672D01*
X21296877Y11995544D01*
X22610000Y10682421D01*
X22610000Y10682421D01*
G37*
X22610000Y10682421D02*
X22610000Y6482847D01*
X22570345Y6466462D01*
X22224801Y6121520D01*
X21882073Y6464846D01*
X21840000Y6482316D01*
X21840000Y10032995D01*
X21840001Y10033000D01*
X21802251Y10222781D01*
X21834850Y10301289D01*
X21835348Y10872207D01*
X21617328Y11399857D01*
X21213980Y11803909D01*
X21084047Y11857862D01*
X21211857Y11910672D01*
X21296877Y11995544D01*
X22610000Y10682421D01*
G36*
X30829199Y24558000D02*
X30433778Y24293789D01*
X30125441Y23832329D01*
X30017167Y23288000D01*
X30125441Y22743671D01*
X30433778Y22282211D01*
X30829199Y22018000D01*
X30433778Y21753789D01*
X30125441Y21292329D01*
X30017167Y20748000D01*
X30125441Y20203671D01*
X30433778Y19742211D01*
X30895238Y19433874D01*
X31439567Y19325600D01*
X32220433Y19325600D01*
X32764762Y19433874D01*
X32850000Y19490828D01*
X32850000Y18253125D01*
X32766437Y18336834D01*
X32159845Y18588713D01*
X31503037Y18589286D01*
X30896005Y18338466D01*
X30431166Y17874437D01*
X30179287Y17267845D01*
X30178714Y16611037D01*
X30429534Y16004005D01*
X30893563Y15539166D01*
X31500155Y15287287D01*
X32156963Y15286714D01*
X32763995Y15537534D01*
X32850000Y15623389D01*
X32850000Y12097579D01*
X28029210Y7276790D01*
X27837367Y6989675D01*
X27837367Y6989674D01*
X27769999Y6651000D01*
X27770000Y6650995D01*
X27770000Y6515902D01*
X27650345Y6466462D01*
X27304801Y6121520D01*
X26962073Y6464846D01*
X26361547Y6714206D01*
X25711306Y6714774D01*
X25110345Y6466462D01*
X24764801Y6121520D01*
X24422073Y6464846D01*
X24380000Y6482316D01*
X24380000Y11048995D01*
X24380001Y11049000D01*
X24353929Y11180068D01*
X24403947Y11105211D01*
X24520210Y10931210D01*
X25162239Y10289182D01*
X25162225Y10273612D01*
X25403398Y9689928D01*
X25849579Y9242968D01*
X26432841Y9000776D01*
X27064388Y9000225D01*
X27648072Y9241398D01*
X28095032Y9687579D01*
X28337224Y10270841D01*
X28337775Y10902388D01*
X28096602Y11486072D01*
X27725065Y11858257D01*
X27762810Y11895936D01*
X27873410Y11724059D01*
X28085610Y11579069D01*
X28337500Y11528060D01*
X30242500Y11528060D01*
X30477817Y11572338D01*
X30693941Y11711410D01*
X30838931Y11923610D01*
X30889940Y12175500D01*
X30889940Y14080500D01*
X30845662Y14315817D01*
X30706590Y14531941D01*
X30494390Y14676931D01*
X30242500Y14727940D01*
X28337500Y14727940D01*
X28102183Y14683662D01*
X27886059Y14544590D01*
X27761284Y14361976D01*
X27650421Y14473032D01*
X27067159Y14715224D01*
X26435612Y14715775D01*
X26031000Y14548593D01*
X26031000Y14619420D01*
X26787787Y15376208D01*
X26787790Y15376210D01*
X26979633Y15663325D01*
X27014244Y15837325D01*
X27047001Y16002000D01*
X27047000Y16002005D01*
X27047000Y18795995D01*
X27047001Y18796000D01*
X26979633Y19134674D01*
X26979633Y19134675D01*
X26787790Y19421790D01*
X26787787Y19421792D01*
X26673532Y19536047D01*
X30526735Y24760100D01*
X30829199Y24558000D01*
X30829199Y24558000D01*
G37*
X30829199Y24558000D02*
X30433778Y24293789D01*
X30125441Y23832329D01*
X30017167Y23288000D01*
X30125441Y22743671D01*
X30433778Y22282211D01*
X30829199Y22018000D01*
X30433778Y21753789D01*
X30125441Y21292329D01*
X30017167Y20748000D01*
X30125441Y20203671D01*
X30433778Y19742211D01*
X30895238Y19433874D01*
X31439567Y19325600D01*
X32220433Y19325600D01*
X32764762Y19433874D01*
X32850000Y19490828D01*
X32850000Y18253125D01*
X32766437Y18336834D01*
X32159845Y18588713D01*
X31503037Y18589286D01*
X30896005Y18338466D01*
X30431166Y17874437D01*
X30179287Y17267845D01*
X30178714Y16611037D01*
X30429534Y16004005D01*
X30893563Y15539166D01*
X31500155Y15287287D01*
X32156963Y15286714D01*
X32763995Y15537534D01*
X32850000Y15623389D01*
X32850000Y12097579D01*
X28029210Y7276790D01*
X27837367Y6989675D01*
X27837367Y6989674D01*
X27769999Y6651000D01*
X27770000Y6650995D01*
X27770000Y6515902D01*
X27650345Y6466462D01*
X27304801Y6121520D01*
X26962073Y6464846D01*
X26361547Y6714206D01*
X25711306Y6714774D01*
X25110345Y6466462D01*
X24764801Y6121520D01*
X24422073Y6464846D01*
X24380000Y6482316D01*
X24380000Y11048995D01*
X24380001Y11049000D01*
X24353929Y11180068D01*
X24403947Y11105211D01*
X24520210Y10931210D01*
X25162239Y10289182D01*
X25162225Y10273612D01*
X25403398Y9689928D01*
X25849579Y9242968D01*
X26432841Y9000776D01*
X27064388Y9000225D01*
X27648072Y9241398D01*
X28095032Y9687579D01*
X28337224Y10270841D01*
X28337775Y10902388D01*
X28096602Y11486072D01*
X27725065Y11858257D01*
X27762810Y11895936D01*
X27873410Y11724059D01*
X28085610Y11579069D01*
X28337500Y11528060D01*
X30242500Y11528060D01*
X30477817Y11572338D01*
X30693941Y11711410D01*
X30838931Y11923610D01*
X30889940Y12175500D01*
X30889940Y14080500D01*
X30845662Y14315817D01*
X30706590Y14531941D01*
X30494390Y14676931D01*
X30242500Y14727940D01*
X28337500Y14727940D01*
X28102183Y14683662D01*
X27886059Y14544590D01*
X27761284Y14361976D01*
X27650421Y14473032D01*
X27067159Y14715224D01*
X26435612Y14715775D01*
X26031000Y14548593D01*
X26031000Y14619420D01*
X26787787Y15376208D01*
X26787790Y15376210D01*
X26979633Y15663325D01*
X27014244Y15837325D01*
X27047001Y16002000D01*
X27047000Y16002005D01*
X27047000Y18795995D01*
X27047001Y18796000D01*
X26979633Y19134674D01*
X26979633Y19134675D01*
X26787790Y19421790D01*
X26787787Y19421792D01*
X26673532Y19536047D01*
X30526735Y24760100D01*
X30829199Y24558000D01*
G36*
X19586020Y9372091D02*
X20070000Y9171125D01*
X20070000Y6482847D01*
X20030345Y6466462D01*
X19684801Y6121520D01*
X19342073Y6464846D01*
X19298848Y6482794D01*
X19232633Y6815674D01*
X19232633Y6815675D01*
X19040790Y7102790D01*
X19040787Y7102792D01*
X18155720Y7987859D01*
X19350635Y9607887D01*
X19586020Y9372091D01*
X19586020Y9372091D01*
G37*
X19586020Y9372091D02*
X20070000Y9171125D01*
X20070000Y6482847D01*
X20030345Y6466462D01*
X19684801Y6121520D01*
X19342073Y6464846D01*
X19298848Y6482794D01*
X19232633Y6815674D01*
X19232633Y6815675D01*
X19040790Y7102790D01*
X19040787Y7102792D01*
X18155720Y7987859D01*
X19350635Y9607887D01*
X19586020Y9372091D01*
G36*
X23880155Y15287287D02*
X24320854Y15286903D01*
X24260999Y14986000D01*
X24261000Y14985995D01*
X24261000Y11557005D01*
X24260999Y11557000D01*
X24287071Y11425932D01*
X24120790Y11674790D01*
X24120787Y11674792D01*
X22252896Y13542684D01*
X23619521Y15395512D01*
X23880155Y15287287D01*
X23880155Y15287287D01*
G37*
X23880155Y15287287D02*
X24320854Y15286903D01*
X24260999Y14986000D01*
X24261000Y14985995D01*
X24261000Y11557005D01*
X24260999Y11557000D01*
X24287071Y11425932D01*
X24120790Y11674790D01*
X24120787Y11674792D01*
X22252896Y13542684D01*
X23619521Y15395512D01*
X23880155Y15287287D01*
G36*
X34703563Y19349166D02*
X35150420Y19163615D01*
X34620000Y15255258D01*
X34620000Y19432875D01*
X34703563Y19349166D01*
X34703563Y19349166D01*
G37*
X34703563Y19349166D02*
X35150420Y19163615D01*
X34620000Y15255258D01*
X34620000Y19432875D01*
X34703563Y19349166D01*
G36*
X32850000Y22005172D02*
X32830801Y22018000D01*
X32850000Y22030828D01*
X32850000Y22005172D01*
X32850000Y22005172D01*
G37*
X32850000Y22005172D02*
X32830801Y22018000D01*
X32850000Y22030828D01*
X32850000Y22005172D01*
G36*
X34009617Y28746804D02*
X33989287Y28697845D01*
X33988714Y28041037D01*
X34239534Y27434005D01*
X34575132Y27097821D01*
X34241166Y26764437D01*
X33989287Y26157845D01*
X33988714Y25501037D01*
X34009983Y25449562D01*
X33109210Y24548790D01*
X33027532Y24426549D01*
X32830801Y24558000D01*
X33226222Y24822211D01*
X33534559Y25283671D01*
X33642833Y25828000D01*
X33534559Y26372329D01*
X33226222Y26833789D01*
X32830801Y27098000D01*
X33226222Y27362211D01*
X33534559Y27823671D01*
X33642833Y28368000D01*
X33546201Y28853800D01*
X33697498Y29058923D01*
X34009617Y28746804D01*
X34009617Y28746804D01*
G37*
X34009617Y28746804D02*
X33989287Y28697845D01*
X33988714Y28041037D01*
X34239534Y27434005D01*
X34575132Y27097821D01*
X34241166Y26764437D01*
X33989287Y26157845D01*
X33988714Y25501037D01*
X34009983Y25449562D01*
X33109210Y24548790D01*
X33027532Y24426549D01*
X32830801Y24558000D01*
X33226222Y24822211D01*
X33534559Y25283671D01*
X33642833Y25828000D01*
X33534559Y26372329D01*
X33226222Y26833789D01*
X32830801Y27098000D01*
X33226222Y27362211D01*
X33534559Y27823671D01*
X33642833Y28368000D01*
X33546201Y28853800D01*
X33697498Y29058923D01*
X34009617Y28746804D01*
G36*
X-5525000Y20148013D02*
X-5134121Y18182934D01*
X-4020993Y16517020D01*
X-2355079Y15403892D01*
X-1040000Y15142306D01*
X-1040000Y4581838D01*
X-7649139Y-639960D01*
X-15781988Y18128152D01*
X-5525000Y21268563D01*
X-5525000Y20148013D01*
X-5525000Y20148013D01*
G37*
X-5525000Y20148013D02*
X-5134121Y18182934D01*
X-4020993Y16517020D01*
X-2355079Y15403892D01*
X-1040000Y15142306D01*
X-1040000Y4581838D01*
X-7649139Y-639960D01*
X-15781988Y18128152D01*
X-5525000Y21268563D01*
X-5525000Y20148013D01*
G36*
X25997210Y30263790D02*
X25805367Y29976675D01*
X25805367Y29976674D01*
X25742006Y29658144D01*
X25604890Y29751831D01*
X25353000Y29802840D01*
X23067000Y29802840D01*
X22831683Y29758562D01*
X22615559Y29619490D01*
X22470569Y29407290D01*
X22439324Y29253000D01*
X21891000Y29253000D01*
X21552325Y29185633D01*
X21265210Y28993790D01*
X21265208Y28993787D01*
X19774210Y27502790D01*
X19582367Y27215675D01*
X19582367Y27215674D01*
X19514999Y26877000D01*
X19515000Y26876995D01*
X19515000Y20822085D01*
X17316750Y19085276D01*
X17394868Y19478000D01*
X17285635Y20027151D01*
X16974566Y20492698D01*
X16509019Y20803767D01*
X15959868Y20913000D01*
X14680132Y20913000D01*
X14130981Y20803767D01*
X13665434Y20492698D01*
X13354365Y20027151D01*
X13245132Y19478000D01*
X13354365Y18928849D01*
X13665434Y18463302D01*
X14130981Y18152233D01*
X14680132Y18043000D01*
X15959868Y18043000D01*
X16010242Y18053020D01*
X8647047Y12235452D01*
X8076531Y12472352D01*
X7326759Y12473006D01*
X6633809Y12186686D01*
X6103178Y11656979D01*
X5815648Y10964531D01*
X5814994Y10214759D01*
X5882551Y10051258D01*
X380000Y5703762D01*
X380000Y15166176D01*
X1575079Y15403892D01*
X3240993Y16517020D01*
X3508705Y16917680D01*
X5802880Y16917680D01*
X5802880Y14418320D01*
X5847158Y14183003D01*
X5986230Y13966879D01*
X6198430Y13821889D01*
X6450320Y13770880D01*
X8949680Y13770880D01*
X9184997Y13815158D01*
X9401121Y13954230D01*
X9546111Y14166430D01*
X9597120Y14418320D01*
X9597120Y16917680D01*
X9552842Y17152997D01*
X9413770Y17369121D01*
X9201570Y17514111D01*
X8949680Y17565120D01*
X6450320Y17565120D01*
X6215003Y17520842D01*
X5998879Y17381770D01*
X5853889Y17169570D01*
X5802880Y16917680D01*
X3508705Y16917680D01*
X4354121Y18182934D01*
X4745000Y20148013D01*
X4745000Y23407987D01*
X4556574Y24355268D01*
X5430160Y24622736D01*
X5031166Y24224437D01*
X4779287Y23617845D01*
X4778714Y22961037D01*
X5029534Y22354005D01*
X5493563Y21889166D01*
X6100155Y21637287D01*
X6756963Y21636714D01*
X7363995Y21887534D01*
X7828834Y22351563D01*
X8080713Y22958155D01*
X8081286Y23614963D01*
X7830466Y24221995D01*
X7366437Y24686834D01*
X6759845Y24938713D01*
X6463028Y24938972D01*
X26942717Y31209297D01*
X25997210Y30263790D01*
X25997210Y30263790D01*
G37*
X25997210Y30263790D02*
X25805367Y29976675D01*
X25805367Y29976674D01*
X25742006Y29658144D01*
X25604890Y29751831D01*
X25353000Y29802840D01*
X23067000Y29802840D01*
X22831683Y29758562D01*
X22615559Y29619490D01*
X22470569Y29407290D01*
X22439324Y29253000D01*
X21891000Y29253000D01*
X21552325Y29185633D01*
X21265210Y28993790D01*
X21265208Y28993787D01*
X19774210Y27502790D01*
X19582367Y27215675D01*
X19582367Y27215674D01*
X19514999Y26877000D01*
X19515000Y26876995D01*
X19515000Y20822085D01*
X17316750Y19085276D01*
X17394868Y19478000D01*
X17285635Y20027151D01*
X16974566Y20492698D01*
X16509019Y20803767D01*
X15959868Y20913000D01*
X14680132Y20913000D01*
X14130981Y20803767D01*
X13665434Y20492698D01*
X13354365Y20027151D01*
X13245132Y19478000D01*
X13354365Y18928849D01*
X13665434Y18463302D01*
X14130981Y18152233D01*
X14680132Y18043000D01*
X15959868Y18043000D01*
X16010242Y18053020D01*
X8647047Y12235452D01*
X8076531Y12472352D01*
X7326759Y12473006D01*
X6633809Y12186686D01*
X6103178Y11656979D01*
X5815648Y10964531D01*
X5814994Y10214759D01*
X5882551Y10051258D01*
X380000Y5703762D01*
X380000Y15166176D01*
X1575079Y15403892D01*
X3240993Y16517020D01*
X3508705Y16917680D01*
X5802880Y16917680D01*
X5802880Y14418320D01*
X5847158Y14183003D01*
X5986230Y13966879D01*
X6198430Y13821889D01*
X6450320Y13770880D01*
X8949680Y13770880D01*
X9184997Y13815158D01*
X9401121Y13954230D01*
X9546111Y14166430D01*
X9597120Y14418320D01*
X9597120Y16917680D01*
X9552842Y17152997D01*
X9413770Y17369121D01*
X9201570Y17514111D01*
X8949680Y17565120D01*
X6450320Y17565120D01*
X6215003Y17520842D01*
X5998879Y17381770D01*
X5853889Y17169570D01*
X5802880Y16917680D01*
X3508705Y16917680D01*
X4354121Y18182934D01*
X4745000Y20148013D01*
X4745000Y23407987D01*
X4556574Y24355268D01*
X5430160Y24622736D01*
X5031166Y24224437D01*
X4779287Y23617845D01*
X4778714Y22961037D01*
X5029534Y22354005D01*
X5493563Y21889166D01*
X6100155Y21637287D01*
X6756963Y21636714D01*
X7363995Y21887534D01*
X7828834Y22351563D01*
X8080713Y22958155D01*
X8081286Y23614963D01*
X7830466Y24221995D01*
X7366437Y24686834D01*
X6759845Y24938713D01*
X6463028Y24938972D01*
X26942717Y31209297D01*
X25997210Y30263790D01*
G36*
X22463838Y27345283D02*
X22602910Y27129159D01*
X22815110Y26984169D01*
X22986803Y26949400D01*
X22813778Y26833789D01*
X22505441Y26372329D01*
X22397167Y25828000D01*
X22505441Y25283671D01*
X22813778Y24822211D01*
X23209199Y24558000D01*
X22813778Y24293789D01*
X22505441Y23832329D01*
X22397167Y23288000D01*
X22429613Y23124884D01*
X21285000Y22220540D01*
X21285000Y26510420D01*
X22257579Y27483000D01*
X22437925Y27483000D01*
X22463838Y27345283D01*
X22463838Y27345283D01*
G37*
X22463838Y27345283D02*
X22602910Y27129159D01*
X22815110Y26984169D01*
X22986803Y26949400D01*
X22813778Y26833789D01*
X22505441Y26372329D01*
X22397167Y25828000D01*
X22505441Y25283671D01*
X22813778Y24822211D01*
X23209199Y24558000D01*
X22813778Y24293789D01*
X22505441Y23832329D01*
X22397167Y23288000D01*
X22429613Y23124884D01*
X21285000Y22220540D01*
X21285000Y26510420D01*
X22257579Y27483000D01*
X22437925Y27483000D01*
X22463838Y27345283D01*
G36*
X25738000Y26829579D02*
X25660691Y26752270D01*
X25606222Y26833789D01*
X25434540Y26948503D01*
X25588317Y26977438D01*
X25738000Y27073756D01*
X25738000Y26829579D01*
X25738000Y26829579D01*
G37*
X25738000Y26829579D02*
X25660691Y26752270D01*
X25606222Y26833789D01*
X25434540Y26948503D01*
X25588317Y26977438D01*
X25738000Y27073756D01*
X25738000Y26829579D01*
G36*
X28778000Y28140666D02*
X28778000Y28636420D01*
X29910579Y29769000D01*
X30838955Y29769000D01*
X28778000Y28140666D01*
X28778000Y28140666D01*
G37*
X28778000Y28140666D02*
X28778000Y28636420D01*
X29910579Y29769000D01*
X30838955Y29769000D01*
X28778000Y28140666D01*
G36*
X32713698Y32541053D02*
X32742165Y32506296D01*
X32761010Y32465519D01*
X32788323Y32428000D01*
X31785244Y32428000D01*
X31905032Y32547579D01*
X31991158Y32754992D01*
X32514221Y32915140D01*
X32713698Y32541053D01*
X32713698Y32541053D01*
G37*
X32713698Y32541053D02*
X32742165Y32506296D01*
X32761010Y32465519D01*
X32788323Y32428000D01*
X31785244Y32428000D01*
X31905032Y32547579D01*
X31991158Y32754992D01*
X32514221Y32915140D01*
X32713698Y32541053D01*
G36*
X-872923Y39139886D02*
X-1026358Y38368514D01*
X-1026358Y38298584D01*
X-1040000Y38230000D01*
X-1040000Y31039131D01*
X-12653000Y29779520D01*
X-12653000Y40292962D01*
X-872923Y39139886D01*
X-872923Y39139886D01*
G37*
X-872923Y39139886D02*
X-1026358Y38368514D01*
X-1026358Y38298584D01*
X-1040000Y38230000D01*
X-1040000Y31039131D01*
X-12653000Y29779520D01*
X-12653000Y40292962D01*
X-872923Y39139886D01*
G36*
X396495Y31198961D02*
X404171Y31195774D01*
X380000Y31193152D01*
X380000Y31215485D01*
X396495Y31198961D01*
X396495Y31198961D01*
G37*
X396495Y31198961D02*
X404171Y31195774D01*
X380000Y31193152D01*
X380000Y31215485D01*
X396495Y31198961D01*
G36*
X22397962Y36862047D02*
X22558563Y36701166D01*
X22610000Y36679807D01*
X22610000Y33604342D01*
X17356799Y33034551D01*
X17323162Y33213317D01*
X17184090Y33429441D01*
X16971890Y33574431D01*
X16720000Y33625440D01*
X13920000Y33625440D01*
X13684683Y33581162D01*
X13468559Y33442090D01*
X13323569Y33229890D01*
X13272560Y32978000D01*
X13272560Y32591551D01*
X12779760Y32538099D01*
X12780330Y33190265D01*
X12490922Y33890686D01*
X11955505Y34427039D01*
X11255590Y34717668D01*
X10497735Y34718330D01*
X9797314Y34428922D01*
X9260961Y33893505D01*
X8970332Y33193590D01*
X8969670Y32435735D01*
X9092621Y32138172D01*
X2815369Y31457306D01*
X3091039Y31732495D01*
X3381668Y32432410D01*
X3382330Y33190265D01*
X3092922Y33890686D01*
X2557505Y34427039D01*
X1857590Y34717668D01*
X1099735Y34718330D01*
X399314Y34428922D01*
X380000Y34409642D01*
X380000Y37197516D01*
X427261Y37083418D01*
X437343Y37078365D01*
X448980Y37050200D01*
X1049041Y36449091D01*
X1079895Y36436279D01*
X1085418Y36425261D01*
X1460954Y36278050D01*
X1833459Y36123372D01*
X1855586Y36123353D01*
X1876187Y36115277D01*
X2279454Y36122982D01*
X2682815Y36122630D01*
X2703266Y36131080D01*
X2725387Y36131503D01*
X3434582Y36425261D01*
X3439635Y36435343D01*
X3467800Y36446980D01*
X4068909Y37047041D01*
X4081721Y37077895D01*
X4092739Y37083418D01*
X4239950Y37458954D01*
X4394628Y37831459D01*
X4394647Y37853586D01*
X4402723Y37874187D01*
X4395018Y38277454D01*
X4395321Y38624211D01*
X22397962Y36862047D01*
X22397962Y36862047D01*
G37*
X22397962Y36862047D02*
X22558563Y36701166D01*
X22610000Y36679807D01*
X22610000Y33604342D01*
X17356799Y33034551D01*
X17323162Y33213317D01*
X17184090Y33429441D01*
X16971890Y33574431D01*
X16720000Y33625440D01*
X13920000Y33625440D01*
X13684683Y33581162D01*
X13468559Y33442090D01*
X13323569Y33229890D01*
X13272560Y32978000D01*
X13272560Y32591551D01*
X12779760Y32538099D01*
X12780330Y33190265D01*
X12490922Y33890686D01*
X11955505Y34427039D01*
X11255590Y34717668D01*
X10497735Y34718330D01*
X9797314Y34428922D01*
X9260961Y33893505D01*
X8970332Y33193590D01*
X8969670Y32435735D01*
X9092621Y32138172D01*
X2815369Y31457306D01*
X3091039Y31732495D01*
X3381668Y32432410D01*
X3382330Y33190265D01*
X3092922Y33890686D01*
X2557505Y34427039D01*
X1857590Y34717668D01*
X1099735Y34718330D01*
X399314Y34428922D01*
X380000Y34409642D01*
X380000Y37197516D01*
X427261Y37083418D01*
X437343Y37078365D01*
X448980Y37050200D01*
X1049041Y36449091D01*
X1079895Y36436279D01*
X1085418Y36425261D01*
X1460954Y36278050D01*
X1833459Y36123372D01*
X1855586Y36123353D01*
X1876187Y36115277D01*
X2279454Y36122982D01*
X2682815Y36122630D01*
X2703266Y36131080D01*
X2725387Y36131503D01*
X3434582Y36425261D01*
X3439635Y36435343D01*
X3467800Y36446980D01*
X4068909Y37047041D01*
X4081721Y37077895D01*
X4092739Y37083418D01*
X4239950Y37458954D01*
X4394628Y37831459D01*
X4394647Y37853586D01*
X4402723Y37874187D01*
X4395018Y38277454D01*
X4395321Y38624211D01*
X22397962Y36862047D01*
G36*
X32015006Y35920696D02*
X31999469Y35716526D01*
X31999469Y35716523D01*
X31997156Y35686126D01*
X31998699Y35673370D01*
X31997624Y35667964D01*
X31998793Y35662089D01*
X31995366Y35645971D01*
X31990645Y35286468D01*
X31990645Y35286463D01*
X31987992Y35084333D01*
X31991797Y35063799D01*
X31988778Y35043134D01*
X32010289Y34623950D01*
X31666439Y34586654D01*
X31460421Y34793032D01*
X30877159Y35035224D01*
X30245612Y35035775D01*
X29661928Y34794602D01*
X29214968Y34348421D01*
X29202938Y34319449D01*
X26939062Y34073897D01*
X26826602Y34346072D01*
X26380421Y34793032D01*
X25797159Y35035224D01*
X25165612Y35035775D01*
X24581928Y34794602D01*
X24380000Y34593026D01*
X24380000Y36668038D01*
X32015006Y35920696D01*
X32015006Y35920696D01*
G37*
X32015006Y35920696D02*
X31999469Y35716526D01*
X31999469Y35716523D01*
X31997156Y35686126D01*
X31998699Y35673370D01*
X31997624Y35667964D01*
X31998793Y35662089D01*
X31995366Y35645971D01*
X31990645Y35286468D01*
X31990645Y35286463D01*
X31987992Y35084333D01*
X31991797Y35063799D01*
X31988778Y35043134D01*
X32010289Y34623950D01*
X31666439Y34586654D01*
X31460421Y34793032D01*
X30877159Y35035224D01*
X30245612Y35035775D01*
X29661928Y34794602D01*
X29214968Y34348421D01*
X29202938Y34319449D01*
X26939062Y34073897D01*
X26826602Y34346072D01*
X26380421Y34793032D01*
X25797159Y35035224D01*
X25165612Y35035775D01*
X24581928Y34794602D01*
X24380000Y34593026D01*
X24380000Y36668038D01*
X32015006Y35920696D01*
M02*
