M48
;DRILL file {KiCad 4.0.4-stable} date 07/14/17 14:45:14
;FORMAT={-:-/ absolute / inch / decimal}
FMAT,2
INCH,TZ
T1C0.016
T2C0.020
T3C0.032
T4C0.032
T5C0.039
T6C0.197
T7C0.118
%
G90
G05
M72
T1
X0.935Y1.245
T3
X0.925Y1.5
X0.9531Y0.6669
X1.0031Y1.3169
X1.0531Y0.5169
X1.0531Y0.4169
X1.1531Y0.5169
X1.2031Y1.3169
X1.225Y1.5
X1.2531Y0.6669
X1.4031Y1.1169
X1.4031Y1.0169
X1.4031Y0.9169
X1.4031Y0.8169
X1.7031Y1.1169
X1.7031Y1.0169
X1.7031Y0.9169
X1.7031Y0.8169
T4
X0.625Y0.2
X0.725Y0.2
X0.825Y0.2
X0.925Y0.2
X0.9531Y1.1169
X0.9531Y1.0169
X0.9531Y0.9169
X0.9531Y0.8169
X1.025Y0.2
X1.125Y0.2
X1.225Y0.2
X1.2531Y1.1169
X1.2531Y1.0169
X1.2531Y0.9169
X1.2531Y0.8169
X1.8Y1.325
X1.8Y1.225
T5
X0.0581Y1.2919
X0.2531Y1.1169
X0.2531Y0.9169
X0.3031Y0.6169
X0.3031Y0.4169
X0.4281Y1.2919
X0.7031Y0.6169
X0.7031Y0.5169
X0.7031Y0.4169
X0.8031Y0.6169
X0.8031Y0.5169
X0.8031Y0.4169
X1.6031Y0.6169
X1.6031Y0.4169
T7
X0.089Y1.5062
X0.089Y0.1283
X1.8606Y1.5062
X1.8606Y0.1283
T2
X0.613Y1.2669G85X0.5933Y1.2669
G05
X0.613Y0.7669G85X0.5933Y0.7669
G05
T6
X-0.0154Y0.759G85X-0.0154Y0.9558
G05
X1.9531Y0.759G85X1.9531Y0.9558
G05
T0
M30
